<svg width="313" height="420" viewBox="0 0 313 420" fill="none" xmlns="http://www.w3.org/2000/svg">
<rect width="324" height="43.2" transform="matrix(0.866026 -0.5 -7.54617e-05 1 0.398438 180.645)" fill="url(#paint0_linear_197_32186)"/>
<circle cx="7.2" cy="7.2" r="9" transform="matrix(0.866026 -0.5 -7.54617e-05 1 173.434 95.1445)" fill="#DFC865" stroke="white" stroke-width="3.6"/>
<path d="M14.609 251.573L5.25596 256.973L3.66547 264.155L0.859544 265.775L7.47095 236.759L12.3969 233.915L19.0045 255.299L16.1986 256.919L14.609 251.573ZM9.74677 236.741L5.97324 253.751L13.8922 249.179L10.1209 236.525L9.74677 236.741ZM30.1442 248.867L25.3429 251.639L19.9507 236.897L22.8189 235.241L27.5566 249.065L27.9307 248.849L32.6708 229.553L35.5391 227.897L30.1442 248.867ZM40.5674 234.786C40.6296 236.526 41.1075 237.678 42.0012 238.242C42.8948 238.806 44.1419 238.626 45.7423 237.702C46.4698 237.282 47.1037 236.82 47.6441 236.316C48.1845 235.812 48.6418 235.284 49.0159 234.732C49.4109 234.168 49.7227 233.604 49.9513 233.04C50.2008 232.44 50.3983 231.846 50.5438 231.258L52.8509 230.646C52.4142 232.554 51.6035 234.378 50.4187 236.118C49.2547 237.822 47.6751 239.25 45.6797 240.402C44.5782 241.038 43.5597 241.41 42.6244 241.518C41.71 241.59 40.9202 241.41 40.2551 240.978C39.5901 240.546 39.0706 239.874 38.6965 238.962C38.3225 238.05 38.1355 236.91 38.1356 235.542L38.1357 234.678C38.1358 233.43 38.3229 232.158 38.6971 230.862C39.0921 229.554 39.6326 228.318 40.3185 227.154C41.0045 225.966 41.8047 224.892 42.7193 223.932C43.6546 222.936 44.6627 222.126 45.7435 221.502C47.0114 220.77 48.1025 220.416 49.017 220.44C49.9523 220.428 50.7109 220.65 51.2928 221.106C51.8955 221.55 52.3319 222.162 52.602 222.942C52.8929 223.71 53.0384 224.49 53.0383 225.282L53.0381 227.586L40.5674 234.786ZM45.7433 224.166C45.0574 224.562 44.4131 225.066 43.8103 225.678C43.2283 226.254 42.7087 226.902 42.2514 227.622C41.8149 228.33 41.4511 229.08 41.1601 229.872C40.8898 230.628 40.7131 231.39 40.6299 232.158L50.6065 226.398C50.565 225.654 50.3988 225.054 50.1079 224.598C49.8377 224.13 49.474 223.812 49.0168 223.644C48.5803 223.464 48.0711 223.422 47.4892 223.518C46.928 223.602 46.3461 223.818 45.7433 224.166ZM55.7608 216.222L61.3726 212.982L61.3724 215.358L61.7466 215.142C62.1415 213.93 62.7028 212.886 63.4303 212.01C64.1578 211.11 64.9892 210.39 65.9245 209.85C67.4833 208.95 68.7407 208.812 69.6968 209.436C70.6528 210.06 71.1619 211.482 71.224 213.702L68.6675 215.61C68.6676 213.954 68.3248 212.964 67.6389 212.64C66.9531 212.292 66.1113 212.406 65.1137 212.982C64.4694 213.354 63.9082 213.822 63.4301 214.386C62.9728 214.938 62.5883 215.556 62.2765 216.24C61.9646 216.924 61.736 217.644 61.5904 218.4C61.4449 219.156 61.3721 219.918 61.372 220.686L61.3715 228.246L65.2998 225.978L65.2996 228.57L55.3853 234.294L55.3855 231.702L58.9397 229.65L58.9406 216.978L55.7606 218.814L55.7608 216.222ZM85.699 213.769L85.3249 213.985C84.8259 215.473 84.1296 216.763 83.2358 217.855C82.3628 218.935 81.4379 219.757 80.461 220.321C79.4426 220.909 78.4969 221.263 77.6239 221.383C76.751 221.479 75.982 221.335 75.317 220.951C74.6727 220.531 74.1636 219.865 73.7895 218.953C73.4155 218.041 73.2285 216.841 73.2286 215.353L73.2287 214.777C73.2288 213.313 73.416 211.909 73.7902 210.565C74.1644 209.221 74.6737 207.979 75.318 206.839C75.9832 205.663 76.7523 204.619 77.6253 203.707C78.4983 202.795 79.4232 202.057 80.4001 201.493C81.4601 200.881 82.4162 200.605 83.2683 200.665C84.1412 200.689 84.827 201.121 85.3258 201.961L85.6999 201.745L85.7001 198.937L88.1319 197.533L88.1308 211.717C88.1308 212.437 88.4113 212.635 88.9725 212.311L89.752 211.861L89.7518 214.453L88.0994 215.407C87.3927 215.815 86.8108 215.887 86.3535 215.623C85.9171 215.347 85.6989 214.801 85.699 213.985L85.699 213.769ZM80.7106 217.513C81.4381 217.093 82.1032 216.553 82.706 215.893C83.3295 215.221 83.8596 214.471 84.2961 213.643C84.7326 212.815 85.0756 211.933 85.3251 210.997C85.5746 210.037 85.6993 209.065 85.6994 208.081L85.6994 207.649C85.6995 206.689 85.5749 205.885 85.3255 205.237C85.0762 204.565 84.7229 204.073 84.2657 203.761C83.8292 203.437 83.2993 203.299 82.6757 203.347C82.073 203.359 81.4183 203.569 80.7116 203.977C79.9842 204.397 79.3191 204.937 78.7163 205.597C78.1135 206.257 77.5835 207.007 77.1262 207.847C76.6896 208.651 76.3466 209.533 76.0972 210.493C75.8477 211.429 75.7229 212.377 75.7228 213.337L75.7228 213.913C75.7226 215.953 76.1798 217.285 77.0942 217.909C78.0294 218.497 79.2349 218.365 80.7106 217.513ZM104.072 203.449L103.698 203.665C103.199 205.033 102.513 206.245 101.64 207.301C100.787 208.321 99.8522 209.125 98.8337 209.713C97.7945 210.313 96.8176 210.673 95.9031 210.793C94.9886 210.913 94.1781 210.793 93.4715 210.433C92.7856 210.061 92.2349 209.431 91.8193 208.543C91.4245 207.619 91.2271 206.425 91.2272 204.961L91.2273 204.385C91.2274 202.945 91.4353 201.541 91.8511 200.173C92.2669 198.781 92.8177 197.503 93.5037 196.339C94.1896 195.151 94.9899 194.089 95.9045 193.153C96.819 192.217 97.7751 191.461 98.7728 190.885C99.8951 190.237 100.872 189.961 101.703 190.057C102.555 190.117 103.221 190.549 103.698 191.353L104.073 191.137L104.073 188.329L106.505 186.925L106.503 209.173C106.503 209.989 106.274 210.793 105.817 211.585C105.38 212.365 104.809 212.959 104.102 213.367L94.032 219.181L94.0321 216.589L103.229 211.279C103.791 210.955 104.071 210.433 104.071 209.713L104.072 203.449ZM98.8963 207.013C99.6237 206.593 100.299 206.047 100.923 205.375C101.546 204.703 102.087 203.947 102.544 203.107C103.022 202.255 103.396 201.355 103.667 200.407C103.937 199.435 104.072 198.457 104.072 197.473L104.072 197.041C104.072 196.081 103.937 195.283 103.667 194.647C103.397 193.987 103.023 193.507 102.545 193.207C102.088 192.895 101.537 192.769 100.893 192.829C100.269 192.853 99.604 193.069 98.8973 193.477C98.1698 193.897 97.4839 194.449 96.8396 195.133C96.216 195.805 95.6652 196.567 95.1871 197.419C94.7298 198.259 94.366 199.153 94.0957 200.101C93.8463 201.037 93.7215 201.985 93.7214 202.945L93.7214 203.521C93.7213 204.529 93.8459 205.357 94.0953 206.005C94.3654 206.641 94.7291 207.115 95.1863 207.427C95.6643 207.703 96.2151 207.817 96.8386 207.769C97.4621 207.697 98.148 207.445 98.8963 207.013ZM111.938 193.58C112 195.32 112.478 196.472 113.372 197.036C114.266 197.6 115.513 197.42 117.113 196.496C117.841 196.076 118.474 195.614 119.015 195.11C119.555 194.606 120.013 194.078 120.387 193.526C120.782 192.962 121.093 192.398 121.322 191.834C121.572 191.234 121.769 190.64 121.915 190.052L124.222 189.44C123.785 191.348 122.974 193.172 121.79 194.912C120.626 196.616 119.046 198.044 117.051 199.196C115.949 199.832 114.931 200.204 113.995 200.312C113.081 200.384 112.291 200.204 111.626 199.772C110.961 199.34 110.441 198.668 110.067 197.756C109.693 196.844 109.506 195.704 109.506 194.336L109.506 193.472C109.507 192.224 109.694 190.952 110.068 189.656C110.463 188.348 111.003 187.112 111.689 185.948C112.375 184.76 113.176 183.686 114.09 182.726C115.025 181.73 116.034 180.92 117.114 180.296C118.382 179.564 119.473 179.21 120.388 179.234C121.323 179.222 122.082 179.444 122.664 179.9C123.266 180.344 123.703 180.956 123.973 181.736C124.264 182.504 124.409 183.284 124.409 184.076L124.409 186.38L111.938 193.58ZM117.114 182.96C116.428 183.356 115.784 183.86 115.181 184.472C114.599 185.048 114.079 185.696 113.622 186.416C113.186 187.124 112.822 187.874 112.531 188.666C112.261 189.422 112.084 190.184 112.001 190.952L121.977 185.192C121.936 184.448 121.77 183.848 121.479 183.392C121.208 182.924 120.845 182.606 120.388 182.438C119.951 182.258 119.442 182.216 118.86 182.312C118.299 182.396 117.717 182.612 117.114 182.96ZM148.278 180.663L145.846 182.067L145.848 156.867L148.28 155.463L148.279 166.047L148.653 165.831C149.131 164.403 149.796 163.107 150.648 161.943C151.521 160.767 152.581 159.819 153.829 159.099C155.512 158.127 156.873 157.989 157.913 158.685C158.972 159.345 159.502 160.959 159.502 163.527L159.501 174.183L157.07 175.587L157.07 165.507C157.07 163.635 156.707 162.441 155.979 161.925C155.252 161.409 154.265 161.511 153.018 162.231C151.542 163.083 150.378 164.343 149.526 166.011C148.694 167.643 148.278 169.431 148.278 171.375L148.278 180.663ZM165.466 162.676C165.528 164.416 166.006 165.568 166.9 166.132C167.794 166.696 169.041 166.516 170.641 165.592C171.369 165.172 172.003 164.71 172.543 164.206C173.083 163.702 173.541 163.174 173.915 162.622C174.31 162.058 174.622 161.494 174.85 160.93C175.1 160.33 175.297 159.736 175.443 159.148L177.75 158.536C177.313 160.444 176.502 162.268 175.318 164.008C174.154 165.712 172.574 167.14 170.579 168.292C169.477 168.928 168.459 169.3 167.523 169.408C166.609 169.48 165.819 169.3 165.154 168.868C164.489 168.436 163.969 167.764 163.595 166.852C163.221 165.94 163.034 164.8 163.034 163.432L163.035 162.568C163.035 161.32 163.222 160.048 163.596 158.752C163.991 157.444 164.531 156.208 165.217 155.044C165.903 153.856 166.704 152.782 167.618 151.822C168.554 150.826 169.562 150.016 170.642 149.392C171.91 148.66 173.001 148.306 173.916 148.33C174.851 148.318 175.61 148.54 176.192 148.996C176.794 149.44 177.231 150.052 177.501 150.832C177.792 151.6 177.937 152.38 177.937 153.172L177.937 155.476L165.466 162.676ZM170.642 152.056C169.956 152.452 169.312 152.956 168.709 153.568C168.127 154.144 167.608 154.792 167.15 155.512C166.714 156.22 166.35 156.97 166.059 157.762C165.789 158.518 165.612 159.28 165.529 160.048L175.505 154.288C175.464 153.544 175.298 152.944 175.007 152.488C174.737 152.02 174.373 151.702 173.916 151.534C173.479 151.354 172.97 151.312 172.388 151.408C171.827 151.492 171.245 151.708 170.642 152.056ZM192.755 151.96L192.381 152.176C191.882 153.664 191.186 154.954 190.292 156.046C189.419 157.126 188.494 157.948 187.517 158.512C186.499 159.1 185.553 159.454 184.68 159.574C183.807 159.67 183.038 159.526 182.373 159.142C181.729 158.722 181.22 158.056 180.846 157.144C180.472 156.232 180.285 155.032 180.285 153.544L180.285 152.968C180.285 151.504 180.472 150.1 180.846 148.756C181.221 147.412 181.73 146.17 182.374 145.03C183.039 143.854 183.808 142.81 184.681 141.898C185.554 140.986 186.479 140.248 187.456 139.684C188.516 139.072 189.472 138.796 190.324 138.856C191.197 138.88 191.883 139.312 192.382 140.152L192.756 139.936L192.756 137.128L195.188 135.724L195.187 149.908C195.187 150.628 195.468 150.826 196.029 150.502L196.808 150.052L196.808 152.644L195.156 153.598C194.449 154.006 193.867 154.078 193.41 153.814C192.973 153.538 192.755 152.992 192.755 152.176L192.755 151.96ZM187.767 155.704C188.494 155.284 189.159 154.744 189.762 154.084C190.386 153.412 190.916 152.662 191.352 151.834C191.789 151.006 192.132 150.124 192.381 149.188C192.631 148.228 192.756 147.256 192.756 146.272L192.756 145.84C192.756 144.88 192.631 144.076 192.382 143.428C192.132 142.756 191.779 142.264 191.322 141.952C190.885 141.628 190.355 141.49 189.732 141.538C189.129 141.55 188.474 141.76 187.768 142.168C187.04 142.588 186.375 143.128 185.772 143.788C185.17 144.448 184.64 145.198 184.182 146.038C183.746 146.842 183.403 147.724 183.153 148.684C182.904 149.62 182.779 150.568 182.779 151.528L182.779 152.104C182.779 154.144 183.236 155.476 184.15 156.1C185.086 156.688 186.291 156.556 187.767 155.704ZM199.374 148.571L204.986 145.331L204.987 125.315L199.563 128.447L199.563 125.855L207.419 121.319L207.418 143.927L213.03 140.687L213.029 143.279L199.374 151.163L199.374 148.571ZM216.688 123.311L221.552 120.503L221.552 113.159L223.984 111.755L223.983 119.099L229.969 115.643L229.969 118.235L223.983 121.691L223.982 133.283C223.982 134.003 224.263 134.201 224.824 133.877L229.22 131.339L229.22 133.931L223.951 136.973C223.244 137.381 222.662 137.453 222.205 137.189C221.769 136.913 221.55 136.367 221.55 135.551L221.551 123.095L216.688 125.903L216.688 123.311ZM237.491 129.156L235.059 130.56L235.061 105.36L237.493 103.956L237.492 114.54L237.866 114.324C238.344 112.896 239.01 111.6 239.862 110.436C240.735 109.26 241.795 108.312 243.042 107.592C244.726 106.62 246.087 106.482 247.126 107.178C248.186 107.838 248.716 109.452 248.716 112.02L248.715 122.676L246.283 124.08L246.284 114C246.284 112.128 245.92 110.934 245.193 110.418C244.466 109.902 243.478 110.004 242.231 110.724C240.756 111.576 239.592 112.836 238.739 114.504C237.908 116.136 237.492 117.924 237.492 119.868L237.491 129.156ZM285.336 92.8206C285.336 94.3086 285.118 95.7546 284.681 97.1586C284.265 98.5266 283.704 99.8106 282.997 101.011C282.291 102.187 281.459 103.255 280.503 104.215C279.568 105.163 278.591 105.931 277.572 106.519C276.533 107.119 275.546 107.485 274.611 107.617C273.675 107.749 272.854 107.635 272.148 107.275C271.441 106.891 270.87 106.261 270.433 105.385C270.018 104.473 269.81 103.273 269.81 101.785L269.81 101.353C269.81 99.8886 270.018 98.4726 270.434 97.1046C270.871 95.7006 271.442 94.3986 272.149 93.1986C272.876 91.9866 273.708 90.9066 274.643 89.9586C275.579 89.0106 276.555 88.2426 277.574 87.6546C278.592 87.0666 279.569 86.7066 280.504 86.5746C281.44 86.4426 282.261 86.5686 282.967 86.9526C283.695 87.3246 284.266 87.9666 284.682 88.8786C285.118 89.7546 285.336 90.9246 285.336 92.3886L285.336 92.8206ZM277.573 103.855C278.321 103.423 279.007 102.883 279.63 102.235C280.275 101.551 280.836 100.783 281.314 99.9306C281.792 99.0786 282.166 98.1786 282.437 97.2306C282.707 96.2586 282.842 95.2686 282.842 94.2606L282.842 93.8286C282.842 92.8686 282.707 92.0706 282.437 91.4346C282.167 90.7746 281.793 90.2946 281.315 89.9946C280.837 89.6946 280.276 89.5746 279.631 89.6346C278.987 89.6706 278.301 89.8986 277.574 90.3186C276.846 90.7386 276.16 91.3026 275.516 92.0106C274.872 92.6946 274.31 93.4626 273.832 94.3146C273.354 95.1666 272.98 96.0786 272.71 97.0506C272.439 97.9986 272.304 98.9526 272.304 99.9126L272.304 100.345C272.304 101.353 272.439 102.187 272.709 102.847C272.979 103.483 273.354 103.951 273.832 104.251C274.31 104.551 274.86 104.677 275.484 104.629C276.128 104.545 276.824 104.287 277.573 103.855ZM288.433 81.8892L293.203 79.1352L293.203 74.5992C293.203 73.7832 293.422 72.9852 293.858 72.2052C294.315 71.4132 294.897 70.8132 295.604 70.4052L301.715 66.8772L301.715 69.4692L296.477 72.4932C295.916 72.8172 295.635 73.3392 295.635 74.0592L295.635 77.7312L302.088 74.0052L302.088 76.5972L295.635 80.3232L295.633 95.5872L293.202 96.9912L293.203 81.7272L288.433 84.4812L288.433 81.8892ZM14.139 283.251L16.5708 281.847L16.5695 299.703L14.1377 301.107L14.1379 297.867L13.7638 298.083C13.2649 299.523 12.6101 300.813 11.7994 301.953C10.9888 303.093 9.95992 304.023 8.71284 304.743C7.86068 305.235 7.07087 305.523 6.34344 305.607C5.63678 305.703 5.02367 305.577 4.50411 305.229C4.00533 304.869 3.61048 304.293 3.31957 303.501C3.04944 302.697 2.91442 301.659 2.91452 300.387L2.91532 289.731L5.34712 288.327L5.34635 298.623C5.3462 300.495 5.67866 301.671 6.3437 302.151C7.00874 302.631 8.02715 302.475 9.39894 301.683C10.8746 300.831 12.0282 299.589 12.8597 297.957C13.712 296.289 14.1382 294.483 14.1383 292.539L14.139 283.251ZM20.0721 279.825L25.684 276.585L25.6838 278.961L26.0579 278.745C26.4529 277.533 27.0141 276.489 27.7416 275.613C28.4691 274.713 29.3005 273.993 30.2358 273.453C31.7947 272.553 33.0521 272.415 34.0081 273.039C34.9641 273.663 35.4732 275.085 35.5354 277.305L32.9789 279.213C32.979 277.557 32.6361 276.567 31.9503 276.243C31.2644 275.895 30.4227 276.009 29.425 276.585C28.7807 276.957 28.2195 277.425 27.7415 277.989C27.2842 278.541 26.8996 279.159 26.5878 279.843C26.276 280.527 26.0473 281.247 25.9018 282.003C25.7562 282.759 25.6834 283.521 25.6834 284.289L25.6828 291.849L29.6111 289.581L29.6109 292.173L19.6967 297.897L19.6969 295.305L23.251 293.253L23.252 280.581L20.0719 282.417L20.0721 279.825ZM40.657 285.796L38.2252 287.2L38.2271 262L40.6589 260.596L40.6582 270.748L41.0323 270.532C41.5728 269.14 42.3211 267.892 43.2772 266.788C44.2334 265.66 45.2726 264.772 46.395 264.124C47.3511 263.572 48.2552 263.254 49.1073 263.17C49.9595 263.086 50.7077 263.242 51.3519 263.638C52.017 264.022 52.5365 264.67 52.9106 265.582C53.3054 266.482 53.5027 267.652 53.5026 269.092L53.5026 269.812C53.5025 271.276 53.3153 272.68 52.9411 274.024C52.5669 275.368 52.0472 276.616 51.382 277.768C50.7377 278.908 49.979 279.934 49.106 280.846C48.233 281.734 47.3081 282.46 46.3312 283.024C45.8324 283.312 45.3232 283.534 44.8036 283.69C44.2839 283.87 43.7851 283.966 43.3071 283.978C42.8499 283.954 42.4238 283.864 42.0289 283.708C41.634 283.528 41.3015 283.24 41.0314 282.844L40.6573 283.06L40.657 285.796ZM45.8326 280.648C46.5808 280.216 47.2667 279.676 47.8903 279.028C48.5138 278.356 49.0543 277.612 49.5116 276.796C49.9897 275.968 50.3535 275.086 50.6029 274.15C50.8732 273.202 51.0084 272.236 51.0084 271.252L51.0085 270.532C51.0086 269.572 50.8735 268.786 50.6034 268.174C50.354 267.526 49.9903 267.064 49.5123 266.788C49.0551 266.476 48.5044 266.35 47.8601 266.41C47.2365 266.458 46.5611 266.692 45.8336 267.112C45.1061 267.532 44.4306 268.09 43.8071 268.786C43.1835 269.458 42.6327 270.22 42.1546 271.072C41.6973 271.912 41.3335 272.818 41.0632 273.79C40.793 274.738 40.6578 275.692 40.6577 276.652L40.6577 277.084C40.6576 278.068 40.7927 278.89 41.0628 279.55C41.3329 280.186 41.6966 280.66 42.1538 280.972C42.6318 281.272 43.1826 281.398 43.8061 281.35C44.4296 281.302 45.1051 281.068 45.8326 280.648ZM67.853 267.07L67.4789 267.286C66.98 268.774 66.2837 270.064 65.3899 271.156C64.5169 272.236 63.5919 273.058 62.6151 273.622C61.5966 274.21 60.6509 274.564 59.778 274.684C58.9051 274.78 58.1361 274.636 57.471 274.252C56.8268 273.832 56.3176 273.166 55.9436 272.254C55.5696 271.342 55.3826 270.142 55.3827 268.654L55.3827 268.078C55.3829 266.614 55.57 265.21 55.9442 263.866C56.3184 262.522 56.8277 261.28 57.4721 260.14C58.1373 258.964 58.9064 257.92 59.7793 257.008C60.6523 256.096 61.5773 255.358 62.5541 254.794C63.6141 254.182 64.5702 253.906 65.4223 253.966C66.2953 253.99 66.9811 254.422 67.4798 255.262L67.854 255.046L67.8542 252.238L70.286 250.834L70.2849 265.018C70.2848 265.738 70.5654 265.936 71.1266 265.612L71.906 265.162L71.9058 267.754L70.2534 268.708C69.5468 269.116 68.9648 269.188 68.5076 268.924C68.0712 268.648 67.853 268.102 67.853 267.286L67.853 267.07ZM62.8647 270.814C63.5921 270.394 64.2573 269.854 64.86 269.194C65.4836 268.522 66.0136 267.772 66.4502 266.944C66.8867 266.116 67.2297 265.234 67.4791 264.298C67.7286 263.338 67.8534 262.366 67.8535 261.382L67.8535 260.95C67.8536 259.99 67.7289 259.186 67.4796 258.538C67.2302 257.866 66.8769 257.374 66.4197 257.062C65.9833 256.738 65.4533 256.6 64.8298 256.648C64.2271 256.66 63.5724 256.87 62.8657 257.278C62.1382 257.698 61.4731 258.238 60.8703 258.898C60.2676 259.558 59.7375 260.308 59.2802 261.148C58.8437 261.952 58.5007 262.834 58.2512 263.794C58.0017 264.73 57.877 265.678 57.8769 266.638L57.8769 267.214C57.8767 269.254 58.3338 270.586 59.2483 271.21C60.1835 271.798 61.389 271.666 62.8647 270.814ZM76.9036 264.869L74.4718 266.273L74.4732 248.417L76.905 247.013L76.9047 250.037L77.2789 249.821C78.2351 246.917 79.898 244.781 82.2674 243.413C84.0549 242.381 85.4786 242.207 86.5385 242.891C87.5984 243.551 88.1283 245.165 88.1281 247.733L88.1273 258.389L85.6955 259.793L85.6963 249.713C85.6964 247.841 85.3328 246.647 84.6054 246.131C83.878 245.615 82.8908 245.717 81.6437 246.437C80.168 247.289 79.004 248.549 78.1517 250.217C77.3203 251.849 76.9045 253.637 76.9043 255.581L76.9036 264.869ZM119.354 240.36L114.553 243.132L109.161 228.39L112.029 226.734L116.767 240.558L117.141 240.342L121.881 221.046L124.749 219.39L119.354 240.36ZM129.778 226.279C129.84 228.019 130.318 229.171 131.211 229.735C132.105 230.299 133.352 230.119 134.953 229.195C135.68 228.775 136.314 228.313 136.854 227.809C137.395 227.305 137.852 226.777 138.226 226.225C138.621 225.661 138.933 225.097 139.162 224.533C139.411 223.933 139.609 223.339 139.754 222.751L142.061 222.139C141.624 224.047 140.814 225.871 139.629 227.611C138.465 229.315 136.885 230.743 134.89 231.895C133.788 232.531 132.77 232.903 131.835 233.011C130.92 233.083 130.13 232.903 129.465 232.471C128.8 232.039 128.281 231.367 127.907 230.455C127.533 229.543 127.346 228.403 127.346 227.035L127.346 226.171C127.346 224.923 127.533 223.651 127.907 222.355C128.302 221.047 128.843 219.811 129.529 218.647C130.215 217.459 131.015 216.385 131.93 215.425C132.865 214.429 133.873 213.619 134.954 212.995C136.222 212.263 137.313 211.909 138.227 211.933C139.163 211.921 139.921 212.143 140.503 212.599C141.106 213.043 141.542 213.655 141.812 214.435C142.103 215.203 142.249 215.983 142.249 216.775L142.248 219.079L129.778 226.279ZM134.954 215.659C134.268 216.055 133.623 216.559 133.021 217.171C132.439 217.747 131.919 218.395 131.462 219.115C131.025 219.823 130.661 220.573 130.37 221.365C130.1 222.121 129.923 222.883 129.84 223.651L139.817 217.891C139.775 217.147 139.609 216.547 139.318 216.091C139.048 215.623 138.684 215.305 138.227 215.137C137.791 214.957 137.281 214.915 136.699 215.011C136.138 215.095 135.556 215.311 134.954 215.659ZM157.597 215.545L157.222 215.761C156.723 217.129 156.038 218.341 155.165 219.397C154.312 220.417 153.377 221.221 152.359 221.809C151.319 222.409 150.342 222.769 149.428 222.889C148.513 223.009 147.703 222.889 146.996 222.529C146.31 222.157 145.76 221.527 145.344 220.639C144.949 219.715 144.752 218.521 144.752 217.057L144.752 216.481C144.752 215.041 144.96 213.637 145.376 212.269C145.792 210.877 146.343 209.599 147.029 208.435C147.714 207.247 148.515 206.185 149.429 205.249C150.344 204.313 151.3 203.557 152.298 202.981C153.42 202.333 154.397 202.057 155.228 202.153C156.08 202.213 156.745 202.645 157.223 203.449L157.597 203.233L157.598 200.425L160.029 199.021L160.028 221.269C160.028 222.085 159.799 222.889 159.342 223.681C158.905 224.461 158.334 225.055 157.627 225.463L147.557 231.277L147.557 228.685L156.754 223.375C157.315 223.051 157.596 222.529 157.596 221.809L157.597 215.545ZM152.421 219.109C153.149 218.689 153.824 218.143 154.448 217.471C155.071 216.799 155.612 216.043 156.069 215.203C156.547 214.351 156.921 213.451 157.191 212.503C157.462 211.531 157.597 210.553 157.597 209.569L157.597 209.137C157.597 208.177 157.462 207.379 157.192 206.743C156.922 206.083 156.548 205.603 156.07 205.303C155.612 204.991 155.062 204.865 154.417 204.925C153.794 204.949 153.129 205.165 152.422 205.573C151.695 205.993 151.009 206.545 150.364 207.229C149.741 207.901 149.19 208.663 148.712 209.515C148.255 210.355 147.891 211.249 147.621 212.197C147.371 213.133 147.246 214.081 147.246 215.041L147.246 215.617C147.246 216.625 147.371 217.453 147.62 218.101C147.89 218.737 148.254 219.211 148.711 219.523C149.189 219.799 149.74 219.913 150.363 219.865C150.987 219.793 151.673 219.541 152.421 219.109ZM165.463 205.676C165.525 207.416 166.003 208.568 166.897 209.132C167.79 209.696 169.038 209.516 170.638 208.592C171.365 208.172 171.999 207.71 172.54 207.206C173.08 206.702 173.537 206.174 173.912 205.622C174.307 205.058 174.618 204.494 174.847 203.93C175.096 203.33 175.294 202.736 175.439 202.148L177.746 201.536C177.31 203.444 176.499 205.268 175.314 207.008C174.15 208.712 172.571 210.14 170.575 211.292C169.474 211.928 168.455 212.3 167.52 212.408C166.606 212.48 165.816 212.3 165.151 211.868C164.486 211.436 163.966 210.764 163.592 209.852C163.218 208.94 163.031 207.8 163.031 206.432L163.031 205.568C163.031 204.32 163.219 203.048 163.593 201.752C163.988 200.444 164.528 199.208 165.214 198.044C165.9 196.856 166.7 195.782 167.615 194.822C168.55 193.826 169.558 193.016 170.639 192.392C171.907 191.66 172.998 191.306 173.913 191.33C174.848 191.318 175.607 191.54 176.188 191.996C176.791 192.44 177.228 193.052 177.498 193.832C177.789 194.6 177.934 195.38 177.934 196.172L177.934 198.476L165.463 205.676ZM170.639 195.056C169.953 195.452 169.309 195.956 168.706 196.568C168.124 197.144 167.604 197.792 167.147 198.512C166.711 199.22 166.347 199.97 166.056 200.762C165.785 201.518 165.609 202.28 165.526 203.048L175.502 197.288C175.461 196.544 175.294 195.944 175.003 195.488C174.733 195.02 174.37 194.702 173.912 194.534C173.476 194.354 172.967 194.312 172.385 194.408C171.824 194.492 171.242 194.708 170.639 195.056ZM180.999 186.914L185.863 184.106L185.864 176.762L188.295 175.358L188.295 182.702L194.281 179.246L194.281 181.838L188.295 185.294L188.294 196.886C188.294 197.606 188.574 197.804 189.135 197.48L193.531 194.942L193.531 197.534L188.262 200.576C187.556 200.984 186.974 201.056 186.516 200.792C186.08 200.516 185.862 199.97 185.862 199.154L185.863 186.698L180.999 189.506L180.999 186.914ZM210.595 184.659L210.22 184.875C209.722 186.363 209.025 187.653 208.131 188.745C207.258 189.825 206.334 190.647 205.357 191.211C204.338 191.799 203.393 192.153 202.52 192.273C201.647 192.369 200.878 192.225 200.213 191.841C199.568 191.421 199.059 190.755 198.685 189.843C198.311 188.931 198.124 187.731 198.124 186.243L198.124 185.667C198.124 184.203 198.312 182.799 198.686 181.455C199.06 180.111 199.569 178.869 200.214 177.729C200.879 176.553 201.648 175.509 202.521 174.597C203.394 173.685 204.319 172.947 205.296 172.383C206.356 171.771 207.312 171.495 208.164 171.555C209.037 171.579 209.723 172.011 210.221 172.851L210.596 172.635L210.596 169.827L213.028 168.423L213.026 182.607C213.026 183.327 213.307 183.525 213.868 183.201L214.648 182.751L214.647 185.343L212.995 186.297C212.288 186.705 211.706 186.777 211.249 186.513C210.813 186.237 210.595 185.691 210.595 184.875L210.595 184.659ZM205.606 188.403C206.334 187.983 206.999 187.443 207.602 186.783C208.225 186.111 208.755 185.361 209.192 184.533C209.628 183.705 209.971 182.823 210.221 181.887C210.47 180.927 210.595 179.955 210.595 178.971L210.595 178.539C210.595 177.579 210.471 176.775 210.221 176.127C209.972 175.455 209.619 174.963 209.161 174.651C208.725 174.327 208.195 174.189 207.571 174.237C206.969 174.249 206.314 174.459 205.607 174.867C204.88 175.287 204.215 175.827 203.612 176.487C203.009 177.147 202.479 177.897 202.022 178.737C201.585 179.541 201.242 180.423 200.993 181.383C200.743 182.319 200.619 183.267 200.618 184.227L200.618 184.803C200.618 186.843 201.075 188.175 201.99 188.799C202.925 189.387 204.131 189.255 205.606 188.403ZM216.685 166.311L221.548 163.503L221.549 156.159L223.981 154.755L223.98 162.099L229.966 158.643L229.966 161.235L223.98 164.691L223.979 176.283C223.979 177.003 224.26 177.201 224.821 176.877L229.217 174.339L229.217 176.931L223.948 179.973C223.241 180.381 222.659 180.453 222.202 180.189C221.765 179.913 221.547 179.367 221.547 178.551L221.548 166.095L216.685 168.903L216.685 166.311ZM239.859 147.604C239.859 146.908 240.067 146.2 240.483 145.48C240.919 144.724 241.439 144.172 242.042 143.824C242.644 143.476 243.154 143.434 243.569 143.698C244.006 143.926 244.224 144.388 244.224 145.084C244.224 145.78 244.006 146.506 243.569 147.262C243.153 147.982 242.644 148.516 242.041 148.864C241.439 149.212 240.919 149.272 240.482 149.044C240.067 148.78 239.859 148.3 239.859 147.604ZM235.43 170.752L240.855 167.62L240.856 154.948L235.993 157.756L235.993 155.164L243.288 150.952L243.287 166.216L248.338 163.3L248.337 165.892L235.43 173.344L235.43 170.752ZM267.49 146.122C267.49 147.61 267.272 149.056 266.835 150.46C266.419 151.828 265.858 153.112 265.151 154.312C264.445 155.488 263.613 156.556 262.657 157.516C261.722 158.464 260.745 159.232 259.726 159.82C258.687 160.42 257.7 160.786 256.765 160.918C255.829 161.05 255.009 160.936 254.302 160.576C253.595 160.192 253.024 159.562 252.587 158.686C252.172 157.774 251.964 156.574 251.964 155.086L251.964 154.654C251.964 153.19 252.172 151.774 252.588 150.406C253.025 149.002 253.596 147.7 254.303 146.5C255.03 145.288 255.862 144.208 256.797 143.26C257.733 142.312 258.709 141.544 259.728 140.956C260.746 140.368 261.723 140.008 262.658 139.876C263.594 139.744 264.415 139.87 265.121 140.254C265.849 140.626 266.42 141.268 266.836 142.18C267.272 143.056 267.49 144.226 267.49 145.69L267.49 146.122ZM259.727 157.156C260.475 156.724 261.161 156.184 261.784 155.536C262.429 154.852 262.99 154.084 263.468 153.232C263.946 152.38 264.32 151.48 264.591 150.532C264.861 149.56 264.996 148.57 264.996 147.562L264.996 147.13C264.996 146.17 264.861 145.372 264.591 144.736C264.321 144.076 263.947 143.596 263.469 143.296C262.991 142.996 262.43 142.876 261.785 142.936C261.141 142.972 260.455 143.2 259.728 143.62C259 144.04 258.314 144.604 257.67 145.312C257.026 145.996 256.464 146.764 255.986 147.616C255.508 148.468 255.134 149.38 254.864 150.352C254.594 151.3 254.458 152.254 254.458 153.214L254.458 153.646C254.458 154.654 254.593 155.488 254.863 156.148C255.134 156.784 255.508 157.252 255.986 157.552C256.464 157.852 257.014 157.978 257.638 157.93C258.282 157.846 258.978 157.588 259.727 157.156ZM273.173 151.553L270.741 152.957L270.743 135.101L273.175 133.697L273.174 136.721L273.549 136.505C274.505 133.601 276.168 131.465 278.537 130.097C280.325 129.065 281.748 128.891 282.808 129.575C283.868 130.235 284.398 131.849 284.398 134.417L284.397 145.073L281.965 146.477L281.966 136.397C281.966 134.525 281.602 133.331 280.875 132.815C280.148 132.299 279.16 132.401 277.913 133.121C276.438 133.973 275.274 135.233 274.421 136.901C273.59 138.533 273.174 140.321 273.174 142.265L273.173 151.553Z" fill="black"/>
<path d="M4.12499 361.268C4.12548 354.74 5.47687 348.896 8.17914 343.736C10.8814 338.576 14.6436 334.604 19.4656 331.82C24.2876 329.036 28.0495 328.664 30.7512 330.704C33.453 332.744 34.8036 337.028 34.8031 343.556L34.8022 354.788C34.8017 361.508 33.4503 367.4 30.7481 372.464C28.0458 377.528 24.2837 381.452 19.4616 384.236C14.6396 387.02 10.8777 387.44 8.17599 385.496C5.47425 383.552 4.12364 379.22 4.12414 372.5L4.12499 361.268ZM19.462 378.764C22.8292 376.82 25.3442 374.024 27.0072 370.376C28.7117 366.656 29.5642 362.324 29.5645 357.38L29.5653 347.012C29.5655 344.708 29.3578 342.74 28.9423 341.108C28.5267 339.428 27.8825 338.168 27.0097 337.328C26.1784 336.416 25.1184 335.948 23.8299 335.924C22.5828 335.876 21.1279 336.332 19.4652 337.292C17.7608 338.276 16.2851 339.512 15.038 341C13.7908 342.488 12.7307 344.18 11.8577 346.076C11.0262 347.9 10.4025 349.892 9.98669 352.052C9.57086 354.164 9.36286 356.372 9.36268 358.676L9.3619 369.044C9.36153 373.988 10.1926 377.348 11.8552 379.124C13.5593 380.828 16.0949 380.708 19.462 378.764ZM15.473 360.332C15.4731 359.084 15.8681 357.776 16.6579 356.408C17.4478 355.04 18.3832 354.044 19.464 353.42C20.5448 352.796 21.48 352.712 22.2698 353.168C23.0595 353.624 23.4544 354.476 23.4543 355.724C23.4542 356.972 23.0592 358.28 22.2693 359.648C21.4794 361.016 20.5441 362.012 19.4633 362.636C18.3825 363.26 17.4472 363.344 16.6574 362.888C15.8677 362.432 15.4729 361.58 15.473 360.332ZM53.2768 359.673C53.2769 358.281 53.6927 356.865 54.5241 355.425C55.3972 353.913 56.4364 352.809 57.6419 352.113C58.8474 351.417 59.8659 351.333 60.6972 351.861C61.57 352.317 62.0064 353.241 62.0063 354.633C62.0062 356.025 61.5697 357.477 60.6966 358.989C59.8652 360.429 58.8467 361.497 57.6412 362.193C56.4357 362.889 55.3965 363.009 54.5236 362.553C53.6923 362.025 53.2767 361.065 53.2768 359.673ZM104.99 298.138C104.99 295.018 104.159 293.002 102.496 292.09C100.833 291.13 98.5263 291.502 95.5749 293.206C94.1615 294.022 92.8521 295.066 91.6465 296.338C90.4825 297.586 89.464 299.014 88.591 300.622C87.7595 302.158 87.0943 303.814 86.5954 305.59C86.138 307.342 85.9092 309.106 85.9091 310.882L85.9085 318.37L86.6568 317.938C87.6546 315.25 89.0681 312.778 90.8972 310.522C92.7679 308.242 94.8464 306.442 97.1327 305.122C99.1281 303.97 100.978 303.286 102.682 303.07C104.386 302.806 105.841 303.046 107.047 303.79C108.294 304.51 109.25 305.71 109.915 307.39C110.621 308.998 110.974 311.098 110.974 313.69L110.974 314.554C110.974 317.05 110.579 319.558 109.789 322.078C109.04 324.574 107.98 326.962 106.608 329.242C105.278 331.498 103.677 333.574 101.807 335.47C99.9777 337.342 97.9823 338.902 95.8207 340.15C93.6591 341.398 91.6431 342.154 89.7725 342.418C87.9435 342.658 86.3432 342.454 84.9715 341.806C83.6414 341.086 82.5815 339.946 81.7919 338.386C81.0438 336.754 80.6698 334.714 80.67 332.266L80.6714 313.906C80.6716 311.266 81.0667 308.638 81.8567 306.022C82.6466 303.406 83.7276 300.958 85.0995 298.678C86.4714 296.35 88.0511 294.262 89.8386 292.414C91.6677 290.542 93.6215 289.006 95.7 287.806C97.7784 286.606 99.7114 285.85 101.499 285.538C103.286 285.226 104.824 285.394 106.113 286.042C107.401 286.642 108.399 287.722 109.105 289.282C109.853 290.77 110.227 292.714 110.227 295.114L104.99 298.138ZM95.8211 334.822C97.3176 333.958 98.6686 332.914 99.8742 331.69C101.121 330.394 102.181 328.99 103.054 327.478C103.927 325.966 104.593 324.382 105.05 322.726C105.507 321.07 105.736 319.402 105.736 317.722L105.736 316.858C105.736 315.178 105.487 313.786 104.988 312.682C104.49 311.578 103.804 310.774 102.931 310.27C102.058 309.766 100.998 309.61 99.7511 309.802C98.5457 309.922 97.2363 310.39 95.8229 311.206C94.4096 312.022 93.1001 313.066 91.8946 314.338C90.689 315.61 89.6289 317.014 88.7143 318.55C87.8413 320.062 87.1553 321.634 86.6564 323.266C86.1575 324.898 85.9079 326.482 85.9078 328.018L85.9077 329.386C85.9076 330.97 86.1361 332.326 86.5933 333.454C87.0504 334.534 87.7154 335.326 88.5883 335.83C89.4612 336.334 90.5004 336.526 91.7058 336.406C92.9529 336.214 94.3246 335.686 95.8211 334.822ZM133.256 267.131L143.42 261.263L143.417 296.543L150.151 292.655L150.151 298.271L143.416 302.159L143.416 311.663L138.178 314.687L138.179 305.183L117.976 316.847L117.977 308.495L133.256 267.131ZM122.466 307.775L122.466 308.639L138.179 299.567L138.182 266.879L137.433 267.311L122.466 307.775Z" fill="black"/>
<defs>
<linearGradient id="paint0_linear_197_32186" x1="0" y1="21.6" x2="324" y2="21.6" gradientUnits="userSpaceOnUse">
<stop stop-color="#F1695C"/>
<stop offset="0.5" stop-color="#F5BF6D"/>
<stop offset="1" stop-color="#90C232"/>
</linearGradient>
</defs>
</svg>
