<svg width="1024" height="591" viewBox="0 0 1024 591" fill="none" xmlns="http://www.w3.org/2000/svg">
<g opacity="0.8">
<rect width="55.0964" height="55.0964" rx="6.48" transform="matrix(0.866045 0.499967 0.866045 -0.499967 0.921875 295.502)" fill="#186000"/>
<rect width="55.0964" height="55.0964" rx="6.48" transform="matrix(0.866045 0.499967 0.866045 -0.499967 52.4531 325.251)" fill="#186000"/>
<rect width="55.0964" height="55.0964" rx="6.48" transform="matrix(0.866045 0.499967 0.866045 -0.499967 103.988 355.001)" fill="#186000"/>
<rect width="55.0964" height="55.0964" rx="6.48" transform="matrix(0.866045 0.499967 0.866045 -0.499967 155.523 384.751)" fill="#186000"/>
<rect width="55.0964" height="55.0964" rx="6.48" transform="matrix(0.866045 0.499967 0.866045 -0.499967 207.055 414.502)" fill="#186000"/>
<rect width="55.0964" height="55.0964" rx="6.48" transform="matrix(0.866045 0.499967 0.866045 -0.499967 258.59 444.252)" fill="#186000"/>
<rect width="55.0964" height="55.0964" rx="6.48" transform="matrix(0.866045 0.499967 0.866045 -0.499967 310.121 474.001)" fill="#186000"/>
<rect width="55.0964" height="55.0964" rx="6.48" transform="matrix(0.866045 0.499967 0.866045 -0.499967 361.652 503.751)" fill="#186000"/>
<rect width="55.0964" height="55.0964" rx="6.48" transform="matrix(0.866045 0.499967 0.866045 -0.499967 413.184 533.501)" fill="#186000"/>
<rect width="55.0964" height="55.0964" rx="6.48" transform="matrix(0.866045 0.499967 0.866045 -0.499967 464.723 563.252)" fill="#186000"/>
<rect width="55.0964" height="55.0964" rx="6.48" transform="matrix(0.866045 0.499967 0.866045 -0.499967 52.4531 265.751)" fill="#186000"/>
<rect width="55.0964" height="55.0964" rx="6.48" transform="matrix(0.866045 0.499967 0.866045 -0.499967 103.988 295.502)" fill="#186000"/>
<rect width="55.0964" height="55.0964" rx="6.48" transform="matrix(0.866045 0.499967 0.866045 -0.499967 155.523 325.251)" fill="#186000"/>
<rect width="55.0964" height="55.0964" rx="6.48" transform="matrix(0.866045 0.499967 0.866045 -0.499967 207.055 355.001)" fill="#186000"/>
<rect width="55.0964" height="55.0964" rx="6.48" transform="matrix(0.866045 0.499967 0.866045 -0.499967 258.59 384.751)" fill="#186000"/>
<rect width="55.0964" height="55.0964" rx="6.48" transform="matrix(0.866045 0.499967 0.866045 -0.499967 310.121 414.502)" fill="#186000"/>
<rect width="55.0964" height="55.0964" rx="6.48" transform="matrix(0.866045 0.499967 0.866045 -0.499967 361.652 444.252)" fill="#186000"/>
<rect width="55.0964" height="55.0964" rx="6.48" transform="matrix(0.866045 0.499967 0.866045 -0.499967 413.184 474.001)" fill="#186000"/>
<rect width="55.0964" height="55.0964" rx="6.48" transform="matrix(0.866045 0.499967 0.866045 -0.499967 464.723 503.751)" fill="#186000"/>
<rect width="55.0964" height="55.0964" rx="6.48" transform="matrix(0.866045 0.499967 0.866045 -0.499967 516.254 533.501)" fill="#186000"/>
<rect width="55.0964" height="55.0964" rx="6.48" transform="matrix(0.866045 0.499967 0.866045 -0.499967 103.988 236.001)" fill="#30B901"/>
<rect width="55.0964" height="55.0964" rx="6.48" transform="matrix(0.866045 0.499967 0.866045 -0.499967 155.523 265.751)" fill="#30B901"/>
<rect width="55.0964" height="55.0964" rx="6.48" transform="matrix(0.866045 0.499967 0.866045 -0.499967 207.055 295.502)" fill="#30B901"/>
<rect width="55.0964" height="55.0964" rx="6.48" transform="matrix(0.866045 0.499967 0.866045 -0.499967 258.59 325.251)" fill="#284981"/>
<rect width="55.0964" height="55.0964" rx="6.48" transform="matrix(0.866045 0.499967 0.866045 -0.499967 310.121 355.001)" fill="#284981"/>
<rect width="55.0964" height="55.0964" rx="6.48" transform="matrix(0.866045 0.499967 0.866045 -0.499967 361.652 384.751)" fill="#284981"/>
<rect width="55.0964" height="55.0964" rx="6.48" transform="matrix(0.866045 0.499967 0.866045 -0.499967 413.184 414.502)" fill="#284981"/>
<rect width="55.0964" height="55.0964" rx="6.48" transform="matrix(0.866045 0.499967 0.866045 -0.499967 464.723 444.252)" fill="#284981"/>
<rect width="55.0964" height="55.0964" rx="6.48" transform="matrix(0.866045 0.499967 0.866045 -0.499967 516.254 474.001)" fill="#284981"/>
<rect width="55.0964" height="55.0964" rx="6.48" transform="matrix(0.866045 0.499967 0.866045 -0.499967 567.785 503.751)" fill="#B0B0B1"/>
<rect width="55.0964" height="55.0964" rx="6.48" transform="matrix(0.866045 0.499967 0.866045 -0.499967 155.523 206.25)" fill="#B0B0B1"/>
<rect width="55.0964" height="55.0964" rx="6.48" transform="matrix(0.866045 0.499967 0.866045 -0.499967 207.055 236.001)" fill="#B0B0B1"/>
<rect width="55.0964" height="55.0964" rx="6.48" transform="matrix(0.866045 0.499967 0.866045 -0.499967 258.59 265.751)" fill="#B0B0B1"/>
<rect width="55.0964" height="55.0964" rx="6.48" transform="matrix(0.866045 0.499967 0.866045 -0.499967 310.121 295.502)" fill="#B0B0B1"/>
<rect width="55.0964" height="55.0964" rx="6.48" transform="matrix(0.866045 0.499967 0.866045 -0.499967 361.652 325.251)" fill="#B0B0B1"/>
<rect width="55.0964" height="55.0964" rx="6.48" transform="matrix(0.866045 0.499967 0.866045 -0.499967 413.184 355.001)" fill="#B0B0B1"/>
<rect width="55.0964" height="55.0964" rx="6.48" transform="matrix(0.866045 0.499967 0.866045 -0.499967 464.723 384.751)" fill="#B0B0B1"/>
<rect width="55.0964" height="55.0964" rx="6.48" transform="matrix(0.866045 0.499967 0.866045 -0.499967 516.254 414.502)" fill="#B0B0B1"/>
<rect width="55.0964" height="55.0964" rx="6.48" transform="matrix(0.866045 0.499967 0.866045 -0.499967 567.785 444.252)" fill="#B0B0B1"/>
<rect width="55.0964" height="55.0964" rx="6.48" transform="matrix(0.866045 0.499967 0.866045 -0.499967 619.32 474.001)" fill="#B0B0B1"/>
<rect width="55.0964" height="55.0964" rx="6.48" transform="matrix(0.866045 0.499967 0.866045 -0.499967 207.055 176.5)" fill="#B0B0B1"/>
<rect width="55.0964" height="55.0964" rx="6.48" transform="matrix(0.866045 0.499967 0.866045 -0.499967 258.59 206.25)" fill="#B0B0B1"/>
<rect width="55.0964" height="55.0964" rx="6.48" transform="matrix(0.866045 0.499967 0.866045 -0.499967 310.121 236.001)" fill="#B0B0B1"/>
<rect width="55.0964" height="55.0964" rx="6.48" transform="matrix(0.866045 0.499967 0.866045 -0.499967 361.652 265.751)" fill="#B0B0B1"/>
<rect width="55.0964" height="55.0964" rx="6.48" transform="matrix(0.866045 0.499967 0.866045 -0.499967 413.184 295.502)" fill="#B0B0B1"/>
<rect width="55.0964" height="55.0964" rx="6.48" transform="matrix(0.866045 0.499967 0.866045 -0.499967 464.723 325.251)" fill="#B0B0B1"/>
<rect width="55.0964" height="55.0964" rx="6.48" transform="matrix(0.866045 0.499967 0.866045 -0.499967 516.254 355.001)" fill="#B0B0B1"/>
<rect width="55.0964" height="55.0964" rx="6.48" transform="matrix(0.866045 0.499967 0.866045 -0.499967 567.785 384.751)" fill="#B0B0B1"/>
<rect width="55.0964" height="55.0964" rx="6.48" transform="matrix(0.866045 0.499967 0.866045 -0.499967 619.32 414.502)" fill="#B0B0B1"/>
<rect width="55.0964" height="55.0964" rx="6.48" transform="matrix(0.866045 0.499967 0.866045 -0.499967 670.852 444.252)" fill="#B0B0B1"/>
<rect width="55.0964" height="55.0964" rx="6.48" transform="matrix(0.866045 0.499967 0.866045 -0.499967 258.59 146.751)" fill="#B0B0B1"/>
<rect width="55.0964" height="55.0964" rx="6.48" transform="matrix(0.866045 0.499967 0.866045 -0.499967 310.121 176.5)" fill="#B0B0B1"/>
<rect width="55.0964" height="55.0964" rx="6.48" transform="matrix(0.866045 0.499967 0.866045 -0.499967 361.652 206.25)" fill="#B0B0B1"/>
<rect width="55.0964" height="55.0964" rx="6.48" transform="matrix(0.866045 0.499967 0.866045 -0.499967 413.184 236.001)" fill="#B0B0B1"/>
<rect width="55.0964" height="55.0964" rx="6.48" transform="matrix(0.866045 0.499967 0.866045 -0.499967 464.723 265.751)" fill="#B0B0B1"/>
<rect width="55.0964" height="55.0964" rx="6.48" transform="matrix(0.866045 0.499967 0.866045 -0.499967 516.254 295.502)" fill="#B0B0B1"/>
<rect width="55.0964" height="55.0964" rx="6.48" transform="matrix(0.866045 0.499967 0.866045 -0.499967 567.785 325.251)" fill="#B0B0B1"/>
<rect width="55.0964" height="55.0964" rx="6.48" transform="matrix(0.866045 0.499967 0.866045 -0.499967 619.32 355.001)" fill="#B0B0B1"/>
<rect width="55.0964" height="55.0964" rx="6.48" transform="matrix(0.866045 0.499967 0.866045 -0.499967 670.852 384.751)" fill="#B0B0B1"/>
<rect width="55.0964" height="55.0964" rx="6.48" transform="matrix(0.866045 0.499967 0.866045 -0.499967 722.387 414.502)" fill="#B0B0B1"/>
<rect width="55.0964" height="55.0964" rx="6.48" transform="matrix(0.866045 0.499967 0.866045 -0.499967 310.121 117)" fill="#B0B0B1"/>
<rect width="55.0964" height="55.0964" rx="6.48" transform="matrix(0.866045 0.499967 0.866045 -0.499967 361.652 146.751)" fill="#B0B0B1"/>
<rect width="55.0964" height="55.0964" rx="6.48" transform="matrix(0.866045 0.499967 0.866045 -0.499967 413.184 176.5)" fill="#B0B0B1"/>
<rect width="55.0964" height="55.0964" rx="6.48" transform="matrix(0.866045 0.499967 0.866045 -0.499967 464.723 206.25)" fill="#B0B0B1"/>
<rect width="55.0964" height="55.0964" rx="6.48" transform="matrix(0.866045 0.499967 0.866045 -0.499967 516.254 236.001)" fill="#B0B0B1"/>
<rect width="55.0964" height="55.0964" rx="6.48" transform="matrix(0.866045 0.499967 0.866045 -0.499967 567.785 265.751)" fill="#B0B0B1"/>
<rect width="55.0964" height="55.0964" rx="6.48" transform="matrix(0.866045 0.499967 0.866045 -0.499967 619.32 295.502)" fill="#B0B0B1"/>
<rect width="55.0964" height="55.0964" rx="6.48" transform="matrix(0.866045 0.499967 0.866045 -0.499967 670.852 325.251)" fill="#B0B0B1"/>
<rect width="55.0964" height="55.0964" rx="6.48" transform="matrix(0.866045 0.499967 0.866045 -0.499967 722.387 355.001)" fill="#B0B0B1"/>
<rect width="55.0964" height="55.0964" rx="6.48" transform="matrix(0.866045 0.499967 0.866045 -0.499967 773.922 384.751)" fill="#B0B0B1"/>
<rect width="55.0964" height="55.0964" rx="6.48" transform="matrix(0.866045 0.499967 0.866045 -0.499967 361.652 87.25)" fill="#B0B0B1"/>
<rect width="55.0964" height="55.0964" rx="6.48" transform="matrix(0.866045 0.499967 0.866045 -0.499967 413.184 117)" fill="#B0B0B1"/>
<rect width="55.0964" height="55.0964" rx="6.48" transform="matrix(0.866045 0.499967 0.866045 -0.499967 464.723 146.751)" fill="#B0B0B1"/>
<rect width="55.0964" height="55.0964" rx="6.48" transform="matrix(0.866045 0.499967 0.866045 -0.499967 516.254 176.5)" fill="#B0B0B1"/>
<rect width="55.0964" height="55.0964" rx="6.48" transform="matrix(0.866045 0.499967 0.866045 -0.499967 567.785 206.25)" fill="#B0B0B1"/>
<rect width="55.0964" height="55.0964" rx="6.48" transform="matrix(0.866045 0.499967 0.866045 -0.499967 619.32 236.001)" fill="#B0B0B1"/>
<rect width="55.0964" height="55.0964" rx="6.48" transform="matrix(0.866045 0.499967 0.866045 -0.499967 670.852 265.751)" fill="#B0B0B1"/>
<rect width="55.0964" height="55.0964" rx="6.48" transform="matrix(0.866045 0.499967 0.866045 -0.499967 722.387 295.502)" fill="#B0B0B1"/>
<rect width="55.0964" height="55.0964" rx="6.48" transform="matrix(0.866045 0.499967 0.866045 -0.499967 773.922 325.251)" fill="#B0B0B1"/>
<rect width="55.0964" height="55.0964" rx="6.48" transform="matrix(0.866045 0.499967 0.866045 -0.499967 825.457 355.001)" fill="#B0B0B1"/>
<rect width="55.0964" height="55.0964" rx="6.48" transform="matrix(0.866045 0.499967 0.866045 -0.499967 413.184 57.5)" fill="#B0B0B1"/>
<rect width="55.0964" height="55.0964" rx="6.48" transform="matrix(0.866045 0.499967 0.866045 -0.499967 464.723 87.25)" fill="#B0B0B1"/>
<rect width="55.0964" height="55.0964" rx="6.48" transform="matrix(0.866045 0.499967 0.866045 -0.499967 516.254 117)" fill="#B0B0B1"/>
<rect width="55.0964" height="55.0964" rx="6.48" transform="matrix(0.866045 0.499967 0.866045 -0.499967 567.785 146.751)" fill="#B0B0B1"/>
<rect width="55.0964" height="55.0964" rx="6.48" transform="matrix(0.866045 0.499967 0.866045 -0.499967 619.32 176.5)" fill="#B0B0B1"/>
<rect width="55.0964" height="55.0964" rx="6.48" transform="matrix(0.866045 0.499967 0.866045 -0.499967 670.852 206.25)" fill="#B0B0B1"/>
<rect width="55.0964" height="55.0964" rx="6.48" transform="matrix(0.866045 0.499967 0.866045 -0.499967 722.387 236.001)" fill="#B0B0B1"/>
<rect width="55.0964" height="55.0964" rx="6.48" transform="matrix(0.866045 0.499967 0.866045 -0.499967 773.922 265.751)" fill="#B0B0B1"/>
<rect width="55.0964" height="55.0964" rx="6.48" transform="matrix(0.866045 0.499967 0.866045 -0.499967 825.457 295.502)" fill="#B0B0B1"/>
<rect width="55.0964" height="55.0964" rx="6.48" transform="matrix(0.866045 0.499967 0.866045 -0.499967 876.988 325.251)" fill="#B0B0B1"/>
<rect width="55.0964" height="55.0964" rx="6.48" transform="matrix(0.866045 0.499967 0.866045 -0.499967 464.723 27.75)" fill="#B0B0B1"/>
<rect width="55.0964" height="55.0964" rx="6.48" transform="matrix(0.866045 0.499967 0.866045 -0.499967 516.254 57.5)" fill="#B0B0B1"/>
<rect width="55.0964" height="55.0964" rx="6.48" transform="matrix(0.866045 0.499967 0.866045 -0.499967 567.785 87.25)" fill="#B0B0B1"/>
<rect width="55.0964" height="55.0964" rx="6.48" transform="matrix(0.866045 0.499967 0.866045 -0.499967 619.32 117)" fill="#B0B0B1"/>
<rect width="55.0964" height="55.0964" rx="6.48" transform="matrix(0.866045 0.499967 0.866045 -0.499967 670.852 146.751)" fill="#B0B0B1"/>
<rect width="55.0964" height="55.0964" rx="6.48" transform="matrix(0.866045 0.499967 0.866045 -0.499967 722.387 176.5)" fill="#B0B0B1"/>
<rect width="55.0964" height="55.0964" rx="6.48" transform="matrix(0.866045 0.499967 0.866045 -0.499967 773.922 206.25)" fill="#B0B0B1"/>
<rect width="55.0964" height="55.0964" rx="6.48" transform="matrix(0.866045 0.499967 0.866045 -0.499967 825.457 236.001)" fill="#B0B0B1"/>
<rect width="55.0964" height="55.0964" rx="6.48" transform="matrix(0.866045 0.499967 0.866045 -0.499967 876.988 265.751)" fill="#B0B0B1"/>
<rect width="55.0964" height="55.0964" rx="6.48" transform="matrix(0.866045 0.499967 0.866045 -0.499967 928.52 295.502)" fill="#B0B0B1"/>
</g>
</svg>
