<svg width="1920" height="1080" xmlns="http://www.w3.org/2000/svg">
  <defs>
    <pattern id="tile" width="100" height="100" patternUnits="userSpaceOnUse">
      <!-- 基本の正方形タイル -->
      <rect width="100" height="100" fill="none" stroke="gray" stroke-width="0.5"/>
    </pattern>
    <filter id="blur" x="-50%" y="-50%" width="200%" height="200%">
      <feGaussianBlur stdDeviation="5"/>
    </filter>
    <filter id="inkDrop">
      <feTurbulence type="fractalNoise" baseFrequency="0.05" numOctaves="3" stitchTiles="stitch"/>
      <feDisplacementMap in="SourceGraphic" xChannelSelector="R" yChannelSelector="G" scale="5"/>
    </filter>
  </defs>

  <!-- 背景（ソフトグラデーション） -->
  <linearGradient id="bgGradient" x1="0%" y1="0%" x2="100%" y2="100%">
    <stop offset="0%"   style="stop-color:#A0D995;stop-opacity:1" />
    <stop offset="100%" style="stop-color:#61A576;stop-opacity:1" />
  </linearGradient>
  <rect width="1920" height="1080" fill="url(#bgGradient)"/>

  <!-- 周囲のタイル（パステルグリーン、ぼかし） -->
  <g filter="url(#blur)" opacity="0.7">
    <rect x="0" y="0" width="1920" height="1080" fill="#BCE29E" />
    <rect x="0" y="0" width="1920" height="1080" fill="url(#tile)"/>
  </g>

  <!-- 中心のタイル（33個、緑グラデーション、インクドロップ風） -->
  <g>
    <!-- 中心タイル -->
    <rect x="860" y="490" width="100" height="100" fill="#386641" filter="url(#inkDrop)"/>

    <!-- 周囲のタイル（六角形配置） -->
    <rect x="760" y="490" width="100" height="100" fill="#6A994E" filter="url(#inkDrop)"/>
    <rect x="960" y="490" width="100" height="100" fill="#6A994E" filter="url(#inkDrop)"/>
    <rect x="810" y="393.2" width="100" height="100" fill="#A7D1AB" filter="url(#inkDrop)"/>
    <rect x="810" y="586.8" width="100" height="100" fill="#A7D1AB" filter="url(#inkDrop)"/>
    <rect x="910" y="393.2" width="100" height="100" fill="#A7D1AB" filter="url(#inkDrop)"/>
    <rect x="910" y="586.8" width="100" height="100" fill="#A7D1AB" filter="url(#inkDrop)"/>

    <!-- さらに周囲のタイル -->
    <rect x="660" y="490" width="100" height="100" fill="#386641" filter="url(#inkDrop)"/>
    <rect x="1060" y="490" width="100" height="100" fill="#386641" filter="url(#inkDrop)"/>
    <rect x="710" y="393.2" width="100" height="100" fill="#6A994E" filter="url(#inkDrop)"/>
    <rect x="710" y="586.8" width="100" height="100" fill="#6A994E" filter="url(#inkDrop)"/>
    <rect x="1010" y="393.2" width="100" height="100" fill="#6A994E" filter="url(#inkDrop)"/>
    <rect x="1010" y="586.8" width="100" height="100" fill="#6A994E" filter="url(#inkDrop)"/>
    <rect x="760" y="296.4" width="100" height="100" fill="#A7D1AB" filter="url(#inkDrop)"/>
    <rect x="760" y="683.6" width="100" height="100" fill="#A7D1AB" filter="url(#inkDrop)"/>
    <rect x="960" y="296.4" width="100" height="100" fill="#A7D1AB" filter="url(#inkDrop)"/>
    <rect x="960" y="683.6" width="100" height="100" fill="#A7D1AB" filter="url(#inkDrop)"/>

    <!-- さらにさらに周囲のタイル（残り）-->
     <rect x="610" y="393.2" width="100" height="100" fill="#386641" filter="url(#inkDrop)"/>
    <rect x="610" y="586.8" width="100" height="100" fill="#386641" filter="url(#inkDrop)"/>
    <rect x="1110" y="393.2" width="100" height="100" fill="#386641" filter="url(#inkDrop)"/>
    <rect x="1110" y="586.8" width="100" height="100" fill="#386641" filter="url(#inkDrop)"/>
    <rect x="660" y="296.4" width="100" height="100" fill="#6A994E" filter="url(#inkDrop)"/>
    <rect x="660" y="683.6" width="100" height="100" fill="#6A994E" filter="url(#inkDrop)"/>
        <rect x="1060" y="296.4" width="100" height="100" fill="#6A994E" filter="url(#inkDrop)"/>
    <rect x="1060" y="683.6" width="100" height="100" fill="#6A994E" filter="url(#inkDrop)"/>
        <rect x="710" y="199.6" width="100" height="100" fill="#A7D1AB" filter="url(#inkDrop)"/>
    <rect x="710" y="780.4" width="100" height="100" fill="#A7D1AB" filter="url(#inkDrop)"/>
        <rect x="1010" y="199.6" width="100" height="100" fill="#A7D1AB" filter="url(#inkDrop)"/>
    <rect x="1010" y="780.4" width="100" height="100" fill="#A7D1AB" filter="url(#inkDrop)"/>
        <rect x="810" y="102.8" width="100" height="100" fill="#386641" filter="url(#inkDrop)"/>
    <rect x="810" y="877.2" width="100" height="100" fill="#386641" filter="url(#inkDrop)"/>
           <rect x="910" y="102.8" width="100" height="100" fill="#386641" filter="url(#inkDrop)"/>
    <rect x="910" y="877.2" width="100" height="100" fill="#386641" filter="url(#inkDrop)"/>

  </g>
</svg>