<svg width="76" height="76" viewBox="0 0 76 76" fill="none" xmlns="http://www.w3.org/2000/svg">
<rect width="76" height="76" fill="#263A60"/>
<g clip-path="url(#clip0_210_32409)">
<path d="M37.7728 44.4738C41.3588 44.4738 42.4998 44.4738 44.2768 43.9928C44.8888 43.7808 45.9928 43.4788 46.7898 42.2408C48.2598 39.7648 48.2598 35.1128 48.2598 32.8778C48.2598 30.6438 48.2598 26.6848 46.7898 24.2378C45.9928 22.9708 44.9048 22.6208 44.2768 22.4578C42.4628 21.9828 41.2968 22.0108 37.7728 22.0038H37.7768C34.2528 22.0108 33.0878 21.9828 31.2748 22.4568C30.6468 22.6208 29.5588 22.9708 28.7618 24.2388C27.2918 26.6848 27.2918 30.6418 27.2918 32.8788C27.2918 35.1148 27.2918 39.7648 28.7618 42.2408C29.5588 43.4788 30.6618 43.7808 31.2748 43.9928C33.0488 44.4758 34.1948 44.4738 37.7768 44.4738H37.7728ZM37.7798 12.7578C39.3428 12.7578 40.3598 13.0288 40.7878 13.1188C40.5738 15.0828 40.6358 16.6558 40.7878 17.1078C41.3078 18.6188 44.2698 19.3208 45.4658 18.6258C46.7828 17.8408 46.4808 15.4598 46.4808 13.8898C46.4808 13.8898 48.4238 14.3418 49.6118 14.7808C50.5788 15.1388 52.0038 15.8358 52.0038 15.8358C52.2858 17.8238 52.0178 20.7618 50.0268 21.7588C51.5278 23.2388 52.0308 24.9898 52.6768 28.2218C53.1948 31.1218 53.0748 33.1448 53.0408 34.8348C52.8898 37.1308 52.8898 38.3688 52.3378 40.4548C51.5418 42.8388 51.0708 43.9588 49.4578 45.6168C46.1828 48.9868 40.8488 48.7888 37.7778 48.7868C34.7078 48.7888 29.3738 48.9868 26.0998 45.6168C24.4858 43.9588 24.0168 42.8388 23.2198 40.4538C22.6698 38.3688 22.6698 37.1308 22.5158 34.8338C22.4838 33.1438 22.3618 31.1218 22.8828 28.2218C23.5248 24.9888 24.0288 23.2388 25.5298 21.7588C23.5388 20.7618 23.2698 17.8238 23.5528 15.8358C23.5528 15.8358 24.9798 15.1368 25.9448 14.7808C27.1328 14.3408 29.0748 13.8908 29.0748 13.8908C29.0748 15.4608 28.7738 17.8408 30.0918 18.6258C31.2868 19.3208 34.2468 18.6168 34.7678 17.1078C34.9208 16.6538 34.9828 15.0808 34.7678 13.1188C35.1978 13.0288 36.2138 12.7578 37.7778 12.7578" fill="white"/>
<path d="M37.7782 34.4622C40.8422 34.4622 40.7752 34.4642 40.7752 35.4302V41.5182H44.9412V24.6602H40.7752V29.7202C40.7752 30.7172 40.8402 30.7142 37.7782 30.7142H37.7802C34.7172 30.7142 34.7832 30.7172 34.7832 29.7212V24.6612H30.6182V41.5182H34.7832V35.4302C34.7832 34.4642 34.7172 34.4622 37.7802 34.4622H37.7782ZM70.4542 53.1882H70.6302C70.8052 53.1882 70.9712 53.1722 70.9712 52.9942C70.9712 52.8162 70.8332 52.8142 70.6512 52.8142H70.4522V53.1902L70.4542 53.1882ZM71.1272 52.9832C71.1277 53.032 71.1155 53.0802 71.0919 53.1229C71.0682 53.1657 71.0339 53.2016 70.9922 53.2272C70.9366 53.2581 70.8748 53.2762 70.8112 53.2802C70.9572 53.3332 70.9942 53.3672 71.1672 53.7532H71.0072C70.8272 53.3652 70.7802 53.2982 70.5162 53.2982H70.4542V53.7532H70.3202V52.7042H70.7652C71.1272 52.7042 71.1272 52.9542 71.1272 52.9822M70.7312 52.3422C70.6151 52.3407 70.4999 52.3622 70.3921 52.4055C70.2843 52.4487 70.1862 52.5128 70.1033 52.5942C70.0204 52.6755 69.9544 52.7724 69.909 52.8793C69.8637 52.9862 69.84 53.101 69.8392 53.2172C69.8392 53.7002 70.2372 54.0912 70.7312 54.0912C71.2262 54.0912 71.6232 53.7012 71.6232 53.2172C71.6232 52.7332 71.2232 52.3422 70.7312 52.3422ZM70.7312 54.2142C70.599 54.2155 70.4678 54.1907 70.3451 54.1413C70.2224 54.092 70.1107 54.0189 70.0162 53.9263C69.9218 53.8337 69.8465 53.7234 69.7947 53.6018C69.7429 53.4801 69.7155 53.3494 69.7142 53.2172C69.7142 52.6642 70.1702 52.2192 70.7312 52.2192C71.2932 52.2192 71.7482 52.6662 71.7482 53.2172C71.7482 53.7672 71.2932 54.2142 70.7312 54.2142ZM21.5992 54.1482H19.7692V58.5052C19.7692 59.7382 19.2692 60.3622 18.2372 60.3622C17.8372 60.3622 17.5422 60.2052 17.3322 60.0012C17.0692 59.7412 16.9412 59.3092 16.9412 58.6802V54.1482H15.1222V58.8302C15.1222 59.8602 15.3602 60.5972 15.8542 61.0822C16.3252 61.5462 16.8982 61.7722 17.8492 61.7722C18.5142 61.7722 19.3272 61.3272 19.7932 60.7422V61.5762H21.5992V54.1462V54.1482ZM50.0732 56.1682C50.0732 55.6122 49.8862 55.1452 49.5162 54.7802C48.9922 54.2632 48.2462 53.9632 47.1642 53.9672C46.0832 53.9722 44.2592 54.1912 44.0472 56.2142H45.8772C45.8522 55.2702 47.0692 55.3542 47.0692 55.3542C47.4592 55.3542 47.8132 55.4742 48.0732 55.6782C48.2312 55.8012 48.3362 55.9942 48.3502 56.3082C48.3702 56.8102 48.1242 57.0522 46.4132 57.2182C45.0902 57.3432 43.5172 57.6962 43.5172 59.5682C43.5172 60.1632 43.7232 60.6842 44.1132 61.0682C44.5872 61.5342 45.3002 61.7912 46.1232 61.7912C47.2152 61.7912 47.8452 61.5232 48.4062 60.9042L48.4942 61.5942H50.2512V61.3172C50.0242 61.1412 50.0752 60.4032 50.0752 60.4032V56.1682H50.0732ZM45.3322 59.5112C45.2842 58.9512 45.6142 58.5512 46.4762 58.4052C46.7022 58.3612 46.9352 58.3392 47.1592 58.3062C47.5012 58.2552 47.9092 58.1612 48.2562 57.9302V59.0682C48.2562 59.9882 47.3262 60.3352 46.6482 60.3242C45.9682 60.3152 45.3812 60.0682 45.3322 59.5112ZM36.4822 63.6052V54.1722L34.7462 54.1662V55.0962C34.2792 54.4612 33.6262 53.9692 32.6612 53.9692C30.4872 53.9692 29.2242 55.4822 29.2242 57.9222C29.2242 59.1632 29.6222 60.2722 30.3192 60.9572C30.8822 61.5132 31.5202 61.7932 32.3912 61.7932C33.3792 61.7932 34.1032 61.3452 34.6532 60.6802V63.6122L36.4822 63.6072V63.6052ZM32.8852 60.3242C32.3722 60.3242 32.0392 60.1642 31.7162 59.8462C31.2802 59.4172 31.0422 58.7172 31.0422 57.8762C31.0422 57.0342 31.3032 56.3532 31.7602 55.9042C32.0882 55.5792 32.4102 55.4152 32.8852 55.4152C33.9512 55.4152 34.5142 56.0892 34.6782 57.3102C34.7012 57.4932 34.7112 58.1702 34.7012 58.2972C34.5812 59.6072 34.0112 60.3262 32.8852 60.3262M5.95022 61.5832H7.93322V57.1752H12.0892V61.5832H14.0742V51.6702H12.0892V55.4642H7.93322V51.6702H5.94922L5.95022 61.5832ZM25.6592 60.3582C24.8792 60.3782 24.2692 60.0462 24.1552 59.3782H22.3142C22.4002 61.2562 24.3142 61.8182 25.6372 61.7922C26.9592 61.7642 27.5572 61.4572 28.1522 60.8732C28.5662 60.4632 28.7762 59.9492 28.7762 59.3352C28.7762 57.8872 27.6602 57.4102 26.3902 57.1152L25.9912 57.0252C25.0052 56.8342 24.1942 56.6402 24.2412 56.0772C24.2892 55.5142 24.9062 55.3932 25.3912 55.3792C25.8752 55.3642 26.2812 55.4402 26.5702 56.0142H28.4682C28.2782 54.5722 26.9352 53.9502 25.5102 53.9692C24.1072 53.9892 22.4422 54.5372 22.4422 56.1372C22.4422 57.6432 23.5002 58.1002 24.7722 58.3702C24.9432 58.4092 25.1162 58.4442 25.2842 58.4802C26.2332 58.6772 26.9472 58.8642 26.9612 59.4812C26.9772 60.0992 26.4482 60.3412 25.6652 60.3602M43.9982 54.1472H42.1052L40.4842 59.8622L38.8072 54.1472H36.8312L39.4472 61.5762H41.4052L43.9982 54.1472ZM54.4112 53.9102C53.8192 53.9982 53.1112 54.6602 52.8082 55.4522V54.1542H51.0832V61.5812H52.9132V58.0362C52.9132 57.2302 52.9652 56.6192 53.3432 56.1412C53.6282 55.7812 54.1312 55.4212 54.6322 55.4362C55.1322 55.4482 55.4242 55.5502 55.4242 55.5502V53.9452C55.4242 53.9452 54.9412 53.8322 54.4112 53.9102ZM62.5772 56.5162C62.5772 55.7382 62.3492 55.1172 61.9002 54.6742C61.4302 54.2122 60.7652 53.9692 59.9102 53.9692C59.0552 53.9692 58.3442 54.4342 57.8002 55.2782V54.1642H56.0772V61.5942H57.8962V57.2122C57.8962 56.6782 58.0102 56.1822 58.3512 55.8492C58.6522 55.5532 59.0832 55.3872 59.6052 55.3962C60.4452 55.4122 60.7272 55.8882 60.7602 56.9502V61.5962H62.5772V56.5162ZM69.7182 56.1702C69.7182 55.6142 69.5282 55.1472 69.1582 54.7822C68.6342 54.2652 67.7632 53.9642 66.6852 53.9692C65.6052 53.9742 63.7802 54.1932 63.5692 56.2142H65.3982C65.3732 55.2712 66.5922 55.3552 66.5922 55.3552C66.9802 55.3552 67.4602 55.4752 67.7172 55.6802C67.8772 55.8052 67.9822 55.9962 67.9962 56.3102C68.0172 56.8122 67.7702 57.0542 66.0572 57.2182C64.7352 57.3452 63.1612 57.6982 63.1612 59.5692C63.1612 60.1642 63.3672 60.6862 63.7572 61.0692C64.2322 61.5362 64.9442 61.7922 65.7702 61.7922C66.8582 61.7922 67.4902 61.5222 68.0502 60.9042L68.1392 61.5942H69.8962V61.3152C69.6682 61.1392 69.7192 60.4022 69.7192 60.4022V56.1672L69.7182 56.1702ZM64.9742 59.5112C64.9272 58.9512 65.2572 58.5512 66.1192 58.4052C66.3452 58.3612 66.5792 58.3402 66.8022 58.3062C67.1442 58.2562 67.5522 58.1622 67.8972 57.9322V59.0702C67.8972 59.9902 66.9672 60.3352 66.2902 60.3262C65.6112 60.3162 65.0242 60.0702 64.9742 59.5112Z" fill="white"/>
</g>
<defs>
<clipPath id="clip0_210_32409">
<rect width="67" height="52" fill="white" transform="translate(5 12)"/>
</clipPath>
</defs>
</svg>
