<svg width="303" height="481" viewBox="0 0 303 481" fill="none" xmlns="http://www.w3.org/2000/svg">
<path d="M5.66548 196.642L5.6647 207.01L3.04583 208.522L3.04774 183.322L10.842 178.822C11.9643 178.174 12.9412 177.802 13.7726 177.706C14.6039 177.586 15.2898 177.682 15.8301 177.994C16.3913 178.294 16.8069 178.786 17.077 179.47C17.368 180.118 17.5134 180.898 17.5133 181.81L17.5132 182.89C17.5132 183.802 17.3676 184.762 17.0766 185.77C16.8063 186.766 16.3905 187.75 15.8293 188.722C15.2681 189.67 14.5718 190.576 13.7403 191.44C12.9089 192.28 11.9424 193.018 10.8408 193.654L5.66548 196.642ZM5.66569 193.834L10.5293 191.026C13.4391 189.346 14.8942 187.066 14.8944 184.186L14.8944 183.538C14.8945 182.266 14.5309 181.456 13.8035 181.108C13.0969 180.724 12.0057 180.958 10.53 181.81L5.66639 184.618L5.66569 193.834ZM22.7286 189.094C22.7908 190.834 23.2687 191.986 24.1624 192.55C25.056 193.114 26.3031 192.934 27.9035 192.01C28.631 191.59 29.2649 191.128 29.8053 190.624C30.3457 190.12 30.803 189.592 31.1772 189.04C31.5721 188.476 31.8839 187.912 32.1126 187.348C32.362 186.748 32.5595 186.154 32.705 185.566L35.0121 184.954C34.5755 186.862 33.7648 188.686 32.58 190.426C31.4159 192.13 29.8363 193.558 27.8409 194.71C26.7394 195.346 25.7209 195.718 24.7857 195.826C23.8712 195.898 23.0814 195.718 22.4164 195.286C21.7513 194.854 21.2318 194.182 20.8577 193.27C20.4837 192.358 20.2967 191.218 20.2968 189.85L20.2969 188.986C20.297 187.738 20.4841 186.466 20.8583 185.17C21.2533 183.862 21.7938 182.626 22.4797 181.462C23.1657 180.274 23.966 179.2 24.8805 178.24C25.8159 177.244 26.8239 176.434 27.9047 175.81C29.1726 175.078 30.2638 174.724 31.1782 174.748C32.1135 174.736 32.8721 174.958 33.454 175.414C34.0567 175.858 34.4931 176.47 34.7632 177.25C35.0542 178.018 35.1996 178.798 35.1995 179.59L35.1993 181.894L22.7286 189.094ZM27.9045 178.474C27.2186 178.87 26.5743 179.374 25.9715 179.986C25.3895 180.562 24.8699 181.21 24.4126 181.93C23.9761 182.638 23.6123 183.388 23.3213 184.18C23.051 184.936 22.8743 185.698 22.7911 186.466L32.7677 180.706C32.7262 179.962 32.56 179.362 32.2691 178.906C31.9989 178.438 31.6352 178.12 31.178 177.952C30.7416 177.772 30.2324 177.73 29.6504 177.826C29.0892 177.91 28.5073 178.126 27.9045 178.474ZM37.922 170.531L43.5338 167.291L43.5336 169.667L43.9078 169.451C44.3027 168.239 44.864 167.195 45.5915 166.319C46.319 165.419 47.1504 164.699 48.0857 164.159C49.6445 163.259 50.902 163.121 51.858 163.745C52.814 164.369 53.3231 165.791 53.3852 168.011L50.8287 169.919C50.8288 168.263 50.486 167.273 49.8001 166.949C49.1143 166.601 48.2725 166.715 47.2749 167.291C46.6306 167.663 46.0694 168.131 45.5913 168.695C45.134 169.247 44.7495 169.865 44.4377 170.549C44.1259 171.233 43.8972 171.953 43.7516 172.709C43.6061 173.465 43.5333 174.227 43.5332 174.995L43.5327 182.555L47.461 180.287L47.4608 182.879L37.5465 188.603L37.5467 186.011L41.1009 183.959L41.1018 171.287L37.9218 173.123L37.922 170.531ZM71.1028 162.893C70.9365 163.973 70.6454 165.053 70.2297 166.133C69.8347 167.201 69.3254 168.227 68.7019 169.211C68.0783 170.171 67.3508 171.059 66.5194 171.875C65.688 172.691 64.763 173.393 63.7446 173.981C62.6638 174.605 61.635 174.995 60.6581 175.151C59.702 175.295 58.8603 175.193 58.1329 174.845C57.4055 174.473 56.8236 173.849 56.3872 172.973C55.9716 172.085 55.7639 170.909 55.764 169.445L55.764 169.013C55.7641 167.573 55.9721 166.157 56.3878 164.765C56.8244 163.361 57.4064 162.053 58.134 160.841C58.8615 159.629 59.7033 158.531 60.6594 157.547C61.6363 156.551 62.6652 155.741 63.746 155.117C64.7229 154.553 65.627 154.199 66.4584 154.055C67.2897 153.911 68.0171 153.971 68.6406 154.235C69.2849 154.463 69.8045 154.883 70.1993 155.495C70.6149 156.095 70.8955 156.845 71.0409 157.745L68.609 159.797C68.5467 159.209 68.3909 158.699 68.1415 158.267C67.9129 157.799 67.5908 157.469 67.1751 157.277C66.7803 157.049 66.2919 156.971 65.7099 157.043C65.128 157.115 64.4525 157.373 63.6834 157.817C62.9352 158.249 62.2285 158.825 61.5634 159.545C60.919 160.229 60.3474 161.015 59.8485 161.903C59.3497 162.767 58.9547 163.691 58.6637 164.675C58.3934 165.647 58.2582 166.613 58.2582 167.573L58.2581 168.005C58.2581 169.013 58.3931 169.847 58.6632 170.507C58.9541 171.131 59.349 171.575 59.8478 171.839C60.3466 172.103 60.9285 172.199 61.5936 172.127C62.2587 172.031 62.9757 171.761 63.7448 171.317C64.5138 170.873 65.1789 170.357 65.7401 169.769C66.3221 169.145 66.8106 168.503 67.2055 167.843C67.6213 167.147 67.9435 166.445 68.1721 165.737C68.4216 165.017 68.5879 164.321 68.6711 163.649L71.1028 162.893ZM76.2567 158.19C76.3189 159.93 76.7968 161.082 77.6905 161.646C78.5841 162.21 79.8312 162.03 81.4316 161.106C82.1591 160.686 82.793 160.224 83.3334 159.72C83.8738 159.216 84.3311 158.688 84.7052 158.136C85.1002 157.572 85.412 157.008 85.6406 156.444C85.8901 155.844 86.0876 155.25 86.2331 154.662L88.5401 154.05C88.1035 155.958 87.2928 157.782 86.108 159.522C84.944 161.226 83.3644 162.654 81.369 163.806C80.2674 164.442 79.249 164.814 78.3137 164.922C77.3993 164.994 76.6095 164.814 75.9444 164.382C75.2794 163.95 74.7599 163.278 74.3858 162.366C74.0118 161.454 73.8248 160.314 73.8249 158.946L73.825 158.082C73.8251 156.834 74.0122 155.562 74.3864 154.266C74.7814 152.958 75.3219 151.722 76.0078 150.558C76.6938 149.37 77.494 148.296 78.4086 147.336C79.3439 146.34 80.352 145.53 81.4328 144.906C82.7007 144.174 83.7918 143.82 84.7063 143.844C85.6416 143.832 86.4002 144.054 86.9821 144.51C87.5848 144.954 88.0212 145.566 88.2913 146.346C88.5822 147.114 88.7277 147.894 88.7276 148.686L88.7274 150.99L76.2567 158.19ZM81.4326 147.57C80.7467 147.966 80.1024 148.47 79.4996 149.082C78.9176 149.658 78.398 150.306 77.9407 151.026C77.5042 151.734 77.1404 152.484 76.8494 153.276C76.5791 154.032 76.4024 154.794 76.3192 155.562L86.2958 149.802C86.2543 149.058 86.0881 148.458 85.7972 148.002C85.527 147.534 85.1633 147.216 84.7061 147.048C84.2696 146.868 83.7604 146.826 83.1785 146.922C82.6173 147.006 82.0354 147.222 81.4326 147.57ZM94.7535 155.574L92.3217 156.978L92.323 139.122L94.7548 137.718L94.7546 140.742L95.1287 140.526C96.085 137.622 97.7478 135.486 100.117 134.118C101.905 133.086 103.328 132.912 104.388 133.596C105.448 134.256 105.978 135.87 105.978 138.438L105.977 149.094L103.545 150.498L103.546 140.418C103.546 138.546 103.183 137.352 102.455 136.836C101.728 136.32 100.741 136.422 99.4935 137.142C98.0178 137.994 96.8539 139.254 96.0016 140.922C95.1701 142.554 94.7543 144.342 94.7542 146.286L94.7535 155.574ZM109.636 129.127L114.499 126.319L114.5 118.975L116.932 117.571L116.931 124.915L122.917 121.459L122.917 124.051L116.931 127.507L116.93 139.099C116.93 139.819 117.211 140.017 117.772 139.693L122.168 137.155L122.167 139.747L116.899 142.789C116.192 143.197 115.61 143.269 115.153 143.005C114.716 142.729 114.498 142.183 114.498 141.367L114.499 128.911L109.636 131.719L109.636 129.127ZM139.231 126.871L138.857 127.087C138.358 128.575 137.662 129.865 136.768 130.957C135.895 132.037 134.97 132.859 133.993 133.423C132.975 134.011 132.029 134.365 131.156 134.485C130.283 134.581 129.514 134.437 128.849 134.053C128.205 133.633 127.696 132.967 127.322 132.055C126.947 131.143 126.761 129.943 126.761 128.455L126.761 127.879C126.761 126.415 126.948 125.011 127.322 123.667C127.696 122.323 128.206 121.081 128.85 119.941C129.515 118.765 130.284 117.721 131.157 116.809C132.03 115.897 132.955 115.159 133.932 114.595C134.992 113.983 135.948 113.707 136.8 113.767C137.673 113.791 138.359 114.223 138.858 115.063L139.232 114.847L139.232 112.039L141.664 110.635L141.663 124.819C141.663 125.539 141.943 125.737 142.505 125.413L143.284 124.963L143.284 127.555L141.631 128.509C140.925 128.917 140.343 128.989 139.886 128.725C139.449 128.449 139.231 127.903 139.231 127.087L139.231 126.871ZM134.243 130.615C134.97 130.195 135.635 129.655 136.238 128.995C136.862 128.323 137.392 127.573 137.828 126.745C138.265 125.917 138.608 125.035 138.857 124.099C139.107 123.139 139.231 122.167 139.231 121.183L139.231 120.751C139.232 119.791 139.107 118.987 138.858 118.339C138.608 117.667 138.255 117.175 137.798 116.863C137.361 116.539 136.831 116.401 136.208 116.449C135.605 116.461 134.95 116.671 134.244 117.079C133.516 117.499 132.851 118.039 132.248 118.699C131.645 119.359 131.115 120.109 130.658 120.949C130.222 121.753 129.879 122.635 129.629 123.595C129.38 124.531 129.255 125.479 129.255 126.439L129.255 127.015C129.255 129.055 129.712 130.387 130.626 131.011C131.561 131.599 132.767 131.467 134.243 130.615ZM157.604 116.552L157.23 116.768C156.731 118.136 156.045 119.348 155.172 120.404C154.319 121.424 153.384 122.228 152.366 122.816C151.326 123.416 150.35 123.776 149.435 123.896C148.521 124.016 147.71 123.896 147.003 123.536C146.318 123.164 145.767 122.534 145.351 121.646C144.956 120.722 144.759 119.528 144.759 118.064L144.759 117.488C144.759 116.048 144.967 114.644 145.383 113.276C145.799 111.884 146.35 110.606 147.036 109.442C147.722 108.254 148.522 107.192 149.436 106.256C150.351 105.32 151.307 104.564 152.305 103.988C153.427 103.34 154.404 103.064 155.235 103.16C156.087 103.22 156.753 103.652 157.23 104.456L157.605 104.24L157.605 101.432L160.037 100.028L160.035 122.276C160.035 123.092 159.806 123.896 159.349 124.688C158.912 125.468 158.341 126.062 157.634 126.47L147.564 132.284L147.564 129.692L156.761 124.382C157.323 124.058 157.603 123.536 157.603 122.816L157.604 116.552ZM152.428 120.116C153.156 119.696 153.831 119.15 154.455 118.478C155.078 117.806 155.619 117.05 156.076 116.21C156.554 115.358 156.928 114.458 157.199 113.51C157.469 112.538 157.604 111.56 157.604 110.576L157.604 110.144C157.604 109.184 157.469 108.386 157.199 107.75C156.929 107.09 156.555 106.61 156.077 106.31C155.62 105.998 155.069 105.872 154.425 105.932C153.801 105.956 153.136 106.172 152.429 106.58C151.702 107 151.016 107.552 150.372 108.236C149.748 108.908 149.197 109.67 148.719 110.522C148.262 111.362 147.898 112.256 147.628 113.204C147.378 114.14 147.253 115.088 147.253 116.048L147.253 116.624C147.253 117.632 147.378 118.46 147.627 119.108C147.897 119.744 148.261 120.218 148.718 120.53C149.196 120.806 149.747 120.92 150.371 120.872C150.994 120.8 151.68 120.548 152.428 120.116ZM165.47 106.682C165.532 108.422 166.01 109.574 166.904 110.138C167.798 110.702 169.045 110.522 170.645 109.598C171.373 109.178 172.006 108.716 172.547 108.212C173.087 107.708 173.545 107.18 173.919 106.628C174.314 106.064 174.625 105.5 174.854 104.936C175.104 104.336 175.301 103.742 175.447 103.154L177.754 102.542C177.317 104.45 176.506 106.274 175.322 108.014C174.158 109.718 172.578 111.146 170.583 112.298C169.481 112.934 168.462 113.306 167.527 113.414C166.613 113.486 165.823 113.306 165.158 112.874C164.493 112.442 163.973 111.77 163.599 110.858C163.225 109.946 163.038 108.806 163.038 107.438L163.038 106.574C163.039 105.326 163.226 104.054 163.6 102.758C163.995 101.45 164.535 100.214 165.221 99.0504C165.907 97.8624 166.708 96.7884 167.622 95.8284C168.557 94.8324 169.565 94.0224 170.646 93.3984C171.914 92.6664 173.005 92.3124 173.92 92.3364C174.855 92.3244 175.614 92.5464 176.196 93.0024C176.798 93.4464 177.235 94.0584 177.505 94.8384C177.796 95.6064 177.941 96.3864 177.941 97.1784L177.941 99.4824L165.47 106.682ZM170.646 96.0624C169.96 96.4584 169.316 96.9624 168.713 97.5744C168.131 98.1504 167.611 98.7984 167.154 99.5184C166.718 100.226 166.354 100.976 166.063 101.768C165.793 102.524 165.616 103.286 165.533 104.054L175.509 98.2944C175.468 97.5504 175.302 96.9504 175.011 96.4944C174.74 96.0264 174.377 95.7084 173.92 95.5404C173.483 95.3604 172.974 95.3184 172.392 95.4144C171.831 95.4984 171.249 95.7144 170.646 96.0624ZM213.969 78.0334C213.969 79.5214 213.751 80.9674 213.314 82.3714C212.899 83.7394 212.337 85.0234 211.631 86.2234C210.924 87.3994 210.092 88.4674 209.136 89.4274C208.201 90.3754 207.224 91.1434 206.206 91.7314C205.166 92.3314 204.179 92.6974 203.244 92.8294C202.309 92.9614 201.488 92.8474 200.781 92.4874C200.074 92.1034 199.503 91.4734 199.066 90.5974C198.651 89.6854 198.443 88.4854 198.443 86.9974L198.443 86.5654C198.443 85.1014 198.651 83.6854 199.067 82.3174C199.504 80.9134 200.075 79.6114 200.782 78.4114C201.51 77.1994 202.341 76.1194 203.276 75.1714C204.212 74.2234 205.189 73.4554 206.207 72.8674C207.225 72.2794 208.202 71.9194 209.138 71.7874C210.073 71.6554 210.894 71.7814 211.6 72.1654C212.328 72.5374 212.899 73.1794 213.315 74.0914C213.751 74.9674 213.969 76.1374 213.969 77.6014L213.969 78.0334ZM206.206 89.0674C206.954 88.6354 207.64 88.0954 208.263 87.4474C208.908 86.7634 209.469 85.9954 209.947 85.1434C210.425 84.2914 210.799 83.3914 211.07 82.4434C211.34 81.4714 211.475 80.4814 211.475 79.4734L211.475 79.0414C211.475 78.0814 211.34 77.2834 211.07 76.6474C210.8 75.9874 210.426 75.5074 209.948 75.2074C209.47 74.9074 208.909 74.7874 208.264 74.8474C207.62 74.8834 206.934 75.1114 206.207 75.5314C205.479 75.9514 204.793 76.5154 204.149 77.2234C203.505 77.9074 202.944 78.6754 202.465 79.5274C201.987 80.3794 201.613 81.2914 201.343 82.2634C201.073 83.2114 200.937 84.1654 200.937 85.1254L200.937 85.5574C200.937 86.5654 201.072 87.3994 201.342 88.0594C201.613 88.6954 201.987 89.1634 202.465 89.4634C202.943 89.7634 203.493 89.8894 204.117 89.8414C204.761 89.7574 205.458 89.4994 206.206 89.0674ZM217.066 67.1019L221.836 64.3479L221.836 59.8119C221.836 58.9959 222.055 58.1979 222.491 57.4179C222.949 56.6259 223.531 56.0259 224.237 55.6179L230.348 52.0899L230.348 54.6819L225.11 57.7059C224.549 58.0299 224.268 58.5519 224.268 59.2719L224.268 62.9439L230.722 59.2179L230.721 61.8099L224.268 65.5359L224.267 80.7999L221.835 82.2039L221.836 66.9399L217.066 69.6939L217.066 67.1019ZM14.1429 227.258L16.5747 225.854L16.5734 243.71L14.1416 245.114L14.1418 241.874L13.7677 242.09C13.2688 243.53 12.614 244.82 11.8033 245.96C10.9927 247.1 9.96383 248.03 8.71675 248.75C7.86458 249.242 7.07478 249.53 6.34734 249.614C5.64069 249.71 5.02758 249.584 4.50801 249.236C4.00923 248.876 3.61438 248.3 3.32347 247.508C3.05335 246.704 2.91833 245.666 2.91843 244.394L2.91923 233.738L5.35103 232.334L5.35025 242.63C5.35011 244.502 5.68256 245.678 6.3476 246.158C7.01265 246.638 8.03106 246.482 9.40284 245.69C10.8786 244.838 12.0321 243.596 12.8636 241.964C13.7159 240.296 14.1421 238.49 14.1422 236.546L14.1429 227.258ZM20.076 223.832L25.6879 220.592L25.6877 222.968L26.0618 222.752C26.4568 221.54 27.018 220.496 27.7455 219.62C28.473 218.72 29.3044 218 30.2397 217.46C31.7986 216.56 33.056 216.422 34.012 217.046C34.968 217.67 35.4771 219.092 35.5393 221.312L32.9828 223.22C32.9829 221.564 32.64 220.574 31.9542 220.25C31.2684 219.902 30.4266 220.016 29.4289 220.592C28.7846 220.964 28.2234 221.432 27.7454 221.996C27.2881 222.548 26.9035 223.166 26.5917 223.85C26.2799 224.534 26.0512 225.254 25.9057 226.01C25.7602 226.766 25.6874 227.528 25.6873 228.296L25.6867 235.856L29.615 233.588L29.6148 236.18L19.7006 241.904L19.7008 239.312L23.2549 237.26L23.2559 224.588L20.0758 226.424L20.076 223.832ZM40.661 229.803L38.2292 231.207L38.2311 206.007L40.6629 204.603L40.6621 214.755L41.0362 214.539C41.5767 213.147 42.325 211.899 43.2811 210.795C44.2373 209.667 45.2765 208.779 46.3989 208.131C47.355 207.579 48.2591 207.261 49.1112 207.177C49.9634 207.093 50.7116 207.249 51.3558 207.645C52.0209 208.029 52.5404 208.677 52.9145 209.589C53.3093 210.489 53.5067 211.659 53.5065 213.099L53.5065 213.819C53.5064 215.283 53.3192 216.687 52.945 218.031C52.5708 219.375 52.0511 220.623 51.3859 221.775C50.7416 222.915 49.9829 223.941 49.1099 224.853C48.2369 225.741 47.312 226.467 46.3351 227.031C45.8363 227.319 45.3271 227.541 44.8075 227.697C44.2879 227.877 43.789 227.973 43.311 227.985C42.8538 227.961 42.4277 227.871 42.0328 227.715C41.638 227.535 41.3054 227.247 41.0353 226.851L40.6612 227.067L40.661 229.803ZM45.8365 224.655C46.5847 224.223 47.2706 223.683 47.8942 223.035C48.5178 222.363 49.0582 221.619 49.5155 220.803C49.9936 219.975 50.3574 219.093 50.6068 218.157C50.8771 217.209 51.0123 216.243 51.0123 215.259L51.0124 214.539C51.0125 213.579 50.8774 212.793 50.6073 212.181C50.3579 211.533 49.9942 211.071 49.5162 210.795C49.059 210.483 48.5083 210.357 47.864 210.417C47.2405 210.465 46.565 210.699 45.8375 211.119C45.11 211.539 44.4345 212.097 43.811 212.793C43.1874 213.465 42.6366 214.227 42.1585 215.079C41.7012 215.919 41.3374 216.825 41.0671 217.797C40.7969 218.745 40.6617 219.699 40.6616 220.659L40.6616 221.091C40.6615 222.075 40.7966 222.897 41.0667 223.557C41.3368 224.193 41.7005 224.667 42.1577 224.979C42.6357 225.279 43.1865 225.405 43.81 225.357C44.4335 225.309 45.109 225.075 45.8365 224.655ZM67.857 211.077L67.4828 211.293C66.9839 212.781 66.2876 214.071 65.3938 215.163C64.5208 216.243 63.5958 217.065 62.619 217.629C61.6005 218.217 60.6548 218.571 59.7819 218.691C58.909 218.787 58.14 218.643 57.4749 218.259C56.8307 217.839 56.3215 217.173 55.9475 216.261C55.5735 215.349 55.3865 214.149 55.3866 212.661L55.3867 212.085C55.3868 210.621 55.5739 209.217 55.9481 207.873C56.3223 206.529 56.8316 205.287 57.476 204.147C58.1412 202.971 58.9103 201.927 59.7832 201.015C60.6562 200.103 61.5812 199.365 62.558 198.801C63.618 198.189 64.5741 197.913 65.4262 197.973C66.2992 197.997 66.985 198.429 67.4837 199.269L67.8579 199.053L67.8581 196.245L70.2899 194.841L70.2888 209.025C70.2887 209.745 70.5693 209.943 71.1305 209.619L71.9099 209.169L71.9097 211.761L70.2573 212.715C69.5507 213.123 68.9687 213.195 68.5115 212.931C68.0751 212.655 67.8569 212.109 67.8569 211.293L67.857 211.077ZM62.8686 214.821C63.596 214.401 64.2612 213.861 64.8639 213.201C65.4875 212.529 66.0175 211.779 66.4541 210.951C66.8906 210.123 67.2336 209.241 67.4831 208.305C67.7325 207.345 67.8573 206.373 67.8574 205.389L67.8574 204.957C67.8575 203.997 67.7328 203.193 67.4835 202.545C67.2341 201.873 66.8808 201.381 66.4236 201.069C65.9872 200.745 65.4572 200.607 64.8337 200.655C64.231 200.667 63.5763 200.877 62.8696 201.285C62.1421 201.705 61.477 202.245 60.8742 202.905C60.2715 203.565 59.7414 204.315 59.2841 205.155C58.8476 205.959 58.5046 206.841 58.2551 207.801C58.0057 208.737 57.8809 209.685 57.8808 210.645L57.8808 211.221C57.8806 213.261 58.3377 214.593 59.2522 215.217C60.1874 215.805 61.3929 215.673 62.8686 214.821ZM76.9075 208.876L74.4757 210.28L74.4771 192.424L76.9089 191.02L76.9086 194.044L77.2828 193.828C78.239 190.924 79.9019 188.788 82.2713 187.42C84.0588 186.388 85.4825 186.214 86.5424 186.898C87.6024 187.558 88.1322 189.172 88.132 191.74L88.1312 202.396L85.6994 203.8L85.7002 193.72C85.7003 191.848 85.3367 190.654 84.6093 190.138C83.8819 189.622 82.8947 189.724 81.6476 190.444C80.1719 191.296 79.0079 192.556 78.1557 194.224C77.3242 195.856 76.9084 197.644 76.9082 199.588L76.9075 208.876ZM121.915 180.155L121.541 180.371C121.042 181.739 120.356 182.951 119.483 184.007C118.631 185.027 117.696 185.831 116.677 186.419C115.638 187.019 114.661 187.379 113.746 187.499C112.832 187.619 112.021 187.499 111.315 187.139C110.629 186.767 110.078 186.137 109.663 185.249C109.268 184.325 109.07 183.131 109.071 181.667L109.071 181.091C109.071 179.651 109.279 178.247 109.694 176.879C110.11 175.487 110.661 174.209 111.347 173.045C112.033 171.857 112.833 170.795 113.748 169.859C114.662 168.923 115.618 168.167 116.616 167.591C117.738 166.943 118.715 166.667 119.547 166.763C120.399 166.823 121.064 167.255 121.542 168.059L121.916 167.843L121.916 165.035L124.348 163.631L124.346 185.879C124.346 186.695 124.118 187.499 123.66 188.291C123.224 189.071 122.652 189.665 121.945 190.073L111.875 195.887L111.876 193.295L121.073 187.985C121.634 187.661 121.915 187.139 121.915 186.419L121.915 180.155ZM116.74 183.719C117.467 183.299 118.143 182.753 118.766 182.081C119.39 181.409 119.93 180.653 120.387 179.813C120.866 178.961 121.24 178.061 121.51 177.113C121.78 176.141 121.915 175.163 121.915 174.179L121.916 173.747C121.916 172.787 121.781 171.989 121.51 171.353C121.24 170.693 120.866 170.213 120.388 169.913C119.931 169.601 119.38 169.475 118.736 169.535C118.112 169.559 117.447 169.775 116.741 170.183C116.013 170.603 115.327 171.155 114.683 171.839C114.059 172.511 113.509 173.273 113.03 174.125C112.573 174.965 112.209 175.859 111.939 176.807C111.69 177.743 111.565 178.691 111.565 179.651L111.565 180.227C111.565 181.235 111.689 182.063 111.939 182.711C112.209 183.347 112.572 183.821 113.03 184.133C113.508 184.409 114.058 184.523 114.682 184.475C115.305 184.403 115.991 184.151 116.74 183.719ZM127.132 162.023L132.744 158.783L132.744 161.159L133.118 160.943C133.513 159.731 134.074 158.687 134.802 157.811C135.529 156.911 136.361 156.191 137.296 155.651C138.855 154.751 140.112 154.613 141.068 155.237C142.024 155.861 142.533 157.283 142.595 159.503L140.039 161.411C140.039 159.755 139.696 158.765 139.01 158.441C138.325 158.093 137.483 158.207 136.485 158.783C135.841 159.155 135.28 159.623 134.802 160.187C134.344 160.739 133.96 161.357 133.648 162.041C133.336 162.725 133.107 163.445 132.962 164.201C132.816 164.957 132.744 165.719 132.743 166.487L132.743 174.047L136.671 171.779L136.671 174.371L126.757 180.095L126.757 177.503L130.311 175.451L130.312 162.779L127.132 164.615L127.132 162.023ZM147.624 159.984C147.686 161.724 148.164 162.876 149.058 163.44C149.952 164.004 151.199 163.824 152.799 162.9C153.527 162.48 154.161 162.018 154.701 161.514C155.241 161.01 155.699 160.482 156.073 159.93C156.468 159.366 156.78 158.802 157.008 158.238C157.258 157.638 157.455 157.044 157.601 156.456L159.908 155.844C159.471 157.752 158.66 159.576 157.476 161.316C156.312 163.02 154.732 164.448 152.737 165.6C151.635 166.236 150.617 166.608 149.681 166.716C148.767 166.788 147.977 166.608 147.312 166.176C146.647 165.744 146.127 165.072 145.753 164.16C145.379 163.248 145.192 162.108 145.192 160.74L145.193 159.876C145.193 158.628 145.38 157.356 145.754 156.06C146.149 154.752 146.689 153.516 147.375 152.352C148.061 151.164 148.862 150.09 149.776 149.13C150.711 148.134 151.72 147.324 152.8 146.7C154.068 145.968 155.159 145.614 156.074 145.638C157.009 145.626 157.768 145.848 158.35 146.304C158.952 146.748 159.389 147.36 159.659 148.14C159.95 148.908 160.095 149.688 160.095 150.48L160.095 152.784L147.624 159.984ZM152.8 149.364C152.114 149.76 151.47 150.264 150.867 150.876C150.285 151.452 149.766 152.1 149.308 152.82C148.872 153.528 148.508 154.278 148.217 155.07C147.947 155.826 147.77 156.588 147.687 157.356L157.663 151.596C157.622 150.852 157.456 150.252 157.165 149.796C156.895 149.328 156.531 149.01 156.074 148.842C155.637 148.662 155.128 148.62 154.546 148.716C153.985 148.8 153.403 149.016 152.8 149.364ZM165.467 149.682C165.529 151.422 166.007 152.574 166.901 153.138C167.794 153.702 169.041 153.522 170.642 152.598C171.369 152.178 172.003 151.716 172.544 151.212C173.084 150.708 173.541 150.18 173.915 149.628C174.31 149.064 174.622 148.5 174.851 147.936C175.1 147.336 175.298 146.742 175.443 146.154L177.75 145.542C177.314 147.45 176.503 149.274 175.318 151.014C174.154 152.718 172.575 154.146 170.579 155.298C169.478 155.934 168.459 156.306 167.524 156.414C166.609 156.486 165.82 156.306 165.155 155.874C164.49 155.442 163.97 154.77 163.596 153.858C163.222 152.946 163.035 151.806 163.035 150.438L163.035 149.574C163.035 148.326 163.222 147.054 163.597 145.758C163.992 144.45 164.532 143.214 165.218 142.05C165.904 140.862 166.704 139.788 167.619 138.828C168.554 137.832 169.562 137.022 170.643 136.398C171.911 135.666 173.002 135.312 173.917 135.336C174.852 135.324 175.61 135.546 176.192 136.002C176.795 136.446 177.231 137.058 177.502 137.838C177.792 138.606 177.938 139.386 177.938 140.178L177.938 142.482L165.467 149.682ZM170.643 139.062C169.957 139.458 169.313 139.962 168.71 140.574C168.128 141.15 167.608 141.798 167.151 142.518C166.714 143.226 166.351 143.976 166.06 144.768C165.789 145.524 165.613 146.286 165.529 147.054L175.506 141.294C175.465 140.55 175.298 139.95 175.007 139.494C174.737 139.026 174.374 138.708 173.916 138.54C173.48 138.36 172.971 138.318 172.389 138.414C171.828 138.498 171.246 138.714 170.643 139.062ZM183.964 147.067L181.532 148.471L181.533 130.615L183.965 129.211L183.965 132.235L184.339 132.019C185.295 129.115 186.958 126.979 189.328 125.611C191.115 124.579 192.539 124.405 193.599 125.089C194.659 125.749 195.188 127.363 195.188 129.931L195.187 140.587L192.756 141.991L192.756 131.911C192.757 130.039 192.393 128.845 191.665 128.329C190.938 127.813 189.951 127.915 188.704 128.635C187.228 129.487 186.064 130.747 185.212 132.415C184.38 134.047 183.965 135.835 183.964 137.779L183.964 147.067ZM6.31392 279.384C6.31386 280.248 6.62558 280.728 7.24908 280.824C7.89337 280.908 9.05728 280.536 10.7408 279.708C12.5491 278.832 13.9208 278.544 14.8561 278.844C15.8121 279.108 16.2901 280.032 16.2899 281.616L16.2899 281.832C16.2899 282.696 16.1339 283.566 15.8221 284.442C15.5311 285.282 15.1153 286.098 14.5749 286.89C14.0552 287.67 13.4109 288.402 12.6418 289.086C11.8936 289.782 11.0726 290.388 10.1788 290.904C8.97331 291.6 7.9341 292.02 7.06117 292.164C6.20903 292.272 5.492 292.194 4.91007 291.93C4.34894 291.63 3.9229 291.18 3.63198 290.58C3.34105 289.956 3.17484 289.26 3.13333 288.492L5.44047 286.512C5.54429 287.82 6.00147 288.66 6.812 289.032C7.62254 289.38 8.70331 289.164 10.0543 288.384C11.1975 287.724 12.112 286.944 12.7979 286.044C13.5047 285.108 13.858 284.172 13.8581 283.236C13.8582 282.228 13.5153 281.706 12.8294 281.67C12.1436 281.634 11.0316 282 9.49357 282.768C7.70611 283.656 6.33436 283.968 5.37833 283.704C4.4223 283.44 3.94434 282.528 3.94446 280.968L3.94448 280.752C3.94454 279.912 4.10048 279.09 4.41229 278.286C4.72411 277.458 5.13985 276.678 5.65949 275.946C6.19993 275.202 6.8027 274.53 7.46783 273.93C8.13295 273.33 8.82924 272.82 9.55671 272.4C10.5752 271.812 11.4689 271.464 12.2379 271.356C13.0069 271.224 13.6512 271.272 14.1708 271.5C14.6903 271.704 15.0852 272.064 15.3553 272.58C15.6463 273.084 15.8333 273.648 15.9164 274.272L13.6092 276.252C13.5054 275.16 13.1002 274.494 12.3935 274.254C11.7077 274.002 10.8036 274.2 9.68122 274.848C9.24475 275.1 8.81866 275.406 8.40296 275.766C8.00804 276.09 7.65469 276.45 7.34291 276.846C7.03112 277.242 6.78168 277.662 6.5946 278.106C6.40751 278.526 6.31395 278.952 6.31392 279.384ZM22.8145 290.304L20.3827 291.708L20.3846 266.652L22.8164 265.248L22.8161 268.056L23.1903 267.84C23.7307 266.448 24.4791 265.2 25.4352 264.096C26.3913 262.968 27.4306 262.08 28.5529 261.432C29.509 260.88 30.4132 260.562 31.2653 260.478C32.1174 260.394 32.8656 260.55 33.5099 260.946C34.1749 261.33 34.6945 261.978 35.0685 262.89C35.4634 263.79 35.6607 264.96 35.6606 266.4L35.6605 267.12C35.6604 268.584 35.4733 269.988 35.0991 271.332C34.7249 272.676 34.2052 273.924 33.54 275.076C32.8956 276.216 32.1369 277.242 31.264 278.154C30.391 279.042 29.466 279.768 28.4892 280.332C27.9903 280.62 27.4811 280.842 26.9615 280.998C26.4419 281.178 25.9431 281.274 25.4651 281.286C25.0078 281.262 24.5818 281.172 24.1869 281.016C23.792 280.836 23.4595 280.548 23.1893 280.152L22.8152 280.368L22.8145 290.304ZM27.9905 277.956C28.7388 277.524 29.4247 276.984 30.0483 276.336C30.6718 275.664 31.2122 274.92 31.6695 274.104C32.1476 273.276 32.5114 272.394 32.7609 271.458C33.0312 270.51 33.1663 269.544 33.1664 268.56L33.1664 267.84C33.1665 266.88 33.0315 266.094 32.7613 265.482C32.512 264.834 32.1483 264.372 31.6703 264.096C31.2131 263.784 30.6623 263.658 30.018 263.718C29.3945 263.766 28.719 264 27.9916 264.42C27.2641 264.84 26.5886 265.398 25.965 266.094C25.3415 266.766 24.7906 267.528 24.3125 268.38C23.8552 269.22 23.4915 270.126 23.2212 271.098C22.9509 272.046 22.8158 273 22.8157 273.96L22.8157 274.392C22.8156 275.376 22.9506 276.198 23.2208 276.858C23.4909 277.494 23.8546 277.968 24.3118 278.28C24.7898 278.58 25.3406 278.706 25.9641 278.658C26.5876 278.61 27.2631 278.376 27.9905 277.956ZM50.011 264.379L49.6369 264.595C49.138 266.083 48.4416 267.373 47.5478 268.465C46.6748 269.545 45.7499 270.367 44.773 270.931C43.7546 271.519 42.8089 271.873 41.936 271.993C41.063 272.089 40.2941 271.945 39.629 271.561C38.9847 271.141 38.4756 270.475 38.1016 269.563C37.7275 268.651 37.5406 267.451 37.5407 265.963L37.5407 265.387C37.5408 263.923 37.728 262.519 38.1022 261.175C38.4764 259.831 38.9857 258.589 39.6301 257.449C40.2952 256.273 41.0643 255.229 41.9373 254.317C42.8103 253.405 43.7352 252.667 44.7121 252.103C45.7721 251.491 46.7282 251.215 47.5803 251.275C48.4532 251.299 49.139 251.731 49.6378 252.571L50.0119 252.355L50.0121 249.547L52.4439 248.143L52.4429 262.327C52.4428 263.047 52.7234 263.245 53.2846 262.921L54.064 262.471L54.0638 265.063L52.4114 266.017C51.7047 266.425 51.1228 266.497 50.6656 266.233C50.2291 265.957 50.0109 265.411 50.011 264.595L50.011 264.379ZM45.0226 268.123C45.7501 267.703 46.4152 267.163 47.018 266.503C47.6416 265.831 48.1716 265.081 48.6081 264.253C49.0446 263.425 49.3876 262.543 49.6371 261.607C49.8866 260.647 50.0114 259.675 50.0114 258.691L50.0115 258.259C50.0115 257.299 49.8869 256.495 49.6375 255.847C49.3882 255.175 49.0349 254.683 48.5777 254.371C48.1413 254.047 47.6113 253.909 46.9878 253.957C46.385 253.969 45.7303 254.179 45.0237 254.587C44.2962 255.007 43.6311 255.547 43.0283 256.207C42.4255 256.867 41.8955 257.617 41.4382 258.457C41.0017 259.261 40.6587 260.143 40.4092 261.103C40.1597 262.039 40.0349 262.987 40.0349 263.947L40.0348 264.523C40.0347 266.563 40.4918 267.895 41.4062 268.519C42.3415 269.107 43.5469 268.975 45.0226 268.123ZM71.0964 248.893C70.93 249.973 70.639 251.053 70.2232 252.133C69.8282 253.201 69.3189 254.227 68.6954 255.211C68.0718 256.171 67.3443 257.059 66.5129 257.875C65.6815 258.691 64.7565 259.393 63.7381 259.981C62.6573 260.605 61.6285 260.995 60.6516 261.151C59.6956 261.295 58.8538 261.193 58.1264 260.845C57.399 260.473 56.8171 259.849 56.3807 258.973C55.9651 258.085 55.7574 256.909 55.7575 255.445L55.7575 255.013C55.7576 253.573 55.9656 252.157 56.3814 250.765C56.8179 249.361 57.4 248.053 58.1275 246.841C58.855 245.629 59.6968 244.531 60.6529 243.547C61.6299 242.551 62.6587 241.741 63.7395 241.117C64.7164 240.553 65.6205 240.199 66.4519 240.055C67.2832 239.911 68.0107 239.971 68.6341 240.235C69.2784 240.463 69.798 240.883 70.1928 241.495C70.6085 242.095 70.889 242.845 71.0344 243.745L68.6025 245.797C68.5402 245.209 68.3844 244.699 68.135 244.267C67.9064 243.799 67.5843 243.469 67.1687 243.277C66.7738 243.049 66.2854 242.971 65.7034 243.043C65.1215 243.115 64.446 243.373 63.677 243.817C62.9287 244.249 62.222 244.825 61.5569 245.545C60.9125 246.229 60.3409 247.015 59.8421 247.903C59.3432 248.767 58.9482 249.691 58.6572 250.675C58.3869 251.647 58.2517 252.613 58.2517 253.573L58.2516 254.005C58.2516 255.013 58.3866 255.847 58.6567 256.507C58.9477 257.131 59.3425 257.575 59.8413 257.839C60.3401 258.103 60.922 258.199 61.5871 258.127C62.2522 258.031 62.9693 257.761 63.7383 257.317C64.5073 256.873 65.1724 256.357 65.7336 255.769C66.3156 255.145 66.8041 254.503 67.199 253.843C67.6148 253.147 67.937 252.445 68.1656 251.737C68.4151 251.017 68.5814 250.321 68.6646 249.649L71.0964 248.893ZM76.2502 244.19C76.3124 245.93 76.7903 247.082 77.684 247.646C78.5776 248.21 79.8247 248.03 81.4251 247.106C82.1526 246.686 82.7865 246.224 83.3269 245.72C83.8673 245.216 84.3246 244.688 84.6988 244.136C85.0937 243.572 85.4055 243.008 85.6342 242.444C85.8836 241.844 86.0811 241.25 86.2266 240.662L88.5337 240.05C88.0971 241.958 87.2864 243.782 86.1016 245.522C84.9375 247.226 83.3579 248.654 81.3625 249.806C80.261 250.442 79.2425 250.814 78.3073 250.922C77.3928 250.994 76.603 250.814 75.938 250.382C75.2729 249.95 74.7534 249.278 74.3793 248.366C74.0053 247.454 73.8183 246.314 73.8184 244.946L73.8185 244.082C73.8186 242.834 74.0057 241.562 74.3799 240.266C74.7749 238.958 75.3154 237.722 76.0013 236.558C76.6873 235.37 77.4876 234.296 78.4021 233.336C79.3375 232.34 80.3455 231.53 81.4263 230.906C82.6942 230.174 83.7854 229.82 84.6998 229.844C85.6351 229.832 86.3937 230.054 86.9756 230.51C87.5783 230.954 88.0147 231.566 88.2848 232.346C88.5758 233.114 88.7212 233.894 88.7211 234.686L88.7209 236.99L76.2502 244.19ZM81.4261 233.57C80.7402 233.966 80.0959 234.47 79.4931 235.082C78.9111 235.658 78.3915 236.306 77.9342 237.026C77.4977 237.734 77.1339 238.484 76.8429 239.276C76.5726 240.032 76.3959 240.794 76.3127 241.562L86.2893 235.802C86.2478 235.058 86.0816 234.458 85.7907 234.002C85.5205 233.534 85.1568 233.216 84.6996 233.048C84.2631 232.868 83.754 232.826 83.172 232.922C82.6108 233.006 82.0289 233.222 81.4261 233.57Z" fill="black"/>
<path d="M34.3054 359.852L34.305 365.468L4.74928 382.532L4.74993 373.892C4.75011 371.588 5.08281 369.404 5.74805 367.34C6.41328 365.228 7.3487 363.224 8.5543 361.328C9.80147 359.36 11.298 357.464 13.044 355.64C14.79 353.816 16.7646 351.98 18.9678 350.132C22.6675 347.036 25.3281 344.132 26.9494 341.42C28.6123 338.684 29.4438 336.02 29.444 333.428L29.4441 332.996C29.4442 331.7 29.2572 330.536 28.8832 329.504C28.5091 328.472 27.9273 327.68 27.1375 327.128C26.3478 326.576 25.3294 326.372 24.0824 326.516C22.8769 326.588 21.422 327.116 19.7177 328.1C16.5168 329.948 14.0226 332.516 12.2349 335.804C10.4889 339.068 9.61568 342.572 9.6154 346.316L9.61516 349.484L4.37744 352.508L4.37771 348.908C4.37789 346.604 4.71061 344.204 5.37587 341.708C6.04114 339.212 7.01816 336.776 8.30693 334.4C9.5957 332.024 11.1962 329.804 13.1085 327.74C15.0207 325.676 17.2239 323.924 19.7181 322.484C22.2538 321.02 24.4569 320.204 26.3275 320.036C28.198 319.82 29.7568 320.096 31.0038 320.864C32.2507 321.584 33.1651 322.712 33.747 324.248C34.3704 325.712 34.682 327.404 34.6818 329.324L34.6817 330.62C34.6814 334.46 33.642 338.348 31.5633 342.284C29.4846 346.172 26.159 350.012 21.5863 353.804C17.5955 357.116 14.6648 360.152 12.7941 362.912C10.9233 365.624 9.98783 368.564 9.98759 371.732L9.98743 373.892L34.3054 359.852ZM53.3438 329.421L53.3444 321.069L67.5619 302.349L67.562 301.485L42.8699 315.741L42.8703 310.125L72.0519 293.277L72.0512 302.493L57.8337 321.213L57.8336 322.077L60.3278 320.637C61.9906 319.677 63.591 319.065 65.129 318.801C66.667 318.537 68.0179 318.669 69.1818 319.197C70.3872 319.701 71.3432 320.637 72.0497 322.005C72.7978 323.301 73.1718 325.101 73.1716 327.405L73.1715 328.701C73.1714 330.861 72.7971 333.093 72.0487 335.397C71.3003 337.701 70.261 339.933 68.9306 342.093C67.6003 344.205 66.0206 346.197 64.1915 348.069C62.404 349.869 60.4502 351.381 58.3301 352.605C55.8776 354.021 53.6744 354.861 51.7207 355.125C49.7671 355.389 48.1044 355.173 46.7327 354.477C45.361 353.733 44.3012 352.569 43.5531 350.985C42.8465 349.329 42.4934 347.349 42.4935 345.045L42.4938 341.157L47.7316 338.133L47.7313 341.589C47.7312 343.413 47.9804 344.901 48.4792 346.053C49.0195 347.133 49.7468 347.913 50.6613 348.393C51.6173 348.801 52.7396 348.897 54.0282 348.681C55.3168 348.465 56.7094 347.925 58.2059 347.061C59.5777 346.269 60.8455 345.273 62.0095 344.073C63.2151 342.849 64.2543 341.529 65.1274 340.113C66.0004 338.649 66.6864 337.149 67.1853 335.613C67.6842 334.029 67.9337 332.517 67.9338 331.077L67.9339 330.645C67.9341 327.621 67.1029 325.749 65.4403 325.029C63.7776 324.261 61.6992 324.597 59.2051 326.037L53.3438 329.421ZM98.3211 288.478C98.3209 290.206 98.0714 291.886 97.5725 293.518C97.0735 295.102 96.3876 296.626 95.5145 298.09C94.6831 299.482 93.7061 300.742 92.5837 301.87C91.5029 302.974 90.3597 303.874 89.1542 304.57C87.9487 305.266 86.7848 305.698 85.6625 305.866C84.5817 306.01 83.6049 305.878 82.732 305.47C81.9007 304.99 81.2357 304.246 80.7369 303.238C80.2382 302.182 79.9889 300.79 79.989 299.062C79.9892 297.334 80.2387 295.678 80.7376 294.094C81.2365 292.462 81.9017 290.95 82.7332 289.558C83.6062 288.094 84.5831 286.81 85.664 285.706C86.7864 284.578 87.9503 283.666 89.1559 282.97C90.3614 282.274 91.5045 281.854 92.5853 281.71C93.7076 281.542 94.6844 281.698 95.5157 282.178C96.3886 282.586 97.0744 283.318 97.5732 284.374C98.0719 285.382 98.3212 286.75 98.3211 288.478ZM89.1545 300.682C90.7757 299.746 92.0852 298.366 93.083 296.542C94.0807 294.67 94.5797 292.702 94.5798 290.638C94.58 288.574 94.0813 287.206 93.0837 286.534C92.0861 285.814 90.7768 285.922 89.1556 286.858C87.5344 287.794 86.2249 289.198 85.2271 291.07C84.2294 292.894 83.7304 294.838 83.7303 296.902C83.7301 299.206 84.2288 300.646 85.2264 301.222C86.2239 301.798 87.5333 301.618 89.1545 300.682ZM111.725 310.402C111.725 312.13 111.475 313.81 110.976 315.442C110.477 317.026 109.791 318.55 108.918 320.014C108.087 321.406 107.11 322.666 105.988 323.794C104.907 324.898 103.764 325.798 102.558 326.494C101.353 327.19 100.189 327.622 99.0663 327.79C97.9855 327.934 97.0087 327.802 96.1358 327.394C95.3045 326.914 94.6395 326.17 94.1408 325.162C93.642 324.106 93.3927 322.714 93.3929 320.986C93.393 319.258 93.6425 317.602 94.1415 316.018C94.6404 314.386 95.3056 312.874 96.137 311.482C97.0101 310.018 97.987 308.734 99.0678 307.63C100.19 306.502 101.354 305.59 102.56 304.894C103.765 304.198 104.908 303.778 105.989 303.634C107.111 303.466 108.088 303.622 108.92 304.102C109.792 304.51 110.478 305.242 110.977 306.298C111.476 307.306 111.725 308.674 111.725 310.402ZM102.558 322.606C104.18 321.67 105.489 320.29 106.487 318.466C107.485 316.594 107.984 314.626 107.984 312.562C107.984 310.498 107.485 309.13 106.488 308.458C105.49 307.738 104.181 307.846 102.559 308.782C100.938 309.718 99.6287 311.122 98.631 312.994C97.6332 314.818 97.1342 316.762 97.1341 318.826C97.1339 321.13 97.6326 322.57 98.6302 323.146C99.6278 323.722 100.937 323.542 102.558 322.606ZM109.856 286.282L111.352 288.73L81.8577 323.11L80.3615 320.662L109.856 286.282Z" fill="black"/>
<g clip-path="url(#clip0_197_32165)">
<path fill-rule="evenodd" clip-rule="evenodd" d="M41.6734 392.42C41.9606 391.59 42.7805 391.117 43.0676 391.615L54.2753 411.03C54.5344 411.479 54.1575 412.401 53.5781 412.735L43.9271 418.307L43.9266 425.507L40.8089 427.307L40.8095 420.107L38.4034 421.496C38.223 421.238 38.0449 420.969 37.8809 420.685L34.131 414.189L41.6734 392.42ZM32.3878 419.22L34.8771 423.532L35.0924 423.905C35.3515 424.354 34.9746 425.276 34.3951 425.61L29.4208 428.482L29.4204 433.883L26.3027 435.683L26.3031 430.282L21.329 433.154C20.7496 433.489 20.3728 433.002 20.632 432.254L27.1662 413.395C27.4535 412.566 28.2733 412.092 28.5605 412.59L32.3878 419.22Z" fill="#196000"/>
</g>
<path d="M10.4618 454.309L19.6652 448.996L19.6651 450.68L15.849 452.884L15.848 466.319L14.2767 467.226L14.2777 453.791L10.4616 455.994L10.4618 454.309ZM21.1483 452.545L24.5155 450.601L24.5153 452.027L24.7398 451.897C24.9768 451.17 25.3136 450.544 25.7501 450.018C26.1865 449.478 26.6854 449.046 27.2466 448.722C28.1819 448.182 28.9363 448.099 29.5099 448.474C30.0835 448.848 30.389 449.701 30.4263 451.033L28.8924 452.178C28.8925 451.185 28.6867 450.591 28.2752 450.396C27.8637 450.187 27.3587 450.256 26.7601 450.601C26.3735 450.825 26.0368 451.105 25.7499 451.444C25.4756 451.775 25.2448 452.146 25.0578 452.556C24.8707 452.967 24.7335 453.399 24.6461 453.852C24.5588 454.306 24.5151 454.763 24.5151 455.224L24.5148 459.76L26.8717 458.399L26.8716 459.954L20.9231 463.389L20.9232 461.833L23.0557 460.602L23.0563 452.999L21.1482 454.101L21.1483 452.545ZM33.4435 451.322C33.4809 452.366 33.7676 453.057 34.3038 453.395C34.84 453.734 35.5882 453.626 36.5485 453.071C36.985 452.819 37.3653 452.542 37.6896 452.24C38.0138 451.937 38.2882 451.621 38.5127 451.289C38.7497 450.951 38.9367 450.613 39.0739 450.274C39.2236 449.914 39.3421 449.558 39.4294 449.205L40.8136 448.838C40.5517 449.983 40.0653 451.077 39.3544 452.121C38.656 453.143 37.7082 454 36.511 454.691C35.85 455.073 35.239 455.296 34.6778 455.361C34.1291 455.404 33.6552 455.296 33.2562 455.037C32.8572 454.778 32.5455 454.375 32.321 453.827C32.0966 453.28 31.9844 452.596 31.9845 451.775L31.9845 451.257C31.9846 450.508 32.0969 449.745 32.3214 448.967C32.5584 448.183 32.8827 447.441 33.2942 446.743C33.7058 446.03 34.186 445.385 34.7347 444.809C35.2959 444.212 35.9008 443.726 36.5492 443.351C37.3099 442.912 37.9646 442.7 38.5133 442.714C39.0745 442.707 39.5297 442.84 39.8788 443.114C40.2404 443.38 40.5023 443.747 40.6643 444.215C40.8389 444.676 40.9261 445.144 40.9261 445.619L40.926 447.002L33.4435 451.322ZM36.5491 444.95C36.1376 445.187 35.751 445.49 35.3893 445.857C35.0401 446.203 34.7283 446.591 34.454 447.023C34.192 447.448 33.9738 447.898 33.7992 448.373C33.637 448.827 33.531 449.284 33.4811 449.745L39.467 446.289C39.4421 445.843 39.3424 445.483 39.1678 445.209C39.0057 444.928 38.7875 444.737 38.5132 444.637C38.2513 444.529 37.9458 444.503 37.5966 444.561C37.2599 444.611 36.9108 444.741 36.5491 444.95ZM44.1492 445.141C44.1865 446.185 44.4733 446.876 45.0095 447.214C45.5456 447.553 46.2939 447.445 47.2541 446.89C47.6906 446.638 48.071 446.361 48.3952 446.059C48.7195 445.756 48.9938 445.44 49.2183 445.108C49.4553 444.77 49.6423 444.432 49.7795 444.093C49.9292 443.733 50.0477 443.377 50.135 443.024L51.5193 442.657C51.2573 443.802 50.7709 444.896 50.06 445.94C49.3616 446.962 48.4138 447.819 47.2166 448.51C46.5556 448.892 45.9446 449.115 45.3834 449.18C44.8347 449.223 44.3609 449.115 43.9618 448.856C43.5628 448.597 43.2511 448.194 43.0267 447.646C42.8022 447.099 42.69 446.415 42.6901 445.594L42.6902 445.076C42.6902 444.327 42.8025 443.564 43.027 442.786C43.264 442.002 43.5883 441.26 43.9999 440.562C44.4114 439.849 44.8916 439.204 45.4403 438.628C46.0015 438.031 46.6064 437.545 47.2548 437.17C48.0156 436.731 48.6703 436.519 49.219 436.533C49.7801 436.526 50.2353 436.659 50.5844 436.933C50.946 437.199 51.2079 437.566 51.37 438.034C51.5445 438.495 51.6318 438.963 51.6317 439.438L51.6316 440.821L44.1492 445.141ZM47.2547 438.769C46.8432 439.006 46.4566 439.309 46.0949 439.676C45.7457 440.022 45.434 440.41 45.1596 440.842C44.8977 441.267 44.6794 441.717 44.5048 442.192C44.3426 442.646 44.2366 443.103 44.1867 443.564L50.1727 440.108C50.1478 439.662 50.048 439.302 49.8735 439.028C49.7114 438.747 49.4931 438.556 49.2188 438.456C48.9569 438.348 48.6514 438.322 48.3023 438.38C47.9656 438.43 47.6164 438.56 47.2547 438.769ZM55.7155 435.353C55.7155 435.871 55.9025 436.159 56.2766 436.217C56.6632 436.267 57.3615 436.044 58.3716 435.547C59.4566 435.022 60.2796 434.849 60.8408 435.029C61.4144 435.187 61.7012 435.742 61.7011 436.692L61.7011 436.822C61.7011 437.34 61.6075 437.862 61.4204 438.388C61.2458 438.892 60.9963 439.381 60.6721 439.856C60.3603 440.324 59.9737 440.764 59.5122 441.174C59.0633 441.592 58.5707 441.955 58.0344 442.265C57.3111 442.682 56.6876 442.934 56.1638 443.021C55.6526 443.086 55.2223 443.039 54.8732 442.88C54.5365 442.7 54.2809 442.43 54.1063 442.07C53.9318 441.696 53.832 441.278 53.8071 440.818L55.1914 439.63C55.2537 440.414 55.528 440.918 56.0143 441.142C56.5007 441.35 57.1491 441.221 57.9597 440.753C58.6456 440.357 59.1943 439.889 59.6059 439.349C60.0299 438.787 60.242 438.226 60.242 437.664C60.2421 437.059 60.0363 436.746 59.6248 436.724C59.2133 436.703 58.5461 436.922 57.6233 437.383C56.5508 437.916 55.7278 438.103 55.1541 437.945C54.5805 437.786 54.2937 437.239 54.2938 436.303L54.2938 436.174C54.2939 435.67 54.3874 435.176 54.5745 434.694C54.7616 434.197 55.011 433.729 55.3228 433.29C55.6471 432.844 56.0088 432.44 56.4078 432.08C56.8069 431.72 57.2247 431.414 57.6612 431.162C58.2722 430.81 58.8085 430.601 59.2699 430.536C59.7313 430.457 60.1178 430.486 60.4296 430.622C60.7413 430.745 60.9783 430.961 61.1403 431.27C61.3149 431.573 61.4271 431.911 61.477 432.286L60.0927 433.474C60.0304 432.818 59.7872 432.419 59.3633 432.275C58.9518 432.124 58.4093 432.242 57.7359 432.631C57.474 432.782 57.2183 432.966 56.9689 433.182C56.732 433.376 56.52 433.592 56.3329 433.83C56.1458 434.068 55.9962 434.32 55.8839 434.586C55.7716 434.838 55.7155 435.094 55.7155 435.353Z" fill="black"/>
<g clip-path="url(#clip1_197_32165)">
<path fill-rule="evenodd" clip-rule="evenodd" d="M107.331 358.579L107.324 358.571C107.32 358.567 107.316 358.563 107.313 358.559L107.305 358.55C107.252 358.509 107.186 358.485 107.106 358.49C106.832 358.507 106.505 358.818 106.374 359.185C106.313 359.355 106.307 359.504 106.342 359.616C107.028 362.402 106.722 364.6 106.288 367.708C106.167 368.576 106.036 369.515 105.914 370.558C105.692 372.447 105.501 375.75 105.451 377.958L105.45 388.186L109.971 385.575L110.257 385.41L110.258 374.671L110.258 369.898C110.257 365.287 109.665 361.116 107.347 358.597C107.342 358.591 107.336 358.585 107.331 358.579ZM95.388 380.27L95.3869 380.272C95.2133 380.277 94.992 380.392 94.7553 380.724C94.7288 380.761 94.705 380.803 94.688 380.844C94.5265 381.219 94.5784 381.464 94.7256 381.561C97.9443 383.996 99.3387 386.034 99.9763 391.082C99.9937 391.222 100.113 391.267 100.255 391.185L103.798 389.139C103.953 389.05 104.08 388.842 104.08 388.676L104.081 375.792C104.081 375.127 103.943 374.549 103.68 374.098C101.821 370.915 99.9277 368.441 96.2037 368.147C96.1958 368.145 96.1874 368.145 96.1789 368.144L96.1666 368.144C96.1571 368.142 96.1476 368.141 96.1359 368.144C95.9623 368.148 95.7415 368.263 95.5048 368.595C95.4789 368.631 95.455 368.673 95.4381 368.713C95.2755 369.088 95.3269 369.335 95.4746 369.433C98.7066 371.876 99.7281 375.912 100.359 380.992C100.392 381.26 100.07 381.617 99.8822 381.518C98.5651 380.823 97.0769 380.403 95.4536 380.276C95.4458 380.274 95.4375 380.274 95.4293 380.273L95.4192 380.273L95.4072 380.271C95.4009 380.271 95.3945 380.27 95.388 380.27ZM126.525 362.293L126.527 362.294C126.7 362.098 126.921 361.958 127.158 362.017C127.184 362.023 127.208 362.038 127.226 362.058C127.387 362.247 127.335 362.552 127.187 362.82C123.968 368.971 122.573 372.62 121.935 378.404C121.917 378.565 121.799 378.747 121.657 378.829L118.113 380.875C117.958 380.964 117.832 380.902 117.832 380.736L117.833 367.852C117.833 367.187 117.97 366.45 118.233 365.696C120.094 360.365 121.987 355.705 125.711 351.111C125.719 351.101 125.727 351.091 125.735 351.081L125.749 351.064C125.758 351.052 125.768 351.04 125.779 351.029C125.953 350.833 126.173 350.693 126.41 350.752C126.437 350.758 126.46 350.772 126.477 350.792C126.639 350.98 126.588 351.286 126.44 351.555C123.207 357.73 122.186 362.946 121.554 368.755C121.522 369.06 121.843 369.046 122.03 368.731C123.348 366.515 124.837 364.376 126.46 362.374C126.468 362.362 126.478 362.351 126.487 362.34L126.494 362.331L126.507 362.315C126.513 362.308 126.519 362.3 126.525 362.293ZM111.698 369.063C111.698 369.064 111.698 369.066 111.698 369.067L111.697 373.84L111.697 384.579L111.982 384.414L116.504 381.803L116.505 371.576C116.455 369.425 116.264 366.344 116.043 364.71C115.921 363.81 115.79 363.024 115.669 362.297C115.236 359.687 114.93 357.843 115.618 354.262L115.616 354.262C115.651 354.109 115.645 353.967 115.585 353.868C115.453 353.652 115.125 353.719 114.853 354.017C114.771 354.106 114.706 354.206 114.655 354.308L114.653 354.308C114.649 354.316 114.646 354.324 114.642 354.332C114.64 354.338 114.637 354.344 114.635 354.35L114.633 354.354C114.625 354.371 114.618 354.387 114.611 354.403C112.293 359.598 111.699 364.455 111.698 369.061C111.698 369.062 111.698 369.062 111.698 369.063Z" fill="#31B900"/>
</g>
<path d="M86.294 418.389L92.1303 415.019L92.1297 422.277L90.6706 423.119L90.6708 421.305L90.4463 421.434C90.2343 422.19 89.8601 422.918 89.3238 423.616C88.7876 424.314 88.164 424.869 87.4532 425.279C86.044 426.093 84.9341 426.208 84.1236 425.625C83.3255 425.034 82.9266 423.731 82.9267 421.715L82.927 418.346C82.9271 416.387 83.3326 414.634 84.1432 413.086C84.9539 411.538 86.0826 410.346 87.5292 409.511C88.2774 409.079 88.9384 408.842 89.512 408.798C90.0856 408.741 90.5657 408.852 90.9523 409.133C91.3388 409.4 91.6319 409.814 91.8313 410.375C92.0308 410.922 92.1305 411.578 92.1305 412.341L92.1305 412.6L90.5591 413.507L90.5592 413.248C90.5592 412.758 90.4969 412.319 90.3722 411.93C90.26 411.534 90.0792 411.236 89.8298 411.034C89.5929 410.811 89.2811 410.71 88.8946 410.732C88.5205 410.732 88.0653 410.886 87.529 411.196C86.5189 411.779 85.7582 412.643 85.2468 413.788C84.7479 414.926 84.4984 416.186 84.4983 417.568L84.4981 420.678C84.498 422.162 84.7473 423.162 85.2461 423.681C85.7573 424.178 86.5305 424.127 87.5655 423.53C88.5008 422.99 89.2304 422.223 89.7542 421.229C90.2905 420.228 90.5587 419.109 90.5588 417.87L90.5588 417.611L86.2938 420.074L86.294 418.389ZM93.6327 410.696L96.9998 408.752L96.9997 410.177L97.2242 410.048C97.4612 409.321 97.7979 408.694 98.2344 408.169C98.6709 407.629 99.1698 407.197 99.731 406.873C100.666 406.333 101.421 406.25 101.994 406.624C102.568 406.999 102.873 407.852 102.911 409.184L101.377 410.329C101.377 409.335 101.171 408.741 100.76 408.547C100.348 408.338 99.8431 408.406 99.2445 408.752C98.8579 408.975 98.5212 409.256 98.2343 409.594C97.9599 409.925 97.7292 410.296 97.5421 410.707C97.3551 411.117 97.2178 411.549 97.1305 412.003C97.0432 412.456 96.9995 412.913 96.9995 413.374L96.9991 417.91L99.3561 416.549L99.356 418.105L93.4074 421.539L93.4076 419.984L95.5401 418.753L95.5406 411.149L93.6326 412.251L93.6327 410.696ZM111.596 409.224L111.371 409.353C111.072 410.246 110.654 411.02 110.118 411.675C109.594 412.323 109.039 412.817 108.453 413.155C107.842 413.508 107.274 413.72 106.751 413.792C106.227 413.85 105.765 413.763 105.366 413.533C104.98 413.281 104.674 412.881 104.45 412.334C104.226 411.787 104.113 411.067 104.113 410.174L104.113 409.829C104.114 408.95 104.226 408.108 104.45 407.301C104.675 406.495 104.98 405.75 105.367 405.066C105.766 404.36 106.228 403.734 106.751 403.187C107.275 402.639 107.83 402.197 108.416 401.858C109.052 401.491 109.626 401.325 110.137 401.361C110.661 401.376 111.072 401.635 111.372 402.139L111.596 402.009L111.596 400.325L113.055 399.482L113.055 407.993C113.055 408.425 113.223 408.543 113.56 408.349L114.027 408.079L114.027 409.634L113.036 410.207C112.612 410.451 112.263 410.495 111.988 410.336C111.727 410.171 111.596 409.843 111.596 409.353L111.596 409.224ZM108.603 411.47C109.039 411.218 109.438 410.894 109.8 410.498C110.174 410.095 110.492 409.645 110.754 409.148C111.016 408.651 111.222 408.122 111.371 407.561C111.521 406.985 111.596 406.401 111.596 405.811L111.596 405.552C111.596 404.976 111.521 404.493 111.372 404.105C111.222 403.701 111.01 403.406 110.736 403.219C110.474 403.025 110.156 402.942 109.782 402.971C109.42 402.978 109.027 403.104 108.603 403.349C108.167 403.601 107.768 403.925 107.406 404.321C107.044 404.717 106.726 405.167 106.452 405.671C106.19 406.153 105.984 406.682 105.835 407.258C105.685 407.82 105.61 408.389 105.61 408.965L105.61 409.31C105.61 410.534 105.884 411.333 106.433 411.708C106.994 412.061 107.717 411.981 108.603 411.47ZM117.494 399.684C117.494 400.202 117.681 400.49 118.055 400.548C118.442 400.598 119.14 400.375 120.15 399.878C121.235 399.353 122.058 399.18 122.62 399.36C123.193 399.518 123.48 400.073 123.48 401.023L123.48 401.153C123.48 401.671 123.386 402.193 123.199 402.719C123.025 403.223 122.775 403.712 122.451 404.188C122.139 404.656 121.752 405.095 121.291 405.505C120.842 405.923 120.349 406.286 119.813 406.596C119.09 407.014 118.466 407.266 117.943 407.352C117.431 407.417 117.001 407.37 116.652 407.212C116.315 407.032 116.06 406.762 115.885 406.402C115.711 406.027 115.611 405.61 115.586 405.149L116.97 403.961C117.032 404.746 117.307 405.25 117.793 405.473C118.279 405.682 118.928 405.552 119.738 405.084C120.424 404.688 120.973 404.22 121.385 403.68C121.809 403.118 122.021 402.557 122.021 401.995C122.021 401.39 121.815 401.077 121.404 401.056C120.992 401.034 120.325 401.254 119.402 401.714C118.33 402.247 117.507 402.434 116.933 402.276C116.359 402.118 116.073 401.57 116.073 400.634L116.073 400.505C116.073 400.001 116.166 399.508 116.353 399.025C116.54 398.528 116.79 398.06 117.102 397.621C117.426 397.175 117.788 396.772 118.187 396.412C118.586 396.052 119.003 395.746 119.44 395.494C120.051 395.141 120.587 394.932 121.049 394.867C121.51 394.788 121.897 394.817 122.208 394.954C122.52 395.076 122.757 395.292 122.919 395.602C123.094 395.904 123.206 396.242 123.256 396.617L121.871 397.805C121.809 397.15 121.566 396.75 121.142 396.606C120.731 396.455 120.188 396.574 119.515 396.962C119.253 397.114 118.997 397.297 118.748 397.513C118.511 397.708 118.299 397.924 118.112 398.161C117.925 398.399 117.775 398.651 117.663 398.917C117.55 399.169 117.494 399.425 117.494 399.684ZM128.2 393.503C128.2 394.022 128.387 394.31 128.761 394.367C129.148 394.418 129.846 394.194 130.856 393.698C131.941 393.172 132.764 392.999 133.325 393.179C133.899 393.338 134.186 393.892 134.185 394.842L134.185 394.972C134.185 395.49 134.092 396.012 133.905 396.538C133.73 397.042 133.481 397.532 133.156 398.007C132.845 398.475 132.458 398.914 131.997 399.324C131.548 399.742 131.055 400.106 130.519 400.415C129.796 400.833 129.172 401.085 128.648 401.171C128.137 401.236 127.707 401.189 127.358 401.031C127.021 400.851 126.765 400.581 126.591 400.221C126.416 399.846 126.316 399.429 126.292 398.968L127.676 397.78C127.738 398.565 128.012 399.069 128.499 399.292C128.985 399.501 129.634 399.371 130.444 398.903C131.13 398.507 131.679 398.039 132.09 397.499C132.514 396.938 132.726 396.376 132.726 395.814C132.726 395.21 132.521 394.896 132.109 394.875C131.698 394.853 131.03 395.073 130.108 395.534C129.035 396.066 128.212 396.254 127.639 396.095C127.065 395.937 126.778 395.39 126.778 394.454L126.778 394.324C126.778 393.82 126.872 393.327 127.059 392.844C127.246 392.348 127.495 391.88 127.807 391.44C128.131 390.994 128.493 390.591 128.892 390.231C129.291 389.871 129.709 389.565 130.146 389.313C130.757 388.96 131.293 388.751 131.754 388.686C132.216 388.607 132.602 388.636 132.914 388.773C133.226 388.895 133.463 389.111 133.625 389.421C133.799 389.723 133.911 390.062 133.961 390.436L132.577 391.624C132.515 390.969 132.272 390.569 131.848 390.425C131.436 390.274 130.894 390.393 130.22 390.782C129.958 390.933 129.703 391.116 129.453 391.332C129.216 391.527 129.004 391.743 128.817 391.98C128.63 392.218 128.481 392.47 128.368 392.736C128.256 392.988 128.2 393.244 128.2 393.503Z" fill="black"/>
<g clip-path="url(#clip2_197_32165)">
<path fill-rule="evenodd" clip-rule="evenodd" d="M182.332 312.184C182.471 311.782 182.869 311.552 183.009 311.793L190.424 324.64C193.306 329.633 189.113 339.886 182.668 343.607C176.222 347.328 172.03 341.916 174.914 333.595L182.332 312.184Z" fill="#284981"/>
</g>
<path d="M164.225 380.653L161.363 382.305L160.148 368.665L159.924 368.795L158.707 383.839L155.845 385.491L154.518 371.138L155.939 370.317L157.192 383.936L157.416 383.807L158.596 368.784L161.477 367.121L162.654 380.783L162.878 380.653L164.133 365.587L165.554 364.766L164.225 380.653ZM173.378 373.554L173.154 373.684C172.854 374.576 172.437 375.35 171.9 376.006C171.377 376.654 170.822 377.147 170.236 377.485C169.624 377.838 169.057 378.05 168.533 378.122C168.01 378.18 167.548 378.094 167.149 377.863C166.763 377.611 166.457 377.212 166.233 376.664C166.008 376.117 165.896 375.397 165.896 374.504L165.896 374.159C165.896 373.28 166.009 372.438 166.233 371.632C166.458 370.825 166.763 370.08 167.15 369.396C167.549 368.69 168.01 368.064 168.534 367.517C169.058 366.97 169.613 366.527 170.199 366.188C170.835 365.821 171.409 365.656 171.92 365.692C172.444 365.706 172.855 365.965 173.154 366.469L173.379 366.34L173.379 364.655L174.838 363.812L174.837 372.323C174.837 372.755 175.006 372.874 175.342 372.679L175.81 372.409L175.81 373.964L174.819 374.537C174.395 374.782 174.045 374.825 173.771 374.666C173.509 374.501 173.378 374.173 173.378 373.684L173.378 373.554ZM170.385 375.8C170.822 375.548 171.221 375.224 171.583 374.828C171.957 374.425 172.275 373.975 172.537 373.478C172.798 372.982 173.004 372.452 173.154 371.891C173.304 371.315 173.379 370.732 173.379 370.141L173.379 369.882C173.379 369.306 173.304 368.824 173.154 368.435C173.005 368.032 172.793 367.736 172.518 367.549C172.256 367.355 171.938 367.272 171.564 367.301C171.203 367.308 170.81 367.434 170.386 367.679C169.949 367.931 169.55 368.255 169.189 368.651C168.827 369.047 168.509 369.497 168.235 370.001C167.973 370.483 167.767 371.012 167.617 371.588C167.468 372.15 167.393 372.719 167.393 373.295L167.393 373.64C167.393 374.864 167.667 375.664 168.215 376.038C168.777 376.391 169.5 376.312 170.385 375.8ZM177.032 362.546L179.951 360.861L179.951 356.454L181.41 355.612L181.41 360.018L185.001 357.945L185.001 359.5L181.41 361.574L181.409 368.529C181.409 368.961 181.577 369.08 181.914 368.885L184.552 367.362L184.551 368.918L181.39 370.743C180.966 370.988 180.617 371.031 180.343 370.872C180.081 370.707 179.95 370.379 179.95 369.89L179.95 362.416L177.032 364.101L177.032 362.546ZM189.122 361.441C189.159 362.485 189.446 363.176 189.982 363.514C190.518 363.853 191.267 363.745 192.227 363.19C192.663 362.938 193.044 362.661 193.368 362.359C193.692 362.056 193.966 361.739 194.191 361.408C194.428 361.07 194.615 360.731 194.752 360.393C194.902 360.033 195.02 359.677 195.108 359.324L196.492 358.957C196.23 360.101 195.744 361.196 195.033 362.24C194.334 363.262 193.386 364.119 192.189 364.81C191.528 365.192 190.917 365.415 190.356 365.48C189.807 365.523 189.334 365.415 188.934 365.156C188.535 364.897 188.224 364.493 187.999 363.946C187.775 363.399 187.663 362.715 187.663 361.894L187.663 361.376C187.663 360.627 187.775 359.864 188 359.086C188.237 358.301 188.561 357.56 188.973 356.861C189.384 356.149 189.864 355.504 190.413 354.928C190.974 354.331 191.579 353.845 192.228 353.47C192.988 353.031 193.643 352.819 194.192 352.833C194.753 352.826 195.208 352.959 195.557 353.233C195.919 353.499 196.181 353.866 196.343 354.334C196.517 354.795 196.604 355.263 196.604 355.738L196.604 357.121L189.122 361.441ZM192.227 355.069C191.816 355.306 191.429 355.609 191.068 355.976C190.718 356.321 190.407 356.71 190.132 357.142C189.87 357.567 189.652 358.017 189.477 358.492C189.315 358.946 189.209 359.403 189.159 359.864L195.145 356.408C195.12 355.961 195.021 355.601 194.846 355.328C194.684 355.047 194.466 354.856 194.191 354.755C193.93 354.647 193.624 354.622 193.275 354.68C192.938 354.73 192.589 354.86 192.227 355.069ZM198.238 350.303L201.605 348.359L201.605 349.784L201.829 349.655C202.066 348.927 202.403 348.301 202.84 347.775C203.276 347.235 203.775 346.803 204.336 346.479C205.271 345.939 206.026 345.857 206.599 346.231C207.173 346.605 207.479 347.459 207.516 348.791L205.982 349.935C205.982 348.942 205.776 348.348 205.365 348.153C204.953 347.945 204.448 348.013 203.85 348.359C203.463 348.582 203.126 348.863 202.839 349.201C202.565 349.532 202.334 349.903 202.147 350.313C201.96 350.724 201.823 351.156 201.736 351.609C201.648 352.063 201.605 352.52 201.605 352.981L201.604 357.517L203.961 356.156L203.961 357.711L198.013 361.146L198.013 359.591L200.145 358.359L200.146 350.756L198.238 351.858L198.238 350.303Z" fill="black"/>
<g clip-path="url(#clip3_197_32165)">
<path fill-rule="evenodd" clip-rule="evenodd" d="M251.939 276.133C251.632 275.72 250.887 276.16 250.593 276.93L238.659 308.133C238.365 308.903 238.74 309.43 239.337 309.085L252.092 301.721L263.903 294.902C263.903 294.902 263.903 294.902 263.903 294.902L270.918 290.852C271.524 290.502 271.898 289.523 271.586 289.103L263.519 278.234C263.24 277.858 262.582 278.186 262.242 278.872L258.934 285.557L251.939 276.133Z" fill="#B0B0B1"/>
</g>
<path d="M227.918 334.635C227.919 332.676 228.324 330.923 229.135 329.375C229.945 327.827 231.074 326.635 232.521 325.8C233.967 324.965 235.096 324.853 235.906 325.465C236.717 326.077 237.122 327.363 237.122 329.321L237.122 332.691C237.121 334.707 236.716 336.474 235.905 337.993C235.095 339.513 233.966 340.69 232.519 341.525C231.073 342.36 229.944 342.486 229.134 341.903C228.323 341.32 227.918 340.02 227.918 338.004L227.918 334.635ZM232.519 339.84C233.53 339.257 234.284 338.425 234.783 337.345C235.294 336.244 235.55 334.951 235.55 333.468L235.55 330.358C235.551 328.975 235.295 328.007 234.784 327.453C234.285 326.891 233.531 326.902 232.52 327.485C231.51 328.068 230.75 328.932 230.238 330.077C229.739 331.215 229.49 332.475 229.49 333.857L229.489 336.967C229.489 338.451 229.739 339.451 230.237 339.97C230.749 340.467 231.509 340.423 232.519 339.84ZM238.811 326.877L241.729 325.192L241.73 320.786L243.189 319.943L243.188 324.35L246.78 322.276L246.78 323.831L243.188 325.905L243.188 332.86C243.188 333.292 243.356 333.411 243.693 333.216L246.33 331.694L246.33 333.249L243.169 335.074C242.745 335.319 242.396 335.362 242.121 335.204C241.86 335.038 241.729 334.71 241.729 334.221L241.729 326.747L238.811 328.432L238.811 326.877ZM251.293 330.384L249.834 331.226L249.835 316.106L251.294 315.264L251.294 321.614L251.518 321.484C251.805 320.628 252.204 319.85 252.715 319.152C253.239 318.446 253.875 317.877 254.624 317.445C255.634 316.862 256.451 316.779 257.074 317.197C257.71 317.593 258.028 318.561 258.028 320.102L258.027 326.496L256.568 327.338L256.569 321.29C256.569 320.167 256.351 319.45 255.914 319.141C255.478 318.831 254.885 318.892 254.137 319.324C253.252 319.836 252.553 320.592 252.042 321.592C251.543 322.572 251.294 323.644 251.293 324.811L251.293 330.384ZM261.606 319.591C261.644 320.635 261.93 321.326 262.466 321.665C263.003 322.003 263.751 321.895 264.711 321.341C265.148 321.089 265.528 320.811 265.852 320.509C266.176 320.207 266.451 319.89 266.675 319.559C266.912 319.22 267.099 318.882 267.237 318.543C267.386 318.183 267.505 317.827 267.592 317.474L268.976 317.107C268.714 318.252 268.228 319.346 267.517 320.39C266.819 321.413 265.871 322.269 264.674 322.961C264.013 323.342 263.402 323.565 262.84 323.63C262.292 323.673 261.818 323.565 261.419 323.306C261.02 323.047 260.708 322.644 260.484 322.097C260.259 321.549 260.147 320.865 260.147 320.045L260.147 319.526C260.147 318.777 260.26 318.014 260.484 317.237C260.721 316.452 261.045 315.71 261.457 315.012C261.868 314.299 262.349 313.655 262.897 313.079C263.459 312.481 264.063 311.995 264.712 311.621C265.473 311.181 266.127 310.969 266.676 310.983C267.237 310.976 267.692 311.109 268.041 311.383C268.403 311.649 268.665 312.017 268.827 312.485C269.002 312.945 269.089 313.413 269.089 313.889L269.089 315.271L261.606 319.591ZM264.712 313.219C264.3 313.457 263.914 313.759 263.552 314.126C263.203 314.472 262.891 314.861 262.617 315.293C262.355 315.717 262.136 316.167 261.962 316.643C261.8 317.096 261.694 317.553 261.644 318.014L267.63 314.558C267.605 314.112 267.505 313.752 267.33 313.478C267.168 313.197 266.95 313.007 266.676 312.906C266.414 312.798 266.108 312.773 265.759 312.83C265.423 312.881 265.073 313.01 264.712 313.219ZM270.722 308.453L274.089 306.509L274.089 307.935L274.314 307.805C274.551 307.078 274.887 306.451 275.324 305.926C275.76 305.386 276.259 304.954 276.82 304.63C277.756 304.09 278.51 304.007 279.084 304.381C279.657 304.756 279.963 305.609 280 306.941L278.466 308.086C278.466 307.092 278.261 306.498 277.849 306.304C277.438 306.095 276.933 306.163 276.334 306.509C275.947 306.732 275.611 307.013 275.324 307.351C275.049 307.683 274.819 308.053 274.632 308.464C274.445 308.874 274.307 309.306 274.22 309.76C274.133 310.213 274.089 310.671 274.089 311.131L274.089 315.667L276.446 314.307L276.446 315.862L270.497 319.296L270.497 317.741L272.63 316.51L272.63 308.907L270.722 310.008L270.722 308.453Z" fill="black"/>
<defs>
<clipPath id="clip0_197_32165">
<rect width="43.2" height="43.2" fill="white" transform="matrix(0.866025 -0.5 -7.53505e-05 1 17.9141 400.927)"/>
</clipPath>
<clipPath id="clip1_197_32165">
<rect width="43.2" height="43.2" fill="white" transform="matrix(0.866025 -0.5 -7.53505e-05 1 90.3984 359.077)"/>
</clipPath>
<clipPath id="clip2_197_32165">
<rect width="43.2" height="43.2" fill="white" transform="matrix(0.866025 -0.5 -7.53505e-05 1 162.887 317.227)"/>
</clipPath>
<clipPath id="clip3_197_32165">
<rect width="43.2" height="43.2" fill="white" transform="matrix(0.866025 -0.5 -7.53505e-05 1 235.371 275.377)"/>
</clipPath>
</defs>
</svg>
