<svg width="313" height="420" viewBox="0 0 313 420" fill="none" xmlns="http://www.w3.org/2000/svg">
<rect width="324" height="43.2" transform="matrix(0.866026 -0.5 -7.54617e-05 1 0.398438 180.645)" fill="url(#paint0_linear_197_32192)"/>
<circle cx="7.2" cy="7.2" r="9" transform="matrix(0.866026 -0.5 -7.54617e-05 1 22.2305 183.345)" fill="#C1CCAC" stroke="white" stroke-width="3.6"/>
<path d="M2.66971 239.531L9.8404 235.391C12.5424 233.831 14.5169 233.435 15.7638 234.203C17.0108 234.971 17.6342 236.987 17.6339 240.251L17.6334 246.731C17.6332 249.995 17.0095 252.731 15.7623 254.939C14.5151 257.147 12.5405 259.031 9.8385 260.591L2.66781 264.731L2.66802 261.887L4.53863 260.807L4.54011 241.259L2.6695 242.339L2.66971 239.531ZM9.46459 257.999C10.4207 257.447 11.2417 256.865 11.9276 256.253C12.6343 255.629 13.2163 254.933 13.6736 254.165C14.1309 253.373 14.4635 252.485 14.6714 251.501C14.9001 250.505 15.0145 249.347 15.0146 248.027L15.015 241.979C15.0151 240.659 14.9009 239.633 14.6723 238.901C14.4646 238.157 14.1321 237.665 13.6748 237.425C13.2176 237.161 12.6357 237.125 11.929 237.317C11.2431 237.497 10.4222 237.863 9.46606 238.415L7.15897 239.747L7.15749 259.331L9.46459 257.999ZM25.75 228.221C25.75 227.525 25.9579 226.817 26.3736 226.097C26.8102 225.341 27.3298 224.789 27.9325 224.441C28.5353 224.093 29.0445 224.051 29.4602 224.315C29.8966 224.543 30.1148 225.005 30.1147 225.701C30.1147 226.397 29.8964 227.123 29.4599 227.879C29.0442 228.599 28.5349 229.133 27.9322 229.481C27.3294 229.829 26.8098 229.889 26.3734 229.661C25.9577 229.397 25.7499 228.917 25.75 228.221ZM21.3213 251.369L26.7461 248.237L26.747 235.565L21.8834 238.373L21.8836 235.781L29.179 231.569L29.1779 246.833L34.2285 243.917L34.2283 246.509L21.3211 253.961L21.3213 251.369ZM42.0019 228.774C42.0018 229.638 42.3136 230.118 42.9371 230.214C43.5813 230.298 44.7453 229.926 46.4288 229.098C48.2371 228.222 49.6088 227.934 50.544 228.234C51.5001 228.498 51.978 229.422 51.9779 231.006L51.9779 231.222C51.9778 232.086 51.8219 232.956 51.5101 233.832C51.219 234.672 50.8033 235.488 50.2629 236.28C49.7432 237.06 49.0989 237.792 48.3298 238.476C47.5815 239.172 46.7605 239.778 45.8668 240.294C44.6613 240.99 43.6221 241.41 42.7491 241.554C41.897 241.662 41.18 241.584 40.598 241.32C40.0369 241.02 39.6109 240.57 39.32 239.97C39.029 239.346 38.8628 238.65 38.8213 237.882L41.1284 235.902C41.2323 237.21 41.6894 238.05 42.5 238.422C43.3105 238.77 44.3913 238.554 45.7423 237.774C46.8854 237.114 47.8 236.334 48.4859 235.434C49.1926 234.498 49.546 233.562 49.5461 232.626C49.5462 231.618 49.2033 231.096 48.5174 231.06C47.8316 231.024 46.7196 231.39 45.1815 232.158C43.3941 233.046 42.0223 233.358 41.0663 233.094C40.1103 232.83 39.6323 231.918 39.6324 230.358L39.6325 230.142C39.6325 229.302 39.7885 228.48 40.1003 227.676C40.4121 226.848 40.8278 226.068 41.3475 225.336C41.8879 224.592 42.4907 223.92 43.1558 223.32C43.8209 222.72 44.5172 222.21 45.2447 221.79C46.2631 221.202 47.1569 220.854 47.9259 220.746C48.6949 220.614 49.3392 220.662 49.8587 220.89C50.3783 221.094 50.7732 221.454 51.0433 221.97C51.3343 222.474 51.5213 223.038 51.6044 223.662L49.2972 225.642C49.1934 224.55 48.7881 223.884 48.0815 223.644C47.3957 223.392 46.4916 223.59 45.3692 224.238C44.9327 224.49 44.5066 224.796 44.0909 225.156C43.696 225.48 43.3427 225.84 43.0309 226.236C42.7191 226.632 42.4697 227.052 42.2826 227.496C42.0955 227.916 42.0019 228.342 42.0019 228.774ZM56.1037 216.024L60.9673 213.216L60.9679 205.872L63.3997 204.468L63.3991 211.812L69.3851 208.356L69.3849 210.948L63.3989 214.404L63.398 225.996C63.398 226.716 63.6786 226.914 64.2397 226.59L68.6357 224.052L68.6355 226.644L63.3666 229.686C62.6599 230.094 62.078 230.166 61.6207 229.902C61.1843 229.626 60.9661 229.08 60.9662 228.264L60.9671 215.808L56.1035 218.616L56.1037 216.024ZM73.6035 205.921L79.2153 202.681L79.2151 205.057L79.5892 204.841C79.9842 203.629 80.5455 202.585 81.273 201.709C82.0005 200.809 82.8319 200.089 83.7672 199.549C85.326 198.649 86.5834 198.511 87.5394 199.135C88.4955 199.759 89.0045 201.181 89.0667 203.401L86.5102 205.309C86.5103 203.653 86.1675 202.663 85.4816 202.339C84.7958 201.991 83.954 202.105 82.9564 202.681C82.312 203.053 81.7509 203.521 81.2728 204.085C80.8155 204.637 80.431 205.255 80.1192 205.939C79.8073 206.623 79.5787 207.343 79.4331 208.099C79.2876 208.855 79.2148 209.617 79.2147 210.385L79.2142 217.945L83.1424 215.677L83.1422 218.269L73.228 223.993L73.2282 221.401L76.7824 219.349L76.7833 206.677L73.6033 208.513L73.6035 205.921ZM97.1208 187.015C97.1208 186.319 97.3287 185.611 97.7444 184.891C98.1809 184.135 98.7006 183.583 99.3033 183.235C99.9061 182.887 100.415 182.845 100.831 183.109C101.267 183.337 101.486 183.799 101.486 184.495C101.485 185.191 101.267 185.917 100.831 186.673C100.415 187.393 99.9057 187.927 99.303 188.275C98.7002 188.623 98.1806 188.683 97.7442 188.455C97.3285 188.191 97.1207 187.711 97.1208 187.015ZM92.6921 210.163L98.1169 207.031L98.1178 194.359L93.2542 197.167L93.2544 194.575L100.55 190.363L100.549 205.627L105.599 202.711L105.599 205.303L92.6919 212.755L92.6921 210.163ZM112.031 201.59L109.599 202.994L109.601 177.794L112.033 176.39L112.032 186.542L112.406 186.326C112.947 184.934 113.695 183.686 114.651 182.582C115.607 181.454 116.647 180.566 117.769 179.918C118.725 179.366 119.629 179.048 120.481 178.964C121.333 178.88 122.082 179.036 122.726 179.432C123.391 179.816 123.911 180.464 124.285 181.376C124.679 182.276 124.877 183.446 124.877 184.886L124.877 185.606C124.877 187.07 124.689 188.474 124.315 189.818C123.941 191.162 123.421 192.41 122.756 193.562C122.112 194.702 121.353 195.728 120.48 196.64C119.607 197.528 118.682 198.254 117.705 198.818C117.206 199.106 116.697 199.328 116.178 199.484C115.658 199.664 115.159 199.76 114.681 199.772C114.224 199.748 113.798 199.658 113.403 199.502C113.008 199.322 112.676 199.034 112.405 198.638L112.031 198.854L112.031 201.59ZM117.207 196.442C117.955 196.01 118.641 195.47 119.264 194.822C119.888 194.15 120.428 193.406 120.886 192.59C121.364 191.762 121.727 190.88 121.977 189.944C122.247 188.996 122.382 188.03 122.382 187.046L122.383 186.326C122.383 185.366 122.248 184.58 121.977 183.968C121.728 183.32 121.364 182.858 120.886 182.582C120.429 182.27 119.878 182.144 119.234 182.204C118.611 182.252 117.935 182.486 117.208 182.906C116.48 183.326 115.805 183.884 115.181 184.58C114.558 185.252 114.007 186.014 113.529 186.866C113.071 187.706 112.708 188.612 112.437 189.584C112.167 190.532 112.032 191.486 112.032 192.446L112.032 192.878C112.032 193.862 112.167 194.684 112.437 195.344C112.707 195.98 113.071 196.454 113.528 196.766C114.006 197.066 114.557 197.192 115.18 197.144C115.804 197.096 116.479 196.862 117.207 196.442ZM139.041 168.141L141.473 166.737L141.472 184.593L139.04 185.997L139.04 182.757L138.666 182.973C138.167 184.413 137.512 185.703 136.702 186.843C135.891 187.983 134.862 188.913 133.615 189.633C132.763 190.125 131.973 190.413 131.246 190.497C130.539 190.593 129.926 190.467 129.406 190.119C128.907 189.759 128.513 189.183 128.222 188.391C127.952 187.587 127.817 186.549 127.817 185.277L127.817 174.621L130.249 173.217L130.248 183.513C130.248 185.385 130.581 186.561 131.246 187.041C131.911 187.521 132.929 187.365 134.301 186.573C135.777 185.721 136.93 184.479 137.762 182.847C138.614 181.179 139.04 179.373 139.04 177.429L139.041 168.141ZM145.317 164.517L150.181 161.709L150.181 154.365L152.613 152.961L152.613 160.305L158.599 156.849L158.598 159.441L152.612 162.897L152.612 174.489C152.611 175.209 152.892 175.407 153.453 175.083L157.849 172.545L157.849 175.137L152.58 178.179C151.873 178.587 151.291 178.659 150.834 178.395C150.398 178.119 150.18 177.573 150.18 176.757L150.181 164.301L145.317 167.109L145.317 164.517ZM168.492 145.81C168.492 145.114 168.699 144.406 169.115 143.686C169.552 142.93 170.071 142.378 170.674 142.03C171.277 141.682 171.786 141.64 172.202 141.904C172.638 142.132 172.856 142.594 172.856 143.29C172.856 143.986 172.638 144.712 172.201 145.468C171.786 146.188 171.276 146.722 170.674 147.07C170.071 147.418 169.551 147.478 169.115 147.25C168.699 146.986 168.491 146.506 168.492 145.81ZM164.063 168.958L169.488 165.826L169.489 153.154L164.625 155.962L164.625 153.37L171.921 149.158L171.919 164.422L176.97 161.506L176.97 164.098L164.063 171.55L164.063 168.958ZM196.123 144.328C196.123 145.816 195.904 147.262 195.468 148.666C195.052 150.034 194.491 151.318 193.784 152.518C193.077 153.694 192.246 154.762 191.29 155.722C190.354 156.67 189.377 157.438 188.359 158.026C187.32 158.626 186.332 158.992 185.397 159.124C184.462 159.256 183.641 159.142 182.934 158.782C182.228 158.398 181.656 157.768 181.22 156.892C180.804 155.98 180.596 154.78 180.597 153.292L180.597 152.86C180.597 151.396 180.805 149.98 181.22 148.612C181.657 147.208 182.229 145.906 182.935 144.706C183.663 143.494 184.494 142.414 185.43 141.466C186.365 140.518 187.342 139.75 188.36 139.162C189.379 138.574 190.356 138.214 191.291 138.082C192.226 137.95 193.047 138.076 193.754 138.46C194.481 138.832 195.053 139.474 195.468 140.386C195.905 141.262 196.123 142.432 196.123 143.896L196.123 144.328ZM188.359 155.362C189.107 154.93 189.793 154.39 190.417 153.742C191.061 153.058 191.622 152.29 192.101 151.438C192.579 150.586 192.953 149.686 193.223 148.738C193.493 147.766 193.628 146.776 193.629 145.768L193.629 145.336C193.629 144.376 193.494 143.578 193.223 142.942C192.953 142.282 192.579 141.802 192.101 141.502C191.623 141.202 191.062 141.082 190.418 141.142C189.774 141.178 189.088 141.406 188.36 141.826C187.633 142.246 186.947 142.81 186.302 143.518C185.658 144.202 185.097 144.97 184.619 145.822C184.141 146.674 183.767 147.586 183.496 148.558C183.226 149.506 183.091 150.46 183.091 151.42L183.091 151.852C183.091 152.86 183.226 153.694 183.496 154.354C183.766 154.99 184.14 155.458 184.618 155.758C185.096 156.058 185.647 156.184 186.27 156.136C186.915 156.052 187.611 155.794 188.359 155.362ZM201.806 149.759L199.374 151.163L199.375 133.307L201.807 131.903L201.807 134.927L202.181 134.711C203.137 131.807 204.8 129.671 207.17 128.303C208.957 127.271 210.381 127.097 211.441 127.781C212.501 128.441 213.03 130.055 213.03 132.623L213.029 143.279L210.598 144.683L210.598 134.603C210.599 132.731 210.235 131.537 209.508 131.021C208.78 130.505 207.793 130.607 206.546 131.327C205.07 132.179 203.906 133.439 203.054 135.107C202.222 136.739 201.807 138.527 201.806 140.471L201.806 149.759ZM249.651 113.424C249.651 114.912 249.432 116.358 248.996 117.762C248.58 119.13 248.019 120.414 247.312 121.614C246.605 122.79 245.774 123.858 244.818 124.818C243.882 125.766 242.905 126.534 241.887 127.122C240.848 127.722 239.861 128.088 238.925 128.22C237.99 128.352 237.169 128.238 236.462 127.878C235.756 127.494 235.184 126.864 234.748 125.988C234.332 125.076 234.125 123.876 234.125 122.388L234.125 121.956C234.125 120.492 234.333 119.076 234.749 117.708C235.185 116.304 235.757 115.002 236.463 113.802C237.191 112.59 238.022 111.51 238.958 110.562C239.893 109.614 240.87 108.846 241.888 108.258C242.907 107.67 243.884 107.31 244.819 107.178C245.754 107.046 246.575 107.172 247.282 107.556C248.009 107.928 248.581 108.57 248.996 109.482C249.433 110.358 249.651 111.528 249.651 112.992L249.651 113.424ZM241.887 124.458C242.635 124.026 243.321 123.486 243.945 122.838C244.589 122.154 245.151 121.386 245.629 120.534C246.107 119.682 246.481 118.782 246.751 117.834C247.021 116.862 247.157 115.872 247.157 114.864L247.157 114.432C247.157 113.472 247.022 112.674 246.752 112.038C246.481 111.378 246.107 110.898 245.629 110.598C245.151 110.298 244.59 110.178 243.946 110.238C243.302 110.274 242.616 110.502 241.888 110.922C241.161 111.342 240.475 111.906 239.831 112.614C239.186 113.298 238.625 114.066 238.147 114.918C237.669 115.77 237.295 116.682 237.024 117.654C236.754 118.602 236.619 119.556 236.619 120.516L236.619 120.948C236.619 121.956 236.754 122.79 237.024 123.45C237.294 124.086 237.668 124.554 238.146 124.854C238.624 125.154 239.175 125.28 239.798 125.232C240.443 125.148 241.139 124.89 241.887 124.458ZM252.747 102.492L257.518 99.7381L257.518 95.2021C257.518 94.3861 257.736 93.5881 258.173 92.8081C258.63 92.0161 259.212 91.4161 259.919 91.0081L266.029 87.4801L266.029 90.0721L260.791 93.0961C260.23 93.4201 259.95 93.9421 259.95 94.6621L259.949 98.3341L266.403 94.6081L266.403 97.2001L259.949 100.926L259.948 116.19L257.516 117.594L257.517 102.33L252.747 105.084L252.747 102.492ZM14.139 283.251L16.5708 281.847L16.5695 299.703L14.1377 301.107L14.1379 297.867L13.7638 298.083C13.2649 299.523 12.6101 300.813 11.7994 301.953C10.9888 303.093 9.95992 304.023 8.71284 304.743C7.86068 305.235 7.07087 305.523 6.34344 305.607C5.63678 305.703 5.02367 305.577 4.50411 305.229C4.00533 304.869 3.61048 304.293 3.31957 303.501C3.04944 302.697 2.91442 301.659 2.91452 300.387L2.91532 289.731L5.34712 288.327L5.34635 298.623C5.3462 300.495 5.67866 301.671 6.3437 302.151C7.00874 302.631 8.02715 302.475 9.39894 301.683C10.8746 300.831 12.0282 299.589 12.8597 297.957C13.712 296.289 14.1382 294.483 14.1383 292.539L14.139 283.251ZM20.0721 279.825L25.684 276.585L25.6838 278.961L26.0579 278.745C26.4529 277.533 27.0141 276.489 27.7416 275.613C28.4691 274.713 29.3005 273.993 30.2358 273.453C31.7947 272.553 33.0521 272.415 34.0081 273.039C34.9641 273.663 35.4732 275.085 35.5354 277.305L32.9789 279.213C32.979 277.557 32.6361 276.567 31.9503 276.243C31.2644 275.895 30.4227 276.009 29.425 276.585C28.7807 276.957 28.2195 277.425 27.7415 277.989C27.2842 278.541 26.8996 279.159 26.5878 279.843C26.276 280.527 26.0473 281.247 25.9018 282.003C25.7562 282.759 25.6834 283.521 25.6834 284.289L25.6828 291.849L29.6111 289.581L29.6109 292.173L19.6967 297.897L19.6969 295.305L23.251 293.253L23.252 280.581L20.0719 282.417L20.0721 279.825ZM40.657 285.796L38.2252 287.2L38.2271 262L40.6589 260.596L40.6582 270.748L41.0323 270.532C41.5728 269.14 42.3211 267.892 43.2772 266.788C44.2334 265.66 45.2726 264.772 46.395 264.124C47.3511 263.572 48.2552 263.254 49.1073 263.17C49.9595 263.086 50.7077 263.242 51.3519 263.638C52.017 264.022 52.5365 264.67 52.9106 265.582C53.3054 266.482 53.5027 267.652 53.5026 269.092L53.5026 269.812C53.5025 271.276 53.3153 272.68 52.9411 274.024C52.5669 275.368 52.0472 276.616 51.382 277.768C50.7377 278.908 49.979 279.934 49.106 280.846C48.233 281.734 47.3081 282.46 46.3312 283.024C45.8324 283.312 45.3232 283.534 44.8036 283.69C44.2839 283.87 43.7851 283.966 43.3071 283.978C42.8499 283.954 42.4238 283.864 42.0289 283.708C41.634 283.528 41.3015 283.24 41.0314 282.844L40.6573 283.06L40.657 285.796ZM45.8326 280.648C46.5808 280.216 47.2667 279.676 47.8903 279.028C48.5138 278.356 49.0543 277.612 49.5116 276.796C49.9897 275.968 50.3535 275.086 50.6029 274.15C50.8732 273.202 51.0084 272.236 51.0084 271.252L51.0085 270.532C51.0086 269.572 50.8735 268.786 50.6034 268.174C50.354 267.526 49.9903 267.064 49.5123 266.788C49.0551 266.476 48.5044 266.35 47.8601 266.41C47.2365 266.458 46.5611 266.692 45.8336 267.112C45.1061 267.532 44.4306 268.09 43.8071 268.786C43.1835 269.458 42.6327 270.22 42.1546 271.072C41.6973 271.912 41.3335 272.818 41.0632 273.79C40.793 274.738 40.6578 275.692 40.6577 276.652L40.6577 277.084C40.6576 278.068 40.7927 278.89 41.0628 279.55C41.3329 280.186 41.6966 280.66 42.1538 280.972C42.6318 281.272 43.1826 281.398 43.8061 281.35C44.4296 281.302 45.1051 281.068 45.8326 280.648ZM67.853 267.07L67.4789 267.286C66.98 268.774 66.2837 270.064 65.3899 271.156C64.5169 272.236 63.5919 273.058 62.6151 273.622C61.5966 274.21 60.6509 274.564 59.778 274.684C58.9051 274.78 58.1361 274.636 57.471 274.252C56.8268 273.832 56.3176 273.166 55.9436 272.254C55.5696 271.342 55.3826 270.142 55.3827 268.654L55.3827 268.078C55.3829 266.614 55.57 265.21 55.9442 263.866C56.3184 262.522 56.8277 261.28 57.4721 260.14C58.1373 258.964 58.9064 257.92 59.7793 257.008C60.6523 256.096 61.5773 255.358 62.5541 254.794C63.6141 254.182 64.5702 253.906 65.4223 253.966C66.2953 253.99 66.9811 254.422 67.4798 255.262L67.854 255.046L67.8542 252.238L70.286 250.834L70.2849 265.018C70.2848 265.738 70.5654 265.936 71.1266 265.612L71.906 265.162L71.9058 267.754L70.2534 268.708C69.5468 269.116 68.9648 269.188 68.5076 268.924C68.0712 268.648 67.853 268.102 67.853 267.286L67.853 267.07ZM62.8647 270.814C63.5921 270.394 64.2573 269.854 64.86 269.194C65.4836 268.522 66.0136 267.772 66.4502 266.944C66.8867 266.116 67.2297 265.234 67.4791 264.298C67.7286 263.338 67.8534 262.366 67.8535 261.382L67.8535 260.95C67.8536 259.99 67.7289 259.186 67.4796 258.538C67.2302 257.866 66.8769 257.374 66.4197 257.062C65.9833 256.738 65.4533 256.6 64.8298 256.648C64.2271 256.66 63.5724 256.87 62.8657 257.278C62.1382 257.698 61.4731 258.238 60.8703 258.898C60.2676 259.558 59.7375 260.308 59.2802 261.148C58.8437 261.952 58.5007 262.834 58.2512 263.794C58.0017 264.73 57.877 265.678 57.8769 266.638L57.8769 267.214C57.8767 269.254 58.3338 270.586 59.2483 271.21C60.1835 271.798 61.389 271.666 62.8647 270.814ZM76.9036 264.869L74.4718 266.273L74.4732 248.417L76.905 247.013L76.9047 250.037L77.2789 249.821C78.2351 246.917 79.898 244.781 82.2674 243.413C84.0549 242.381 85.4786 242.207 86.5385 242.891C87.5984 243.551 88.1283 245.165 88.1281 247.733L88.1273 258.389L85.6955 259.793L85.6963 249.713C85.6964 247.841 85.3328 246.647 84.6054 246.131C83.878 245.615 82.8908 245.717 81.6437 246.437C80.168 247.289 79.004 248.549 78.1517 250.217C77.3203 251.849 76.9045 253.637 76.9043 255.581L76.9036 264.869ZM121.911 236.148L121.537 236.364C121.038 237.732 120.352 238.944 119.479 240C118.627 241.02 117.692 241.824 116.673 242.412C115.634 243.012 114.657 243.372 113.743 243.492C112.828 243.612 112.018 243.492 111.311 243.132C110.625 242.76 110.074 242.13 109.659 241.242C109.264 240.318 109.067 239.124 109.067 237.66L109.067 237.084C109.067 235.644 109.275 234.24 109.691 232.872C110.106 231.48 110.657 230.202 111.343 229.038C112.029 227.85 112.829 226.788 113.744 225.852C114.658 224.916 115.615 224.16 116.612 223.584C117.735 222.936 118.711 222.66 119.543 222.756C120.395 222.816 121.06 223.248 121.538 224.052L121.912 223.836L121.912 221.028L124.344 219.624L124.342 241.872C124.342 242.688 124.114 243.492 123.656 244.284C123.22 245.064 122.648 245.658 121.942 246.066L111.871 251.88L111.872 249.288L121.069 243.978C121.63 243.654 121.911 243.132 121.911 242.412L121.911 236.148ZM116.736 239.712C117.463 239.292 118.139 238.746 118.762 238.074C119.386 237.402 119.926 236.646 120.384 235.806C120.862 234.954 121.236 234.054 121.506 233.106C121.776 232.134 121.911 231.156 121.912 230.172L121.912 229.74C121.912 228.78 121.777 227.982 121.507 227.346C121.236 226.686 120.862 226.206 120.384 225.906C119.927 225.594 119.376 225.468 118.732 225.528C118.109 225.552 117.443 225.768 116.737 226.176C116.009 226.596 115.323 227.148 114.679 227.832C114.055 228.504 113.505 229.266 113.027 230.118C112.569 230.958 112.205 231.852 111.935 232.8C111.686 233.736 111.561 234.684 111.561 235.644L111.561 236.22C111.561 237.228 111.685 238.056 111.935 238.704C112.205 239.34 112.569 239.814 113.026 240.126C113.504 240.402 114.055 240.516 114.678 240.468C115.302 240.396 115.987 240.144 116.736 239.712ZM127.128 218.017L132.74 214.777L132.74 217.153L133.114 216.937C133.509 215.725 134.07 214.681 134.798 213.805C135.525 212.905 136.357 212.185 137.292 211.645C138.851 210.745 140.108 210.607 141.064 211.231C142.02 211.855 142.529 213.277 142.592 215.497L140.035 217.405C140.035 215.749 139.692 214.759 139.006 214.435C138.321 214.087 137.479 214.201 136.481 214.777C135.837 215.149 135.276 215.617 134.798 216.181C134.34 216.733 133.956 217.351 133.644 218.035C133.332 218.719 133.104 219.439 132.958 220.195C132.812 220.951 132.74 221.713 132.74 222.481L132.739 230.041L136.667 227.773L136.667 230.365L126.753 236.089L126.753 233.497L130.307 231.445L130.308 218.773L127.128 220.609L127.128 218.017ZM147.62 215.977C147.683 217.717 148.16 218.869 149.054 219.433C149.948 219.997 151.195 219.817 152.795 218.893C153.523 218.473 154.157 218.011 154.697 217.507C155.237 217.003 155.695 216.475 156.069 215.923C156.464 215.359 156.776 214.795 157.004 214.231C157.254 213.631 157.451 213.037 157.597 212.449L159.904 211.837C159.467 213.745 158.656 215.569 157.472 217.309C156.308 219.013 154.728 220.441 152.733 221.593C151.631 222.229 150.613 222.601 149.677 222.709C148.763 222.781 147.973 222.601 147.308 222.169C146.643 221.737 146.123 221.065 145.749 220.153C145.375 219.241 145.188 218.101 145.189 216.733L145.189 215.869C145.189 214.621 145.376 213.349 145.75 212.053C146.145 210.745 146.686 209.509 147.371 208.345C148.057 207.157 148.858 206.083 149.772 205.123C150.708 204.127 151.716 203.317 152.796 202.693C154.064 201.961 155.155 201.607 156.07 201.631C157.005 201.619 157.764 201.841 158.346 202.297C158.948 202.741 159.385 203.353 159.655 204.133C159.946 204.901 160.091 205.681 160.091 206.473L160.091 208.777L147.62 215.977ZM152.796 205.357C152.11 205.753 151.466 206.257 150.863 206.869C150.281 207.445 149.762 208.093 149.304 208.813C148.868 209.521 148.504 210.271 148.213 211.063C147.943 211.819 147.766 212.581 147.683 213.349L157.659 207.589C157.618 206.845 157.452 206.245 157.161 205.789C156.891 205.321 156.527 205.003 156.07 204.835C155.633 204.655 155.124 204.613 154.542 204.709C153.981 204.793 153.399 205.009 152.796 205.357ZM165.463 205.676C165.525 207.416 166.003 208.568 166.897 209.132C167.79 209.696 169.038 209.516 170.638 208.592C171.365 208.172 171.999 207.71 172.54 207.206C173.08 206.702 173.537 206.174 173.912 205.622C174.307 205.058 174.618 204.494 174.847 203.93C175.096 203.33 175.294 202.736 175.439 202.148L177.746 201.536C177.31 203.444 176.499 205.268 175.314 207.008C174.15 208.712 172.571 210.14 170.575 211.292C169.474 211.928 168.455 212.3 167.52 212.408C166.606 212.48 165.816 212.3 165.151 211.868C164.486 211.436 163.966 210.764 163.592 209.852C163.218 208.94 163.031 207.8 163.031 206.432L163.031 205.568C163.031 204.32 163.219 203.048 163.593 201.752C163.988 200.444 164.528 199.208 165.214 198.044C165.9 196.856 166.7 195.782 167.615 194.822C168.55 193.826 169.558 193.016 170.639 192.392C171.907 191.66 172.998 191.306 173.913 191.33C174.848 191.318 175.607 191.54 176.188 191.996C176.791 192.44 177.228 193.052 177.498 193.832C177.789 194.6 177.934 195.38 177.934 196.172L177.934 198.476L165.463 205.676ZM170.639 195.056C169.953 195.452 169.309 195.956 168.706 196.568C168.124 197.144 167.604 197.792 167.147 198.512C166.711 199.22 166.347 199.97 166.056 200.762C165.785 201.518 165.609 202.28 165.526 203.048L175.502 197.288C175.461 196.544 175.294 195.944 175.003 195.488C174.733 195.02 174.37 194.702 173.912 194.534C173.476 194.354 172.967 194.312 172.385 194.408C171.824 194.492 171.242 194.708 170.639 195.056ZM183.96 203.06L181.528 204.464L181.529 186.608L183.961 185.204L183.961 188.228L184.335 188.012C185.291 185.108 186.954 182.972 189.324 181.604C191.111 180.572 192.535 180.398 193.595 181.082C194.655 181.742 195.184 183.356 195.184 185.924L195.183 196.58L192.752 197.984L192.752 187.904C192.753 186.032 192.389 184.838 191.662 184.322C190.934 183.806 189.947 183.908 188.7 184.628C187.224 185.48 186.06 186.74 185.208 188.408C184.376 190.04 183.961 191.828 183.961 193.772L183.96 203.06ZM220.426 168.759C220.426 169.623 220.737 170.103 221.361 170.199C222.005 170.283 223.169 169.911 224.853 169.083C226.661 168.207 228.033 167.919 228.968 168.219C229.924 168.483 230.402 169.407 230.402 170.991L230.402 171.207C230.402 172.071 230.246 172.941 229.934 173.817C229.643 174.657 229.227 175.473 228.687 176.265C228.167 177.045 227.523 177.777 226.754 178.461C226.005 179.157 225.184 179.763 224.291 180.279C223.085 180.975 222.046 181.395 221.173 181.539C220.321 181.647 219.604 181.569 219.022 181.305C218.461 181.005 218.035 180.555 217.744 179.955C217.453 179.331 217.287 178.635 217.245 177.867L219.552 175.887C219.656 177.195 220.113 178.035 220.924 178.407C221.734 178.755 222.815 178.539 224.166 177.759C225.309 177.099 226.224 176.319 226.91 175.419C227.616 174.483 227.97 173.547 227.97 172.611C227.97 171.603 227.627 171.081 226.941 171.045C226.255 171.009 225.143 171.375 223.605 172.143C221.818 173.031 220.446 173.343 219.49 173.079C218.534 172.815 218.056 171.903 218.056 170.343L218.056 170.127C218.056 169.287 218.212 168.465 218.524 167.661C218.836 166.833 219.252 166.053 219.771 165.321C220.312 164.577 220.914 163.905 221.58 163.305C222.245 162.705 222.941 162.195 223.668 161.775C224.687 161.187 225.581 160.839 226.35 160.731C227.119 160.599 227.763 160.647 228.282 160.875C228.802 161.079 229.197 161.439 229.467 161.955C229.758 162.459 229.945 163.023 230.028 163.647L227.721 165.627C227.617 164.535 227.212 163.869 226.505 163.629C225.819 163.377 224.915 163.575 223.793 164.223C223.356 164.475 222.93 164.781 222.515 165.141C222.12 165.465 221.766 165.825 221.455 166.221C221.143 166.617 220.893 167.037 220.706 167.481C220.519 167.901 220.426 168.327 220.426 168.759ZM236.926 179.68L234.494 181.084L234.496 156.028L236.928 154.624L236.928 157.432L237.302 157.216C237.842 155.824 238.591 154.576 239.547 153.472C240.503 152.344 241.542 151.456 242.665 150.808C243.621 150.256 244.525 149.938 245.377 149.854C246.229 149.77 246.977 149.926 247.622 150.322C248.287 150.706 248.806 151.354 249.18 152.266C249.575 153.166 249.772 154.336 249.772 155.776L249.772 156.496C249.772 157.96 249.585 159.364 249.211 160.708C248.837 162.052 248.317 163.3 247.652 164.452C247.007 165.592 246.249 166.618 245.376 167.53C244.503 168.418 243.578 169.144 242.601 169.708C242.102 169.996 241.593 170.218 241.073 170.374C240.554 170.554 240.055 170.65 239.577 170.662C239.12 170.638 238.693 170.548 238.299 170.392C237.904 170.212 237.571 169.924 237.301 169.528L236.927 169.744L236.926 179.68ZM242.102 167.332C242.85 166.9 243.536 166.36 244.16 165.712C244.784 165.04 245.324 164.296 245.781 163.48C246.259 162.652 246.623 161.77 246.873 160.834C247.143 159.886 247.278 158.92 247.278 157.936L247.278 157.216C247.278 156.256 247.143 155.47 246.873 154.858C246.624 154.21 246.26 153.748 245.782 153.472C245.325 153.16 244.774 153.034 244.13 153.094C243.506 153.142 242.831 153.376 242.103 153.796C241.376 154.216 240.7 154.774 240.077 155.47C239.453 156.142 238.902 156.904 238.424 157.756C237.967 158.596 237.603 159.502 237.333 160.474C237.063 161.422 236.927 162.376 236.927 163.336L236.927 163.768C236.927 164.752 237.062 165.574 237.332 166.234C237.603 166.87 237.966 167.344 238.423 167.656C238.901 167.956 239.452 168.082 240.076 168.034C240.699 167.986 241.375 167.752 242.102 167.332ZM264.123 153.754L263.749 153.97C263.25 155.458 262.553 156.748 261.66 157.84C260.787 158.92 259.862 159.742 258.885 160.306C257.866 160.894 256.921 161.248 256.048 161.368C255.175 161.464 254.406 161.32 253.741 160.936C253.096 160.516 252.587 159.85 252.213 158.938C251.839 158.026 251.652 156.826 251.652 155.338L251.652 154.762C251.653 153.298 251.84 151.894 252.214 150.55C252.588 149.206 253.097 147.964 253.742 146.824C254.407 145.648 255.176 144.604 256.049 143.692C256.922 142.78 257.847 142.042 258.824 141.478C259.884 140.866 260.84 140.59 261.692 140.65C262.565 140.674 263.251 141.106 263.749 141.946L264.124 141.73L264.124 138.922L266.556 137.518L266.555 151.702C266.554 152.422 266.835 152.62 267.396 152.296L268.176 151.846L268.175 154.438L266.523 155.392C265.816 155.8 265.234 155.872 264.777 155.608C264.341 155.332 264.123 154.786 264.123 153.97L264.123 153.754ZM259.134 157.498C259.862 157.078 260.527 156.538 261.13 155.878C261.753 155.206 262.283 154.456 262.72 153.628C263.156 152.8 263.499 151.918 263.749 150.982C263.998 150.022 264.123 149.05 264.123 148.066L264.123 147.634C264.123 146.674 263.999 145.87 263.749 145.222C263.5 144.55 263.147 144.058 262.689 143.746C262.253 143.422 261.723 143.284 261.099 143.332C260.497 143.344 259.842 143.554 259.135 143.962C258.408 144.382 257.743 144.922 257.14 145.582C256.537 146.242 256.007 146.992 255.55 147.832C255.113 148.636 254.77 149.518 254.521 150.478C254.271 151.414 254.147 152.362 254.147 153.322L254.147 153.898C254.146 155.938 254.604 157.27 255.518 157.894C256.453 158.482 257.659 158.35 259.134 157.498ZM285.208 138.269C285.042 139.349 284.751 140.429 284.335 141.509C283.94 142.577 283.431 143.603 282.807 144.587C282.183 145.547 281.456 146.435 280.625 147.251C279.793 148.067 278.868 148.769 277.85 149.357C276.769 149.981 275.74 150.371 274.763 150.527C273.807 150.671 272.966 150.569 272.238 150.221C271.511 149.849 270.929 149.225 270.492 148.349C270.077 147.461 269.869 146.285 269.869 144.821L269.869 144.389C269.869 142.949 270.077 141.533 270.493 140.141C270.93 138.737 271.512 137.429 272.239 136.217C272.967 135.005 273.809 133.907 274.765 132.923C275.742 131.927 276.77 131.117 277.851 130.493C278.828 129.929 279.732 129.575 280.564 129.431C281.395 129.287 282.122 129.347 282.746 129.611C283.39 129.839 283.91 130.259 284.305 130.871C284.72 131.471 285.001 132.221 285.146 133.121L282.714 135.173C282.652 134.585 282.496 134.075 282.247 133.643C282.018 133.175 281.696 132.845 281.28 132.653C280.885 132.425 280.397 132.347 279.815 132.419C279.233 132.491 278.558 132.749 277.789 133.193C277.04 133.625 276.334 134.201 275.669 134.921C275.024 135.605 274.453 136.391 273.954 137.279C273.455 138.143 273.06 139.067 272.769 140.051C272.499 141.023 272.363 141.989 272.363 142.949L272.363 143.381C272.363 144.389 272.498 145.223 272.768 145.883C273.059 146.507 273.454 146.951 273.953 147.215C274.452 147.479 275.034 147.575 275.699 147.503C276.364 147.407 277.081 147.137 277.85 146.693C278.619 146.249 279.284 145.733 279.845 145.145C280.427 144.521 280.916 143.879 281.311 143.219C281.726 142.523 282.049 141.821 282.277 141.113C282.527 140.393 282.693 139.697 282.776 139.025L285.208 138.269ZM290.362 133.565C290.424 135.305 290.902 136.457 291.796 137.021C292.689 137.585 293.936 137.405 295.537 136.481C296.264 136.061 296.898 135.599 297.439 135.095C297.979 134.591 298.436 134.063 298.81 133.511C299.205 132.947 299.517 132.383 299.746 131.819C299.995 131.219 300.193 130.625 300.338 130.037L302.645 129.425C302.209 131.333 301.398 133.157 300.213 134.897C299.049 136.601 297.47 138.029 295.474 139.181C294.373 139.817 293.354 140.189 292.419 140.297C291.504 140.369 290.715 140.189 290.05 139.757C289.385 139.325 288.865 138.653 288.491 137.741C288.117 136.829 287.93 135.689 287.93 134.321L287.93 133.457C287.93 132.209 288.117 130.937 288.492 129.641C288.887 128.333 289.427 127.097 290.113 125.933C290.799 124.745 291.599 123.671 292.514 122.711C293.449 121.715 294.457 120.905 295.538 120.281C296.806 119.549 297.897 119.195 298.812 119.219C299.747 119.207 300.505 119.429 301.087 119.885C301.69 120.329 302.126 120.941 302.397 121.721C302.687 122.489 302.833 123.269 302.833 124.061L302.833 126.365L290.362 133.565ZM295.538 122.945C294.852 123.341 294.208 123.845 293.605 124.457C293.023 125.033 292.503 125.681 292.046 126.401C291.609 127.109 291.246 127.859 290.955 128.651C290.684 129.407 290.508 130.169 290.424 130.937L300.401 125.177C300.36 124.433 300.193 123.833 299.902 123.377C299.632 122.909 299.269 122.591 298.811 122.423C298.375 122.243 297.866 122.201 297.284 122.297C296.723 122.381 296.141 122.597 295.538 122.945Z" fill="black"/>
<path d="M10.2968 373.832C10.2966 376.952 11.1278 378.992 12.7904 379.952C14.453 380.864 16.76 380.468 19.7115 378.764C21.1248 377.948 22.4135 376.916 23.5775 375.668C24.783 374.396 25.8015 372.992 26.633 371.456C27.506 369.848 28.1712 368.192 28.6286 366.488C29.1275 364.712 29.3771 362.912 29.3772 361.088L29.3778 353.6L28.6295 354.032C27.6733 356.696 26.3014 359.144 24.5138 361.376C22.7262 363.608 20.6477 365.408 18.2783 366.776C16.2414 367.952 14.3708 368.672 12.6665 368.936C10.9622 369.2 9.48661 368.996 8.23963 368.324C6.99267 367.604 6.01592 366.44 5.30939 364.832C4.64444 363.2 4.31206 361.088 4.31225 358.496L4.31232 357.632C4.31251 355.136 4.6868 352.64 5.43521 350.144C6.18361 347.6 7.22298 345.2 8.55331 342.944C9.92521 340.616 11.5257 338.516 13.3548 336.644C15.2255 334.7 17.2624 333.092 19.4656 331.82C21.6688 330.548 23.6848 329.816 25.5138 329.624C27.3844 329.36 28.9847 329.588 30.3148 330.308C31.6865 331.004 32.7464 332.168 33.4944 333.8C34.2425 335.432 34.6165 337.472 34.6163 339.92L34.6149 358.064C34.6147 360.752 34.2196 363.404 33.4297 366.02C32.6813 368.564 31.6211 371 30.2492 373.328C28.9189 375.584 27.3392 377.648 25.5101 379.52C23.6809 381.392 21.7064 382.94 19.5863 384.164C17.4663 385.388 15.5126 386.156 13.7252 386.468C11.9377 386.78 10.3998 386.636 9.11121 386.036C7.82267 385.388 6.82514 384.308 6.1186 382.796C5.41208 381.236 5.0589 379.256 5.05908 376.856L10.2968 373.832ZM19.4652 337.148C17.9687 338.012 16.5969 339.092 15.3498 340.388C14.1442 341.66 13.1049 343.076 12.2319 344.636C11.3589 346.196 10.6937 347.828 10.2363 349.532C9.77892 351.188 9.55018 352.832 9.55005 354.464L9.54999 355.328C9.54986 357.008 9.79916 358.4 10.2979 359.504C10.7966 360.56 11.4824 361.34 12.3553 361.844C13.2282 362.3 14.2674 362.444 15.4728 362.276C16.6783 362.108 18.0085 361.604 19.4634 360.764C20.8768 359.948 22.1862 358.928 23.3918 357.704C24.5973 356.432 25.6366 355.064 26.5096 353.6C27.4242 352.112 28.131 350.552 28.6299 348.92C29.1288 347.288 29.3784 345.704 29.3785 344.168L29.3786 342.8C29.3787 341.216 29.1502 339.86 28.693 338.732C28.2359 337.604 27.5709 336.788 26.698 336.284C25.8251 335.732 24.7652 335.528 23.5181 335.672C22.3127 335.792 20.9617 336.284 19.4652 337.148ZM60.1384 319.713C60.1383 321.441 59.8888 323.121 59.3898 324.753C58.8909 326.337 58.2049 327.861 57.3319 329.325C56.5005 330.717 55.5235 331.977 54.4011 333.105C53.3203 334.209 52.1771 335.109 50.9716 335.805C49.7661 336.501 48.6022 336.933 47.4798 337.101C46.3991 337.245 45.4223 337.113 44.5494 336.705C43.7181 336.225 43.053 335.481 42.5543 334.473C42.0556 333.417 41.8063 332.025 41.8064 330.297C41.8065 328.569 42.0561 326.913 42.555 325.329C43.0539 323.697 43.7191 322.185 44.5506 320.793C45.4236 319.329 46.4005 318.045 47.4814 316.941C48.6038 315.813 49.7677 314.901 50.9732 314.205C52.1787 313.509 53.3219 313.089 54.4026 312.945C55.525 312.777 56.5018 312.933 57.3331 313.413C58.206 313.821 58.8918 314.553 59.3905 315.609C59.8893 316.617 60.1386 317.985 60.1384 319.713ZM50.9719 331.917C52.5931 330.981 53.9026 329.601 54.9003 327.777C55.8981 325.905 56.397 323.937 56.3972 321.873C56.3974 319.809 55.8987 318.441 54.9011 317.769C53.9035 317.049 52.5941 317.157 50.9729 318.093C49.3517 319.029 48.0423 320.433 47.0445 322.305C46.0467 324.129 45.5478 326.073 45.5476 328.137C45.5475 330.441 46.0462 331.881 47.0437 332.457C48.0413 333.033 49.3507 332.853 50.9719 331.917ZM73.5423 341.637C73.5421 343.365 73.2926 345.045 72.7937 346.677C72.2947 348.261 71.6088 349.785 70.7357 351.249C69.9043 352.641 68.9274 353.901 67.805 355.029C66.7241 356.133 65.5809 357.033 64.3754 357.729C63.1699 358.425 62.006 358.857 60.8837 359.025C59.8029 359.169 58.8261 359.037 57.9532 358.629C57.1219 358.149 56.4569 357.405 55.9581 356.397C55.4594 355.341 55.2101 353.949 55.2102 352.221C55.2104 350.493 55.4599 348.837 55.9588 347.253C56.4578 345.621 57.123 344.109 57.9544 342.717C58.8274 341.253 59.8044 339.969 60.8852 338.865C62.0076 337.737 63.1716 336.825 64.3771 336.129C65.5826 335.433 66.7257 335.013 67.8065 334.869C68.9288 334.701 69.9056 334.857 70.7369 335.337C71.6098 335.745 72.2956 336.477 72.7944 337.533C73.2931 338.541 73.5424 339.909 73.5423 341.637ZM64.3757 353.841C65.9969 352.905 67.3064 351.525 68.3042 349.701C69.3019 347.829 69.8009 345.861 69.801 343.797C69.8012 341.733 69.3025 340.365 68.3049 339.693C67.3074 338.973 65.998 339.081 64.3768 340.017C62.7556 340.953 61.4461 342.357 60.4483 344.229C59.4506 346.053 58.9516 347.997 58.9515 350.061C58.9513 352.365 59.45 353.805 60.4476 354.381C61.4451 354.957 62.7545 354.777 64.3757 353.841ZM71.6736 317.517L73.1698 319.965L43.6751 354.345L42.1789 351.897L71.6736 317.517Z" fill="black"/>
<defs>
<linearGradient id="paint0_linear_197_32192" x1="0" y1="21.6" x2="324" y2="21.6" gradientUnits="userSpaceOnUse">
<stop stop-color="#CCCDCA"/>
<stop offset="0.475" stop-color="#9BC944"/>
<stop offset="1" stop-color="#6A8E2A"/>
</linearGradient>
</defs>
</svg>
