<svg width="1024" height="592" viewBox="0 0 1024 592" fill="none" xmlns="http://www.w3.org/2000/svg">
<g opacity="0.8">
<rect width="55.0964" height="55.0964" rx="6.48" transform="matrix(0.866045 0.499967 0.866045 -0.499967 0.339844 295.893)" fill="#186000"/>
<rect width="55.0964" height="55.0964" rx="6.48" transform="matrix(0.866045 0.499967 0.866045 -0.499967 51.8711 325.642)" fill="#186000"/>
<rect width="55.0964" height="55.0964" rx="6.48" transform="matrix(0.866045 0.499967 0.866045 -0.499967 103.406 355.392)" fill="#186000"/>
<rect width="55.0964" height="55.0964" rx="6.48" transform="matrix(0.866045 0.499967 0.866045 -0.499967 154.938 385.142)" fill="#186000"/>
<rect width="55.0964" height="55.0964" rx="6.48" transform="matrix(0.866045 0.499967 0.866045 -0.499967 206.473 414.893)" fill="#186000"/>
<rect width="55.0964" height="55.0964" rx="6.48" transform="matrix(0.866045 0.499967 0.866045 -0.499967 258.008 444.643)" fill="#186000"/>
<rect width="55.0964" height="55.0964" rx="6.48" transform="matrix(0.866045 0.499967 0.866045 -0.499967 309.539 474.392)" fill="#186000"/>
<rect width="55.0964" height="55.0964" rx="6.48" transform="matrix(0.866045 0.499967 0.866045 -0.499967 361.07 504.142)" fill="#186000"/>
<rect width="55.0964" height="55.0964" rx="6.48" transform="matrix(0.866045 0.499967 0.866045 -0.499967 412.602 533.892)" fill="#186000"/>
<rect width="55.0964" height="55.0964" rx="6.48" transform="matrix(0.866045 0.499967 0.866045 -0.499967 464.141 563.643)" fill="#186000"/>
<rect width="55.0964" height="55.0964" rx="6.48" transform="matrix(0.866045 0.499967 0.866045 -0.499967 51.8711 266.142)" fill="#186000"/>
<rect width="55.0964" height="55.0964" rx="6.48" transform="matrix(0.866045 0.499967 0.866045 -0.499967 103.406 295.893)" fill="#186000"/>
<rect width="55.0964" height="55.0964" rx="6.48" transform="matrix(0.866045 0.499967 0.866045 -0.499967 154.938 325.642)" fill="#186000"/>
<rect width="55.0964" height="55.0964" rx="6.48" transform="matrix(0.866045 0.499967 0.866045 -0.499967 206.473 355.392)" fill="#186000"/>
<rect width="55.0964" height="55.0964" rx="6.48" transform="matrix(0.866045 0.499967 0.866045 -0.499967 258.008 385.142)" fill="#30B901"/>
<rect width="55.0964" height="55.0964" rx="6.48" transform="matrix(0.866045 0.499967 0.866045 -0.499967 309.539 414.893)" fill="#30B901"/>
<rect width="55.0964" height="55.0964" rx="6.48" transform="matrix(0.866045 0.499967 0.866045 -0.499967 361.07 444.643)" fill="#30B901"/>
<rect width="55.0964" height="55.0964" rx="6.48" transform="matrix(0.866045 0.499967 0.866045 -0.499967 412.602 474.392)" fill="#30B901"/>
<rect width="55.0964" height="55.0964" rx="6.48" transform="matrix(0.866045 0.499967 0.866045 -0.499967 464.141 504.142)" fill="#30B901"/>
<rect width="55.0964" height="55.0964" rx="6.48" transform="matrix(0.866045 0.499967 0.866045 -0.499967 515.672 533.892)" fill="#30B901"/>
<rect width="55.0964" height="55.0964" rx="6.48" transform="matrix(0.866045 0.499967 0.866045 -0.499967 103.406 236.392)" fill="#284981"/>
<rect width="55.0964" height="55.0964" rx="6.48" transform="matrix(0.866045 0.499967 0.866045 -0.499967 154.938 266.142)" fill="#284981"/>
<rect width="55.0964" height="55.0964" rx="6.48" transform="matrix(0.866045 0.499967 0.866045 -0.499967 206.473 295.893)" fill="#284981"/>
<rect width="55.0964" height="55.0964" rx="6.48" transform="matrix(0.866045 0.499967 0.866045 -0.499967 258.008 325.642)" fill="#284981"/>
<rect width="55.0964" height="55.0964" rx="6.48" transform="matrix(0.866045 0.499967 0.866045 -0.499967 309.539 355.392)" fill="#B0B0B1"/>
<rect width="55.0964" height="55.0964" rx="6.48" transform="matrix(0.866045 0.499967 0.866045 -0.499967 361.07 385.142)" fill="#B0B0B1"/>
<rect width="55.0964" height="55.0964" rx="6.48" transform="matrix(0.866045 0.499967 0.866045 -0.499967 412.602 414.893)" fill="#B0B0B1"/>
<rect width="55.0964" height="55.0964" rx="6.48" transform="matrix(0.866045 0.499967 0.866045 -0.499967 464.141 444.643)" fill="#B0B0B1"/>
<rect width="55.0964" height="55.0964" rx="6.48" transform="matrix(0.866045 0.499967 0.866045 -0.499967 515.672 474.392)" fill="#B0B0B1"/>
<rect width="55.0964" height="55.0964" rx="6.48" transform="matrix(0.866045 0.499967 0.866045 -0.499967 567.203 504.142)" fill="#B0B0B1"/>
<rect width="55.0964" height="55.0964" rx="6.48" transform="matrix(0.866045 0.499967 0.866045 -0.499967 154.938 206.641)" fill="#B0B0B1"/>
<rect width="55.0964" height="55.0964" rx="6.48" transform="matrix(0.866045 0.499967 0.866045 -0.499967 206.473 236.392)" fill="#B0B0B1"/>
<rect width="55.0964" height="55.0964" rx="6.48" transform="matrix(0.866045 0.499967 0.866045 -0.499967 258.008 266.142)" fill="#B0B0B1"/>
<rect width="55.0964" height="55.0964" rx="6.48" transform="matrix(0.866045 0.499967 0.866045 -0.499967 309.539 295.893)" fill="#B0B0B1"/>
<rect width="55.0964" height="55.0964" rx="6.48" transform="matrix(0.866045 0.499967 0.866045 -0.499967 361.07 325.642)" fill="#B0B0B1"/>
<rect width="55.0964" height="55.0964" rx="6.48" transform="matrix(0.866045 0.499967 0.866045 -0.499967 412.602 355.392)" fill="#B0B0B1"/>
<rect width="55.0964" height="55.0964" rx="6.48" transform="matrix(0.866045 0.499967 0.866045 -0.499967 464.141 385.142)" fill="#B0B0B1"/>
<rect width="55.0964" height="55.0964" rx="6.48" transform="matrix(0.866045 0.499967 0.866045 -0.499967 515.672 414.893)" fill="#B0B0B1"/>
<rect width="55.0964" height="55.0964" rx="6.48" transform="matrix(0.866045 0.499967 0.866045 -0.499967 567.203 444.643)" fill="#B0B0B1"/>
<rect width="55.0964" height="55.0964" rx="6.48" transform="matrix(0.866045 0.499967 0.866045 -0.499967 618.738 474.392)" fill="#B0B0B1"/>
<rect width="55.0964" height="55.0964" rx="6.48" transform="matrix(0.866045 0.499967 0.866045 -0.499967 206.473 176.891)" fill="#B0B0B1"/>
<rect width="55.0964" height="55.0964" rx="6.48" transform="matrix(0.866045 0.499967 0.866045 -0.499967 258.008 206.641)" fill="#B0B0B1"/>
<rect width="55.0964" height="55.0964" rx="6.48" transform="matrix(0.866045 0.499967 0.866045 -0.499967 309.539 236.392)" fill="#B0B0B1"/>
<rect width="55.0964" height="55.0964" rx="6.48" transform="matrix(0.866045 0.499967 0.866045 -0.499967 361.07 266.142)" fill="#B0B0B1"/>
<rect width="55.0964" height="55.0964" rx="6.48" transform="matrix(0.866045 0.499967 0.866045 -0.499967 412.602 295.893)" fill="#B0B0B1"/>
<rect width="55.0964" height="55.0964" rx="6.48" transform="matrix(0.866045 0.499967 0.866045 -0.499967 464.141 325.642)" fill="#B0B0B1"/>
<rect width="55.0964" height="55.0964" rx="6.48" transform="matrix(0.866045 0.499967 0.866045 -0.499967 515.672 355.392)" fill="#B0B0B1"/>
<rect width="55.0964" height="55.0964" rx="6.48" transform="matrix(0.866045 0.499967 0.866045 -0.499967 567.203 385.142)" fill="#B0B0B1"/>
<rect width="55.0964" height="55.0964" rx="6.48" transform="matrix(0.866045 0.499967 0.866045 -0.499967 618.738 414.893)" fill="#B0B0B1"/>
<rect width="55.0964" height="55.0964" rx="6.48" transform="matrix(0.866045 0.499967 0.866045 -0.499967 670.27 444.643)" fill="#B0B0B1"/>
<rect width="55.0964" height="55.0964" rx="6.48" transform="matrix(0.866045 0.499967 0.866045 -0.499967 258.008 147.142)" fill="#B0B0B1"/>
<rect width="55.0964" height="55.0964" rx="6.48" transform="matrix(0.866045 0.499967 0.866045 -0.499967 309.539 176.891)" fill="#B0B0B1"/>
<rect width="55.0964" height="55.0964" rx="6.48" transform="matrix(0.866045 0.499967 0.866045 -0.499967 361.07 206.641)" fill="#B0B0B1"/>
<rect width="55.0964" height="55.0964" rx="6.48" transform="matrix(0.866045 0.499967 0.866045 -0.499967 412.602 236.392)" fill="#B0B0B1"/>
<rect width="55.0964" height="55.0964" rx="6.48" transform="matrix(0.866045 0.499967 0.866045 -0.499967 464.141 266.142)" fill="#B0B0B1"/>
<rect width="55.0964" height="55.0964" rx="6.48" transform="matrix(0.866045 0.499967 0.866045 -0.499967 515.672 295.893)" fill="#B0B0B1"/>
<rect width="55.0964" height="55.0964" rx="6.48" transform="matrix(0.866045 0.499967 0.866045 -0.499967 567.203 325.642)" fill="#B0B0B1"/>
<rect width="55.0964" height="55.0964" rx="6.48" transform="matrix(0.866045 0.499967 0.866045 -0.499967 618.738 355.392)" fill="#B0B0B1"/>
<rect width="55.0964" height="55.0964" rx="6.48" transform="matrix(0.866045 0.499967 0.866045 -0.499967 670.27 385.142)" fill="#B0B0B1"/>
<rect width="55.0964" height="55.0964" rx="6.48" transform="matrix(0.866045 0.499967 0.866045 -0.499967 721.805 414.893)" fill="#B0B0B1"/>
<rect width="55.0964" height="55.0964" rx="6.48" transform="matrix(0.866045 0.499967 0.866045 -0.499967 309.539 117.391)" fill="#B0B0B1"/>
<rect width="55.0964" height="55.0964" rx="6.48" transform="matrix(0.866045 0.499967 0.866045 -0.499967 361.07 147.142)" fill="#B0B0B1"/>
<rect width="55.0964" height="55.0964" rx="6.48" transform="matrix(0.866045 0.499967 0.866045 -0.499967 412.602 176.891)" fill="#B0B0B1"/>
<rect width="55.0964" height="55.0964" rx="6.48" transform="matrix(0.866045 0.499967 0.866045 -0.499967 464.141 206.641)" fill="#B0B0B1"/>
<rect width="55.0964" height="55.0964" rx="6.48" transform="matrix(0.866045 0.499967 0.866045 -0.499967 515.672 236.392)" fill="#B0B0B1"/>
<rect width="55.0964" height="55.0964" rx="6.48" transform="matrix(0.866045 0.499967 0.866045 -0.499967 567.203 266.142)" fill="#B0B0B1"/>
<rect width="55.0964" height="55.0964" rx="6.48" transform="matrix(0.866045 0.499967 0.866045 -0.499967 618.738 295.893)" fill="#B0B0B1"/>
<rect width="55.0964" height="55.0964" rx="6.48" transform="matrix(0.866045 0.499967 0.866045 -0.499967 670.27 325.642)" fill="#B0B0B1"/>
<rect width="55.0964" height="55.0964" rx="6.48" transform="matrix(0.866045 0.499967 0.866045 -0.499967 721.805 355.392)" fill="#B0B0B1"/>
<rect width="55.0964" height="55.0964" rx="6.48" transform="matrix(0.866045 0.499967 0.866045 -0.499967 773.336 385.142)" fill="#B0B0B1"/>
<rect width="55.0964" height="55.0964" rx="6.48" transform="matrix(0.866045 0.499967 0.866045 -0.499967 361.07 87.6406)" fill="#B0B0B1"/>
<rect width="55.0964" height="55.0964" rx="6.48" transform="matrix(0.866045 0.499967 0.866045 -0.499967 412.602 117.391)" fill="#B0B0B1"/>
<rect width="55.0964" height="55.0964" rx="6.48" transform="matrix(0.866045 0.499967 0.866045 -0.499967 464.141 147.142)" fill="#B0B0B1"/>
<rect width="55.0964" height="55.0964" rx="6.48" transform="matrix(0.866045 0.499967 0.866045 -0.499967 515.672 176.891)" fill="#B0B0B1"/>
<rect width="55.0964" height="55.0964" rx="6.48" transform="matrix(0.866045 0.499967 0.866045 -0.499967 567.203 206.641)" fill="#B0B0B1"/>
<rect width="55.0964" height="55.0964" rx="6.48" transform="matrix(0.866045 0.499967 0.866045 -0.499967 618.738 236.392)" fill="#B0B0B1"/>
<rect width="55.0964" height="55.0964" rx="6.48" transform="matrix(0.866045 0.499967 0.866045 -0.499967 670.27 266.142)" fill="#B0B0B1"/>
<rect width="55.0964" height="55.0964" rx="6.48" transform="matrix(0.866045 0.499967 0.866045 -0.499967 721.805 295.893)" fill="#B0B0B1"/>
<rect width="55.0964" height="55.0964" rx="6.48" transform="matrix(0.866045 0.499967 0.866045 -0.499967 773.336 325.642)" fill="#B0B0B1"/>
<rect width="55.0964" height="55.0964" rx="6.48" transform="matrix(0.866045 0.499967 0.866045 -0.499967 824.875 355.392)" fill="#B0B0B1"/>
<rect width="55.0964" height="55.0964" rx="6.48" transform="matrix(0.866045 0.499967 0.866045 -0.499967 412.602 57.8906)" fill="#B0B0B1"/>
<rect width="55.0964" height="55.0964" rx="6.48" transform="matrix(0.866045 0.499967 0.866045 -0.499967 464.141 87.6406)" fill="#B0B0B1"/>
<rect width="55.0964" height="55.0964" rx="6.48" transform="matrix(0.866045 0.499967 0.866045 -0.499967 515.672 117.391)" fill="#B0B0B1"/>
<rect width="55.0964" height="55.0964" rx="6.48" transform="matrix(0.866045 0.499967 0.866045 -0.499967 567.203 147.142)" fill="#B0B0B1"/>
<rect width="55.0964" height="55.0964" rx="6.48" transform="matrix(0.866045 0.499967 0.866045 -0.499967 618.738 176.891)" fill="#B0B0B1"/>
<rect width="55.0964" height="55.0964" rx="6.48" transform="matrix(0.866045 0.499967 0.866045 -0.499967 670.27 206.641)" fill="#B0B0B1"/>
<rect width="55.0964" height="55.0964" rx="6.48" transform="matrix(0.866045 0.499967 0.866045 -0.499967 721.805 236.392)" fill="#B0B0B1"/>
<rect width="55.0964" height="55.0964" rx="6.48" transform="matrix(0.866045 0.499967 0.866045 -0.499967 773.336 266.142)" fill="#B0B0B1"/>
<rect width="55.0964" height="55.0964" rx="6.48" transform="matrix(0.866045 0.499967 0.866045 -0.499967 824.875 295.893)" fill="#B0B0B1"/>
<rect width="55.0964" height="55.0964" rx="6.48" transform="matrix(0.866045 0.499967 0.866045 -0.499967 876.406 325.642)" fill="#B0B0B1"/>
<rect width="55.0964" height="55.0964" rx="6.48" transform="matrix(0.866045 0.499967 0.866045 -0.499967 464.141 28.1406)" fill="#B0B0B1"/>
<rect width="55.0964" height="55.0964" rx="6.48" transform="matrix(0.866045 0.499967 0.866045 -0.499967 515.672 57.8906)" fill="#B0B0B1"/>
<rect width="55.0964" height="55.0964" rx="6.48" transform="matrix(0.866045 0.499967 0.866045 -0.499967 567.203 87.6406)" fill="#B0B0B1"/>
<rect width="55.0964" height="55.0964" rx="6.48" transform="matrix(0.866045 0.499967 0.866045 -0.499967 618.738 117.391)" fill="#B0B0B1"/>
<rect width="55.0964" height="55.0964" rx="6.48" transform="matrix(0.866045 0.499967 0.866045 -0.499967 670.27 147.142)" fill="#B0B0B1"/>
<rect width="55.0964" height="55.0964" rx="6.48" transform="matrix(0.866045 0.499967 0.866045 -0.499967 721.805 176.891)" fill="#B0B0B1"/>
<rect width="55.0964" height="55.0964" rx="6.48" transform="matrix(0.866045 0.499967 0.866045 -0.499967 773.336 206.641)" fill="#B0B0B1"/>
<rect width="55.0964" height="55.0964" rx="6.48" transform="matrix(0.866045 0.499967 0.866045 -0.499967 824.875 236.392)" fill="#B0B0B1"/>
<rect width="55.0964" height="55.0964" rx="6.48" transform="matrix(0.866045 0.499967 0.866045 -0.499967 876.406 266.142)" fill="#B0B0B1"/>
<rect width="55.0964" height="55.0964" rx="6.48" transform="matrix(0.866045 0.499967 0.866045 -0.499967 927.938 295.893)" fill="#B0B0B1"/>
</g>
</svg>
