<svg width="24" height="23" viewBox="0 0 24 23" fill="none" xmlns="http://www.w3.org/2000/svg">
<g clip-path="url(#clip0_239_16607)">
<path d="M11.7017 22.3577C12.7044 22.3577 13.6494 21.8998 14.4737 21.079C15.2562 20.2999 15.93 19.1938 16.4414 17.8418C16.6056 17.4078 16.7531 16.9485 16.882 16.4666C17.2224 15.1946 17.4338 13.7649 17.4838 12.2269C17.4914 11.9927 17.4952 11.756 17.4952 11.5169C17.4952 11.2587 17.4908 11.0031 17.482 10.7506C17.4297 9.23673 17.2229 7.82963 16.892 6.57538C16.7643 6.09133 16.6181 5.63004 16.4552 5.19416C15.9402 3.81675 15.258 2.69314 14.4635 1.90688C13.6426 1.09456 12.7018 0.642332 11.7017 0.642332C10.7015 0.642332 9.76074 1.09456 8.93988 1.90687C8.14534 2.69313 7.46315 3.81676 6.94823 5.19418C6.78529 5.63005 6.63909 6.09134 6.51139 6.5754C6.18049 7.82964 5.97373 9.23673 5.92138 10.7506C5.91264 11.0031 5.90821 11.2587 5.90821 11.5169C5.90821 11.756 5.91207 11.9927 5.91967 12.2269C5.96961 13.7649 6.18106 15.1946 6.52137 16.4665C6.65032 16.9485 6.79777 17.4078 6.96195 17.8418C7.47341 19.1938 8.14722 20.2999 8.92969 21.079C9.75401 21.8998 10.6989 22.3577 11.7017 22.3577ZM11.7017 2.00587C11.9581 2.00587 12.2113 2.06302 12.4589 2.17186C13.4396 2.60312 14.33 3.84605 14.9672 5.56179C15.1293 5.99831 15.275 6.46543 15.4017 6.95758C15.6979 8.1088 15.8898 9.39695 15.9429 10.7506C15.9528 11.0039 15.9579 11.2595 15.9579 11.5169C15.9579 11.755 15.9534 11.9918 15.9446 12.2269C15.8931 13.5986 15.6946 14.9116 15.3863 16.0844C15.2574 16.5748 15.1093 17.0407 14.9448 17.4762C14.3092 19.1582 13.4281 20.3857 12.4589 20.8154C12.2113 20.9252 11.9581 20.9829 11.7017 20.9829C11.4493 20.9829 11.1999 20.9269 10.956 20.8205C9.98219 20.3953 9.09667 19.1648 8.45861 17.4762C8.29406 17.0407 8.14598 16.5748 8.01707 16.0844C7.70883 14.9116 7.5103 13.5986 7.45881 12.2269C7.44999 11.9918 7.44548 11.755 7.44548 11.5169C7.44548 11.2595 7.45056 11.0039 7.4605 10.7506C7.51362 9.39695 7.70547 8.10881 8.0017 6.95759C8.12834 6.46544 8.27406 5.99831 8.43617 5.56179C9.07583 3.83935 9.97073 2.59343 10.956 2.16685C11.1999 2.06126 11.4493 2.00587 11.7017 2.00587ZM10.956 0.800099V2.16685V5.82463V7.29992V10.7506V12.2269V15.7451V17.2203V20.8205V22.1436H12.4589V20.8154V17.2207V15.7455V12.2269V10.7506V7.29949V5.82423V2.17186V0.800099H10.956ZM11.7017 15.7314C11.451 15.7314 11.2023 15.736 10.956 15.7451C9.92394 15.7831 8.93445 15.8994 8.01707 16.0844C7.49315 16.19 6.99275 16.318 6.52137 16.4665C5.45329 16.8031 4.53425 17.2453 3.82829 17.7717C3.68687 17.8772 3.554 17.986 3.4302 18.098L4.5889 19.0333C4.67381 18.967 4.76172 18.9023 4.85257 18.8394C5.438 18.4339 6.14563 18.0998 6.96195 17.8418C7.42647 17.695 7.92619 17.5728 8.45861 17.4762C9.22568 17.337 10.0606 17.2508 10.956 17.2203C11.2001 17.212 11.4487 17.2078 11.7017 17.2078C11.9586 17.2078 12.2111 17.2121 12.4589 17.2207C13.3499 17.2516 14.181 17.3376 14.9448 17.4762C15.4772 17.5728 15.9769 17.695 16.4414 17.8418C17.2577 18.0998 17.9653 18.4339 18.5508 18.8394C18.6416 18.9023 18.7296 18.967 18.8145 19.0333L19.9732 18.098C19.8494 17.986 19.7165 17.8771 19.5751 17.7717C18.8691 17.2453 17.9501 16.8032 16.882 16.4666C16.4107 16.318 15.9102 16.19 15.3863 16.0844C14.4723 15.9001 13.4868 15.7839 12.4589 15.7455C12.2088 15.7362 11.9563 15.7314 11.7017 15.7314ZM22.2906 10.7506H21.8153H17.482H15.9429H12.4589H10.956H7.4605H5.92138H1.5881H1.11281V12.2269H1.58726H5.91967H7.45881H10.956H12.4589H15.9446H17.4838H21.8161H22.2906V10.7506ZM11.7017 7.31357C11.9563 7.31357 12.2088 7.30883 12.4589 7.29949C13.4925 7.26088 14.4834 7.14363 15.4017 6.95758C15.9237 6.85182 16.4223 6.72381 16.892 6.57538C17.9703 6.23462 18.8963 5.78618 19.6038 5.25192C19.7345 5.15319 19.8578 5.05154 19.9732 4.94709L18.8145 4.01176C18.7403 4.06919 18.6638 4.12538 18.585 4.18031C17.9963 4.59094 17.2816 4.93111 16.4552 5.19416C15.9933 5.34118 15.4965 5.46411 14.9672 5.56179C14.1973 5.70389 13.3586 5.79256 12.4589 5.82423C12.2111 5.83295 11.9586 5.83735 11.7017 5.83735C11.4487 5.83735 11.2001 5.83308 10.956 5.82463C10.0519 5.79331 9.20939 5.70449 8.43617 5.56179C7.90691 5.46411 7.41011 5.34119 6.94823 5.19418C6.12175 4.93112 5.40708 4.59094 4.81834 4.1803C4.73959 4.12538 4.6631 4.06919 4.5889 4.01176L3.4302 4.94709C3.54559 5.05153 3.66885 5.15317 3.79957 5.25189C4.50707 5.78616 5.43304 6.23462 6.51139 6.5754C6.98107 6.72382 7.47966 6.85182 8.0017 6.95759C8.9234 7.14432 9.91818 7.26175 10.956 7.29992C11.2023 7.30898 11.451 7.31357 11.7017 7.31357ZM11.7017 22.9887C18.1606 22.9887 23.4034 17.8388 23.4034 11.4944C23.4034 5.14993 18.1606 0 11.7017 0C5.24281 0 0 5.14993 0 11.4944C0 17.8388 5.24281 22.9887 11.7017 22.9887ZM11.7017 21.4562C10.7407 21.4562 9.81083 21.3247 8.92969 21.079C7.39064 20.65 6.00027 19.8727 4.85257 18.8394C4.48526 18.5087 4.14281 18.1518 3.82829 17.7717C2.55719 16.2356 1.74238 14.3207 1.58726 12.2269C1.56934 11.985 1.56022 11.7407 1.56022 11.4944C1.56022 11.2442 1.56963 10.9962 1.5881 10.7506C1.74412 8.67696 2.54718 6.77931 3.79957 5.25189C4.11219 4.87062 4.4528 4.51241 4.81834 4.1803C5.9751 3.12931 7.38143 2.33959 8.93988 1.90687C9.818 1.66305 10.7444 1.53258 11.7017 1.53258C12.659 1.53258 13.5854 1.66306 14.4635 1.90688C16.0219 2.33959 17.4282 3.12931 18.585 4.18031C18.9506 4.51243 19.2912 4.87064 19.6038 5.25192C20.8562 6.77933 21.6592 8.67697 21.8153 10.7506C21.8337 10.9962 21.8431 11.2442 21.8431 11.4944C21.8431 11.7407 21.834 11.985 21.8161 12.2269C21.661 14.3207 20.8462 16.2355 19.5751 17.7717C19.2606 18.1518 18.9181 18.5087 18.5508 18.8394C17.4031 19.8726 16.0127 20.65 14.4737 21.079C13.5925 21.3247 12.6627 21.4562 11.7017 21.4562Z" fill="#186000" fill-opacity="0.85"/>
<path d="M15.9429 10.7506C15.8898 9.39695 15.6979 8.1088 15.4017 6.95758C14.4834 7.14363 13.4925 7.26088 12.4589 7.29949V10.7506H15.9429Z" fill="#186000" fill-opacity="0.2"/>
<path d="M16.892 6.57538C17.2229 7.82963 17.4297 9.23673 17.482 10.7506H21.8153C21.6592 8.67697 20.8562 6.77933 19.6038 5.25192C18.8963 5.78618 17.9703 6.23462 16.892 6.57538Z" fill="#186000" fill-opacity="0.2"/>
<path d="M17.4838 12.2269C17.4338 13.7649 17.2224 15.1946 16.882 16.4666C17.9501 16.8032 18.8691 17.2453 19.5751 17.7717C20.8462 16.2355 21.661 14.3207 21.8161 12.2269H17.4838Z" fill="#186000" fill-opacity="0.2"/>
<path d="M18.5508 18.8394C17.9653 18.4339 17.2577 18.0998 16.4414 17.8418C15.93 19.1938 15.2562 20.2999 14.4737 21.079C16.0127 20.65 17.4031 19.8726 18.5508 18.8394Z" fill="#186000" fill-opacity="0.2"/>
<path d="M12.4589 20.8154C13.4281 20.3857 14.3092 19.1582 14.9448 17.4762C14.181 17.3376 13.3499 17.2516 12.4589 17.2207V20.8154Z" fill="#186000" fill-opacity="0.2"/>
<path d="M8.45861 17.4762C9.09667 19.1648 9.98219 20.3953 10.956 20.8205V17.2203C10.0606 17.2508 9.22568 17.337 8.45861 17.4762Z" fill="#186000" fill-opacity="0.2"/>
<path d="M8.01707 16.0844C8.93445 15.8994 9.92394 15.7831 10.956 15.7451V12.2269H7.45881C7.5103 13.5986 7.70883 14.9116 8.01707 16.0844Z" fill="#186000" fill-opacity="0.2"/>
<path d="M8.92969 21.079C8.14722 20.2999 7.47341 19.1938 6.96195 17.8418C6.14563 18.0998 5.438 18.4339 4.85257 18.8394C6.00027 19.8727 7.39064 20.65 8.92969 21.079Z" fill="#186000" fill-opacity="0.2"/>
<path d="M5.91967 12.2269H1.58726C1.74238 14.3207 2.55719 16.2356 3.82829 17.7717C4.53425 17.2453 5.45329 16.8031 6.52137 16.4665C6.18106 15.1946 5.96961 13.7649 5.91967 12.2269Z" fill="#186000" fill-opacity="0.2"/>
<path d="M5.92138 10.7506C5.97373 9.23673 6.18049 7.82964 6.51139 6.5754C5.43304 6.23462 4.50707 5.78616 3.79957 5.25189C2.54718 6.77931 1.74412 8.67696 1.5881 10.7506H5.92138Z" fill="#186000" fill-opacity="0.2"/>
<path d="M4.81834 4.1803C5.40708 4.59094 6.12175 4.93112 6.94823 5.19418C7.46315 3.81676 8.14534 2.69313 8.93988 1.90687C7.38143 2.33959 5.9751 3.12931 4.81834 4.1803Z" fill="#186000" fill-opacity="0.2"/>
<path d="M10.956 2.16685C9.97073 2.59343 9.07583 3.83935 8.43617 5.56179C9.20939 5.70449 10.0519 5.79331 10.956 5.82463V2.16685Z" fill="#186000" fill-opacity="0.2"/>
<path d="M12.4589 5.82423C13.3586 5.79256 14.1973 5.70389 14.9672 5.56179C14.33 3.84605 13.4396 2.60312 12.4589 2.17186V5.82423Z" fill="#186000" fill-opacity="0.2"/>
<path d="M18.585 4.18031C17.4282 3.12931 16.0219 2.33959 14.4635 1.90688C15.258 2.69314 15.9402 3.81675 16.4552 5.19416C17.2816 4.93111 17.9963 4.59094 18.585 4.18031Z" fill="#186000" fill-opacity="0.2"/>
<path d="M10.956 7.29992C9.91818 7.26175 8.9234 7.14432 8.0017 6.95759C7.70547 8.10881 7.51362 9.39695 7.4605 10.7506H10.956V7.29992Z" fill="#186000" fill-opacity="0.2"/>
<path d="M12.4589 15.7455C13.4868 15.7839 14.4723 15.9001 15.3863 16.0844C15.6946 14.9116 15.8931 13.5986 15.9446 12.2269H12.4589V15.7455Z" fill="#186000" fill-opacity="0.2"/>
</g>
<defs>
<clipPath id="clip0_239_16607">
<rect width="24" height="23" fill="white"/>
</clipPath>
</defs>
</svg>
