<svg width="256" height="256" viewBox="0 0 256 256" fill="none" xmlns="http://www.w3.org/2000/svg">
<path d="M90.4062 147.595C93.4688 149.126 95.9688 152.001 97.25 155.595C98.1562 158.064 98.1562 161.845 97.2812 163.783C96.375 165.814 94.5938 167.689 92.9688 168.314C91.0938 169.001 88.1562 168.814 86.0938 167.814C80.4375 165.095 76.8125 156.251 79.3438 151.314C81.625 146.845 85.9062 145.408 90.4062 147.595Z" fill="#186000"/>
<path d="M54.1875 139.501C57.6875 141.22 60.625 145.501 61.2188 149.783C62.1562 156.345 58.2812 161.22 52.7812 160.501C49.6562 160.095 46.9062 158.22 44.9375 155.189C41.0312 149.158 41.9688 141.751 46.9375 139.251C48.3438 138.501 48.875 138.408 50.5625 138.533C51.7812 138.626 53.125 138.97 54.1875 139.501Z" fill="#186000"/>
<path d="M126.281 154.564C130.312 155.72 133.781 159.439 135.125 164.033C135.781 166.283 135.781 170.095 135.094 172.064C134.406 174.126 131.844 176.689 129.969 177.189C126.688 178.095 122.844 176.814 119.844 173.814C113.531 167.533 114.625 156.439 121.781 154.501C123.781 153.97 124.281 153.97 126.281 154.564Z" fill="#186000"/>
<path fill-rule="evenodd" clip-rule="evenodd" d="M86.0312 11.2202C85.3125 11.5639 84.5938 12.0952 84.4375 12.4077C84.25 12.7202 83.4062 16.8452 82.5312 21.5639C79.125 40.1577 78.4375 43.9389 78.3125 44.5327C78.2188 44.8764 76.375 47.6889 74.2188 50.7514C72.0312 53.8452 70.0625 56.7514 69.8125 57.2202C69.5312 57.7827 69.375 59.0639 69.375 60.8764C69.375 65.1264 69.3125 65.2514 66.8438 67.0327C63.0312 69.7514 63.3125 69.0327 63.125 76.7827L62.9688 83.5327L54.375 88.4389C49.6562 91.1577 45.3125 93.7827 44.7812 94.2827L43.75 95.2202V113.033V130.814L42.375 131.47C38.8125 133.22 35.5625 137.595 34.5 142.064C33.4062 146.72 34.4375 153.376 36.9375 157.751C37.4375 158.658 37.8438 159.439 37.7812 159.501C37.7188 159.533 34.7188 161.126 31.0938 163.033C21.9688 167.845 20.8438 168.501 20.4062 169.376C20.125 169.939 20 172.345 20 177.939V185.72L21.1875 186.783L132.53 238.349C134.778 239.39 137.381 239.332 139.579 238.19L239.344 186.376C239.969 185.564 240 185.22 240 177.501C240 169.876 239.969 169.408 239.375 168.658C239 168.189 236.469 166.689 233.406 165.158L228.094 162.47L228.156 140.97C228.188 125.814 228.094 119.283 227.844 118.814C227.344 117.908 226.125 117.251 220.406 114.845L215.312 112.72V101.689V90.6264L212.469 87.4077C208.594 83.0952 202.594 76.6264 197.938 71.7827L194.094 67.8139H192.562C191.031 67.8139 189.5 68.7202 173.75 78.7827L172.344 79.6577L172.188 65.5327C172.062 53.2202 171.969 51.2827 171.531 50.6264C171.062 49.9077 161.906 43.3764 152.562 37.0639C149.625 35.0639 148.844 34.6889 147.781 34.6889C146.688 34.6889 145.062 35.5952 135.25 41.6264C129.031 45.4389 123.5 48.9702 122.938 49.4702C122.344 49.9702 121.75 50.8764 121.562 51.5014C121.375 52.2202 121.25 59.8139 121.25 71.9702V91.3139L120.344 91.0952C119.625 90.9389 118.781 91.3139 115.531 93.2827C113.406 94.5639 111.531 95.6264 111.406 95.6264C111.281 95.6264 111.25 90.0014 111.281 83.1264C111.406 68.5952 111.625 69.6264 107.875 67.8139L105.625 66.7202V61.4077C105.625 55.1577 106.062 56.2202 100.719 49.5639L96.9688 44.9389L96.25 40.8139C95.875 38.5639 94.5312 31.3139 93.2812 24.7514C90.8438 12.0014 90.8125 11.8764 88.8438 11.0639C87.5938 10.5327 87.625 10.5327 86.0312 11.2202ZM144.469 61.3764C143.469 60.9389 140.156 59.6889 137.094 58.5639C134.062 57.4702 131.438 56.5639 131.281 56.5639C130.938 56.5639 130.625 68.6264 130.625 82.7827V94.8452L132.594 95.5327C137.938 97.4077 139.719 98.2202 140.25 99.0014C140.719 99.7202 140.812 101.251 140.938 112.845L141.094 125.908L143.75 124.408C145.438 123.439 146.406 122.72 146.375 122.376C146.375 122.3 146.373 121.228 146.369 119.377C146.369 119.369 146.369 119.361 146.369 119.352C146.358 114.406 146.335 103.944 146.312 92.0327L146.25 62.1889L144.469 61.3764ZM88.75 71.1889L86.9688 67.0014C85.9688 64.7202 85.0625 62.8139 84.9688 62.8139C84.875 62.8139 81.875 65.7514 78.3438 69.3452L71.875 75.8764L71.8125 110.689C71.75 129.814 71.7188 145.501 71.7188 145.533C71.75 145.564 72.375 144.751 73.125 143.72C76.4062 139.22 81.0312 136.783 86.3438 136.783L88.75 136.751V103.97V71.1889ZM189 96.3452C188.781 96.1577 185.281 94.8764 181.25 93.4389C178.408 92.4476 175.83 91.5339 174.491 91.0591C173.93 90.8604 173.587 90.7386 173.531 90.7202C173.219 90.5952 173.125 93.8764 173.125 106.501C173.125 120.033 173.188 122.47 173.594 122.814C173.844 123.001 175.094 123.564 176.406 124.064C179.344 125.158 180.156 125.689 180.938 126.97C181.531 127.939 181.562 128.689 181.469 156.22L181.406 184.47L171.875 189.876C161.562 195.72 161.094 195.908 158.75 194.751L157.656 194.22L157.594 167.97L157.531 141.72L156.5 141.22C155.312 140.626 139.594 134.845 138.344 134.533L137.5 134.314V140.189V146.095L138.625 146.845C140.5 148.158 143.906 152.033 145.062 154.283C147.125 158.189 147.656 160.501 147.656 165.47C147.656 169.439 147.562 170.064 146.812 172.126C145.688 175.283 144.25 177.564 142.031 179.845C139.719 182.22 137.219 183.908 134.625 184.845L132.656 185.564L132.406 190.033C132.125 195.126 131.906 195.658 129.906 196.595C127.594 197.626 124.844 197.22 122.969 195.564L121.875 194.626V189.658C121.875 185.189 121.812 184.658 121.344 184.47C119.906 183.97 116.438 181.72 114.844 180.283C111.281 177.001 108.5 172.001 107.781 167.564L107.406 165.251L106.75 166.845C105 171.158 100.875 174.814 96.1562 176.283L93.8125 177.001L93.6875 180.033C93.5938 182.72 93.5 183.158 92.875 183.845C91.2812 185.533 87.625 185.689 85.9375 184.095C85.0625 183.314 85.0312 183.158 84.9062 179.751L84.75 176.189L82.1875 174.939C76.7188 172.283 72.2188 166.439 70.5 159.783L70.0938 158.283L69.4062 159.845C67.75 163.595 63.8125 167.033 59.75 168.314L57.8125 168.908V170.658C57.8125 172.689 57.2188 173.689 55.5 174.501C53.5312 175.439 49.8125 174.814 49.0625 173.408C48.875 173.095 48.75 171.783 48.75 170.501C48.75 169.189 48.625 168.126 48.5 168.126C48.3438 168.126 47.2188 167.47 45.9688 166.658L43.6875 165.22L38.25 168.001C35.2812 169.533 32.8125 170.876 32.8125 170.97C32.8125 171.095 33.0625 171.251 33.375 171.345C35 171.845 52.5625 179.845 91.0938 197.658C132.906 217.001 134.281 217.626 136.094 217.626C137.969 217.626 138.031 217.595 150 210.908C153.96 208.685 158.087 206.362 161.207 204.606C163.307 203.423 164.951 202.498 165.781 202.033C167.844 200.845 174.781 196.97 181.188 193.408L192.875 186.908L191.344 186.189L189.844 185.47L189.656 178.439C189.531 174.564 189.438 154.595 189.406 134.033C189.375 104.533 189.281 96.5639 189 96.3452ZM62.6562 106.22L57.9688 104.189C55.4062 103.095 53.2812 102.189 53.2188 102.189C53.1562 102.189 53.125 108.283 53.125 115.751V129.314L54.3125 129.533C55.875 129.814 59.6562 131.345 61.2188 132.314C61.9062 132.751 62.5625 133.126 62.6562 133.126C62.75 133.126 62.7812 127.064 62.75 119.658L62.6562 106.22ZM116.562 112.97L109.906 110.533C106.25 109.22 103.094 108.126 102.938 108.126C102.781 108.126 102.688 115.189 102.75 126.158L102.844 144.189L104.188 146.22C104.938 147.376 105.75 148.689 106.031 149.22C106.781 150.72 107.812 154.345 107.812 155.501C107.812 156.095 107.969 156.564 108.125 156.564C108.312 156.564 108.438 156.314 108.438 155.97C108.438 155.658 108.938 154.408 109.531 153.189C110.719 150.876 113.031 148.408 115.344 147.095L116.562 146.408V129.689V112.97ZM61.2188 149.783C60.625 145.501 57.6875 141.22 54.1875 139.501C53.125 138.97 51.7812 138.626 50.5625 138.533C48.875 138.408 48.3438 138.501 46.9375 139.251C41.9688 141.751 41.0312 149.158 44.9375 155.189C46.9062 158.22 49.6562 160.095 52.7812 160.501C58.2812 161.22 62.1562 156.345 61.2188 149.783ZM97.25 155.595C95.9688 152.001 93.4688 149.126 90.4062 147.595C85.9062 145.408 81.625 146.845 79.3438 151.314C76.8125 156.251 80.4375 165.095 86.0938 167.814C88.1562 168.814 91.0938 169.001 92.9688 168.314C94.5938 167.689 96.375 165.814 97.2812 163.783C98.1562 161.845 98.1562 158.064 97.25 155.595ZM135.125 164.033C133.781 159.439 130.312 155.72 126.281 154.564C124.281 153.97 123.781 153.97 121.781 154.501C114.625 156.439 113.531 167.533 119.844 173.814C122.844 176.814 126.688 178.095 129.969 177.189C131.844 176.689 134.406 174.126 135.094 172.064C135.781 170.095 135.781 166.283 135.125 164.033Z" fill="black"/>
<path fill-rule="evenodd" clip-rule="evenodd" d="M61.2188 149.783C60.625 145.501 57.6875 141.22 54.1875 139.501C53.125 138.97 51.7812 138.626 50.5625 138.533C48.875 138.408 48.3438 138.501 46.9375 139.251C41.9688 141.751 41.0312 149.158 44.9375 155.189C46.9062 158.22 49.6562 160.095 52.7812 160.501C58.2812 161.22 62.1562 156.345 61.2188 149.783ZM97.25 155.595C95.9688 152.001 93.4688 149.126 90.4062 147.595C85.9062 145.408 81.625 146.845 79.3438 151.314C76.8125 156.251 80.4375 165.095 86.0938 167.814C88.1562 168.814 91.0938 169.001 92.9688 168.314C94.5938 167.689 96.375 165.814 97.2812 163.783C98.1562 161.845 98.1562 158.064 97.25 155.595ZM135.125 164.033C133.781 159.439 130.312 155.72 126.281 154.564C124.281 153.97 123.781 153.97 121.781 154.501C114.625 156.439 113.531 167.533 119.844 173.814C122.844 176.814 126.688 178.095 129.969 177.189C131.844 176.689 134.406 174.126 135.094 172.064C135.781 170.095 135.781 166.283 135.125 164.033Z" fill="#186000"/>
</svg>
