<svg width="24" height="24" viewBox="0 0 24 24" fill="none" xmlns="http://www.w3.org/2000/svg">
<path fill-rule="evenodd" clip-rule="evenodd" d="M10.8609 5.15416L10.8562 5.14736C10.8536 5.14408 10.8514 5.14069 10.8492 5.13731L10.8443 5.13004C10.8103 5.09035 10.7682 5.0557 10.7163 5.03239C10.541 4.95427 10.3311 5.02231 10.2469 5.18422C10.2082 5.25887 10.2041 5.33982 10.2265 5.41353C10.6669 7.18152 10.4703 8.30426 10.1923 9.89167C10.1147 10.3352 10.0307 10.8149 9.95242 11.3552C9.81045 12.3338 9.6875 14.1072 9.65558 15.3177V20.9998H12.5561H12.7395V15.0336V12.382C12.7385 9.81991 12.3584 7.31228 10.8711 5.16973C10.8678 5.16426 10.8644 5.15925 10.8609 5.15416ZM3.20024 13.3746L3.19956 13.3756C3.08815 13.3223 2.94618 13.3154 2.79436 13.4241C2.77738 13.436 2.76209 13.4518 2.75123 13.4688C2.64763 13.6254 2.68092 13.7781 2.77534 13.8796C4.84038 16.2647 5.735 17.8443 6.14427 20.8531C6.15548 20.9369 6.2319 20.9999 6.32292 20.9999H8.59617C8.69568 20.9999 8.77651 20.9249 8.77651 20.8326V13.6751C8.77651 13.3053 8.68854 12.9403 8.51974 12.6054C7.32657 10.2405 6.112 8.25889 3.72295 6.90097C3.71789 6.89756 3.71252 6.89458 3.70704 6.89155L3.69917 6.88711C3.69306 6.88333 3.68694 6.87987 3.67947 6.87735C3.56807 6.82412 3.42644 6.81719 3.27462 6.92554C3.25797 6.93751 3.24269 6.95295 3.23182 6.96964C3.12755 7.12619 3.1605 7.27959 3.25526 7.38133C5.32878 9.77556 5.9843 12.3456 6.38915 15.3704C6.41021 15.5295 6.20371 15.6246 6.08347 15.5096C5.23844 14.701 4.2837 13.9904 3.24235 13.3989C3.23733 13.3953 3.23198 13.3924 3.22676 13.3896L3.22027 13.386L3.21258 13.3815C3.20849 13.3791 3.20442 13.3768 3.20024 13.3746ZM23.1747 13.3746L23.1757 13.3756C23.2871 13.3223 23.4287 13.3154 23.5809 13.4241C23.5976 13.436 23.6128 13.4518 23.624 13.4688C23.7273 13.6254 23.6943 13.7781 23.5996 13.8796C21.5346 16.2647 20.6399 17.8443 20.231 20.8531C20.2195 20.9369 20.1434 20.9999 20.0523 20.9999H17.7791C17.6793 20.9999 17.5988 20.9249 17.5988 20.8326V13.6751C17.5988 13.3053 17.6867 12.9403 17.8555 12.6054C19.0487 10.2405 20.2629 8.25889 22.652 6.90097C22.6568 6.89771 22.6621 6.89484 22.6674 6.89194L22.6761 6.88711C22.6822 6.88333 22.6883 6.87987 22.6958 6.87735C22.8072 6.82412 22.9485 6.81719 23.1003 6.92554C23.1173 6.93751 23.1322 6.95295 23.1434 6.96964C23.2474 7.12619 23.2144 7.27959 23.1197 7.38133C21.0461 9.77556 20.391 12.3456 19.9861 15.3704C19.9651 15.5295 20.1716 15.6246 20.2915 15.5096C21.1368 14.701 22.0916 13.9904 23.1329 13.3989C23.1382 13.3949 23.1442 13.3918 23.1501 13.3886L23.155 13.386L23.1631 13.3812C23.1669 13.3789 23.1707 13.3767 23.1747 13.3746ZM13.6632 12.3799C13.6631 12.3806 13.6629 12.3814 13.6629 12.382V15.0336V20.9998H13.846H16.7469V15.3177C16.715 14.1072 16.592 12.3338 16.4501 11.3552C16.3719 10.8161 16.288 10.3372 16.2105 9.89446C15.9322 8.3056 15.7356 7.18269 16.1773 5.41416L16.176 5.41353C16.1984 5.33982 16.1943 5.25887 16.1556 5.18422C16.0714 5.02231 15.8611 4.95427 15.6862 5.03239C15.6339 5.0557 15.5921 5.09035 15.5592 5.13067L15.5582 5.13004C15.5556 5.13333 15.5534 5.13672 15.5512 5.1401C15.5496 5.14255 15.548 5.14498 15.5463 5.14736L15.545 5.14911C15.54 5.156 15.5354 5.16246 15.5313 5.16973C14.044 7.31228 13.6636 9.81991 13.6633 12.3789C13.6633 12.3792 13.6632 12.3795 13.6632 12.3799Z" fill="#31B900"/>
</svg>
