<svg fill="none" viewBox="0 0 24 24" class="mui-15z585r-svgIcon" xmlns="http://www.w3.org/2000/svg"><path fill-rule="evenodd" clip-rule="evenodd" d="M15.2411 2.89456C15.4253 2.52603 15.9513 2.52603 16.1355 2.89456L23.3265 17.2765C23.4927 17.609 23.251 18.0001 22.8793 18.0001H16.6882V22.0002H14.6882V18.0001H13.1447C13.029 17.799 12.9147 17.5921 12.8095 17.3819L10.4035 12.5698L15.2411 2.89456ZM9.28545 14.8058L10.8826 18.0001H10.8825L11.0207 18.2765C11.187 18.609 10.9452 19.0001 10.5735 19.0001H7.38248V22.0004H5.38248V19.0001H2.19156C1.81987 19.0001 1.57812 18.609 1.74435 18.2765L5.93533 9.89456C6.11959 9.52603 6.6455 9.52603 6.82976 9.89456L9.28542 14.8059L9.28545 14.8058Z" fill="#196000"></path></svg>