<svg width="1137" height="657" viewBox="0 0 1137 657" fill="none" xmlns="http://www.w3.org/2000/svg">
<g opacity="0.8">
<rect width="61.2182" height="61.2182" rx="7.2" transform="matrix(0.866045 0.499967 0.866045 -0.499967 0.0859375 328.502)" fill="#186000"/>
<rect width="61.2182" height="61.2182" rx="7.2" transform="matrix(0.866045 0.499967 0.866045 -0.499967 57.3438 361.557)" fill="#186000"/>
<rect width="61.2182" height="61.2182" rx="7.2" transform="matrix(0.866045 0.499967 0.866045 -0.499967 114.605 394.612)" fill="#186000"/>
<rect width="61.2182" height="61.2182" rx="7.2" transform="matrix(0.866045 0.499967 0.866045 -0.499967 171.863 427.668)" fill="#186000"/>
<rect width="61.2182" height="61.2182" rx="7.2" transform="matrix(0.866045 0.499967 0.866045 -0.499967 229.121 460.725)" fill="#186000"/>
<rect width="61.2182" height="61.2182" rx="7.2" transform="matrix(0.866045 0.499967 0.866045 -0.499967 286.383 493.78)" fill="#186000"/>
<rect width="61.2182" height="61.2182" rx="7.2" transform="matrix(0.866045 0.499967 0.866045 -0.499967 343.641 526.835)" fill="#186000"/>
<rect width="61.2182" height="61.2182" rx="7.2" transform="matrix(0.866045 0.499967 0.866045 -0.499967 400.898 559.891)" fill="#186000"/>
<rect width="61.2182" height="61.2182" rx="7.2" transform="matrix(0.866045 0.499967 0.866045 -0.499967 458.156 592.946)" fill="#186000"/>
<rect width="61.2182" height="61.2182" rx="7.2" transform="matrix(0.866045 0.499967 0.866045 -0.499967 515.422 626.003)" fill="#186000"/>
<rect width="61.2182" height="61.2182" rx="7.2" transform="matrix(0.866045 0.499967 0.866045 -0.499967 57.3438 295.446)" fill="#186000"/>
<rect width="61.2182" height="61.2182" rx="7.2" transform="matrix(0.866045 0.499967 0.866045 -0.499967 114.605 328.502)" fill="#186000"/>
<rect width="61.2182" height="61.2182" rx="7.2" transform="matrix(0.866045 0.499967 0.866045 -0.499967 171.863 361.557)" fill="#186000"/>
<rect width="61.2182" height="61.2182" rx="7.2" transform="matrix(0.866045 0.499967 0.866045 -0.499967 229.121 394.612)" fill="#186000"/>
<rect width="61.2182" height="61.2182" rx="7.2" transform="matrix(0.866045 0.499967 0.866045 -0.499967 286.383 427.668)" fill="#186000"/>
<rect width="61.2182" height="61.2182" rx="7.2" transform="matrix(0.866045 0.499967 0.866045 -0.499967 343.641 460.725)" fill="#186000"/>
<rect width="61.2182" height="61.2182" rx="7.2" transform="matrix(0.866045 0.499967 0.866045 -0.499967 400.898 493.78)" fill="#186000"/>
<rect width="61.2182" height="61.2182" rx="7.2" transform="matrix(0.866045 0.499967 0.866045 -0.499967 458.156 526.835)" fill="#186000"/>
<rect width="61.2182" height="61.2182" rx="7.2" transform="matrix(0.866045 0.499967 0.866045 -0.499967 515.422 559.891)" fill="#186000"/>
<rect width="61.2182" height="61.2182" rx="7.2" transform="matrix(0.866045 0.499967 0.866045 -0.499967 572.676 592.946)" fill="#186000"/>
<rect width="61.2182" height="61.2182" rx="7.2" transform="matrix(0.866045 0.499967 0.866045 -0.499967 114.605 262.391)" fill="#30B901"/>
<rect width="61.2182" height="61.2182" rx="7.2" transform="matrix(0.866045 0.499967 0.866045 -0.499967 171.863 295.446)" fill="#30B901"/>
<rect width="61.2182" height="61.2182" rx="7.2" transform="matrix(0.866045 0.499967 0.866045 -0.499967 229.121 328.502)" fill="#30B901"/>
<rect width="61.2182" height="61.2182" rx="7.2" transform="matrix(0.866045 0.499967 0.866045 -0.499967 286.383 361.557)" fill="#284981"/>
<rect width="61.2182" height="61.2182" rx="7.2" transform="matrix(0.866045 0.499967 0.866045 -0.499967 343.641 394.612)" fill="#284981"/>
<rect width="61.2182" height="61.2182" rx="7.2" transform="matrix(0.866045 0.499967 0.866045 -0.499967 400.898 427.668)" fill="#284981"/>
<rect width="61.2182" height="61.2182" rx="7.2" transform="matrix(0.866045 0.499967 0.866045 -0.499967 458.156 460.725)" fill="#284981"/>
<rect width="61.2182" height="61.2182" rx="7.2" transform="matrix(0.866045 0.499967 0.866045 -0.499967 515.422 493.78)" fill="#284981"/>
<rect width="61.2182" height="61.2182" rx="7.2" transform="matrix(0.866045 0.499967 0.866045 -0.499967 572.676 526.835)" fill="#284981"/>
<rect width="61.2182" height="61.2182" rx="7.2" transform="matrix(0.866045 0.499967 0.866045 -0.499967 629.934 559.891)" fill="#B0B0B1"/>
<rect width="61.2182" height="61.2182" rx="7.2" transform="matrix(0.866045 0.499967 0.866045 -0.499967 171.863 229.334)" fill="#B0B0B1"/>
<rect width="61.2182" height="61.2182" rx="7.2" transform="matrix(0.866045 0.499967 0.866045 -0.499967 229.121 262.391)" fill="#B0B0B1"/>
<rect width="61.2182" height="61.2182" rx="7.2" transform="matrix(0.866045 0.499967 0.866045 -0.499967 286.383 295.446)" fill="#B0B0B1"/>
<rect width="61.2182" height="61.2182" rx="7.2" transform="matrix(0.866045 0.499967 0.866045 -0.499967 343.641 328.502)" fill="#B0B0B1"/>
<rect width="61.2182" height="61.2182" rx="7.2" transform="matrix(0.866045 0.499967 0.866045 -0.499967 400.898 361.557)" fill="#B0B0B1"/>
<rect width="61.2182" height="61.2182" rx="7.2" transform="matrix(0.866045 0.499967 0.866045 -0.499967 458.156 394.612)" fill="#B0B0B1"/>
<rect width="61.2182" height="61.2182" rx="7.2" transform="matrix(0.866045 0.499967 0.866045 -0.499967 515.422 427.668)" fill="#B0B0B1"/>
<rect width="61.2182" height="61.2182" rx="7.2" transform="matrix(0.866045 0.499967 0.866045 -0.499967 572.676 460.725)" fill="#B0B0B1"/>
<rect width="61.2182" height="61.2182" rx="7.2" transform="matrix(0.866045 0.499967 0.866045 -0.499967 629.934 493.78)" fill="#B0B0B1"/>
<rect width="61.2182" height="61.2182" rx="7.2" transform="matrix(0.866045 0.499967 0.866045 -0.499967 687.195 526.835)" fill="#B0B0B1"/>
<rect width="61.2182" height="61.2182" rx="7.2" transform="matrix(0.866045 0.499967 0.866045 -0.499967 229.121 196.278)" fill="#B0B0B1"/>
<rect width="61.2182" height="61.2182" rx="7.2" transform="matrix(0.866045 0.499967 0.866045 -0.499967 286.383 229.334)" fill="#B0B0B1"/>
<rect width="61.2182" height="61.2182" rx="7.2" transform="matrix(0.866045 0.499967 0.866045 -0.499967 343.641 262.391)" fill="#B0B0B1"/>
<rect width="61.2182" height="61.2182" rx="7.2" transform="matrix(0.866045 0.499967 0.866045 -0.499967 400.898 295.446)" fill="#B0B0B1"/>
<rect width="61.2182" height="61.2182" rx="7.2" transform="matrix(0.866045 0.499967 0.866045 -0.499967 458.156 328.502)" fill="#B0B0B1"/>
<rect width="61.2182" height="61.2182" rx="7.2" transform="matrix(0.866045 0.499967 0.866045 -0.499967 515.422 361.557)" fill="#B0B0B1"/>
<rect width="61.2182" height="61.2182" rx="7.2" transform="matrix(0.866045 0.499967 0.866045 -0.499967 572.676 394.612)" fill="#B0B0B1"/>
<rect width="61.2182" height="61.2182" rx="7.2" transform="matrix(0.866045 0.499967 0.866045 -0.499967 629.934 427.668)" fill="#B0B0B1"/>
<rect width="61.2182" height="61.2182" rx="7.2" transform="matrix(0.866045 0.499967 0.866045 -0.499967 687.195 460.725)" fill="#B0B0B1"/>
<rect width="61.2182" height="61.2182" rx="7.2" transform="matrix(0.866045 0.499967 0.866045 -0.499967 744.453 493.78)" fill="#B0B0B1"/>
<rect width="61.2182" height="61.2182" rx="7.2" transform="matrix(0.866045 0.499967 0.866045 -0.499967 286.383 163.224)" fill="#B0B0B1"/>
<rect width="61.2182" height="61.2182" rx="7.2" transform="matrix(0.866045 0.499967 0.866045 -0.499967 343.641 196.278)" fill="#B0B0B1"/>
<rect width="61.2182" height="61.2182" rx="7.2" transform="matrix(0.866045 0.499967 0.866045 -0.499967 400.898 229.334)" fill="#B0B0B1"/>
<rect width="61.2182" height="61.2182" rx="7.2" transform="matrix(0.866045 0.499967 0.866045 -0.499967 458.156 262.391)" fill="#B0B0B1"/>
<rect width="61.2182" height="61.2182" rx="7.2" transform="matrix(0.866045 0.499967 0.866045 -0.499967 515.422 295.446)" fill="#B0B0B1"/>
<rect width="61.2182" height="61.2182" rx="7.2" transform="matrix(0.866045 0.499967 0.866045 -0.499967 572.676 328.502)" fill="#B0B0B1"/>
<rect width="61.2182" height="61.2182" rx="7.2" transform="matrix(0.866045 0.499967 0.866045 -0.499967 629.934 361.557)" fill="#B0B0B1"/>
<rect width="61.2182" height="61.2182" rx="7.2" transform="matrix(0.866045 0.499967 0.866045 -0.499967 687.195 394.612)" fill="#B0B0B1"/>
<rect width="61.2182" height="61.2182" rx="7.2" transform="matrix(0.866045 0.499967 0.866045 -0.499967 744.453 427.668)" fill="#B0B0B1"/>
<rect width="61.2182" height="61.2182" rx="7.2" transform="matrix(0.866045 0.499967 0.866045 -0.499967 801.715 460.725)" fill="#B0B0B1"/>
<rect width="61.2182" height="61.2182" rx="7.2" transform="matrix(0.866045 0.499967 0.866045 -0.499967 343.641 130.167)" fill="#B0B0B1"/>
<rect width="61.2182" height="61.2182" rx="7.2" transform="matrix(0.866045 0.499967 0.866045 -0.499967 400.898 163.224)" fill="#B0B0B1"/>
<rect width="61.2182" height="61.2182" rx="7.2" transform="matrix(0.866045 0.499967 0.866045 -0.499967 458.156 196.278)" fill="#B0B0B1"/>
<rect width="61.2182" height="61.2182" rx="7.2" transform="matrix(0.866045 0.499967 0.866045 -0.499967 515.422 229.334)" fill="#B0B0B1"/>
<rect width="61.2182" height="61.2182" rx="7.2" transform="matrix(0.866045 0.499967 0.866045 -0.499967 572.676 262.391)" fill="#B0B0B1"/>
<rect width="61.2182" height="61.2182" rx="7.2" transform="matrix(0.866045 0.499967 0.866045 -0.499967 629.934 295.446)" fill="#B0B0B1"/>
<rect width="61.2182" height="61.2182" rx="7.2" transform="matrix(0.866045 0.499967 0.866045 -0.499967 687.195 328.502)" fill="#B0B0B1"/>
<rect width="61.2182" height="61.2182" rx="7.2" transform="matrix(0.866045 0.499967 0.866045 -0.499967 744.453 361.557)" fill="#B0B0B1"/>
<rect width="61.2182" height="61.2182" rx="7.2" transform="matrix(0.866045 0.499967 0.866045 -0.499967 801.715 394.612)" fill="#B0B0B1"/>
<rect width="61.2182" height="61.2182" rx="7.2" transform="matrix(0.866045 0.499967 0.866045 -0.499967 858.973 427.668)" fill="#B0B0B1"/>
<rect width="61.2182" height="61.2182" rx="7.2" transform="matrix(0.866045 0.499967 0.866045 -0.499967 400.898 97.1113)" fill="#B0B0B1"/>
<rect width="61.2182" height="61.2182" rx="7.2" transform="matrix(0.866045 0.499967 0.866045 -0.499967 458.156 130.167)" fill="#B0B0B1"/>
<rect width="61.2182" height="61.2182" rx="7.2" transform="matrix(0.866045 0.499967 0.866045 -0.499967 515.422 163.224)" fill="#B0B0B1"/>
<rect width="61.2182" height="61.2182" rx="7.2" transform="matrix(0.866045 0.499967 0.866045 -0.499967 572.676 196.278)" fill="#B0B0B1"/>
<rect width="61.2182" height="61.2182" rx="7.2" transform="matrix(0.866045 0.499967 0.866045 -0.499967 629.934 229.334)" fill="#B0B0B1"/>
<rect width="61.2182" height="61.2182" rx="7.2" transform="matrix(0.866045 0.499967 0.866045 -0.499967 687.195 262.391)" fill="#B0B0B1"/>
<rect width="61.2182" height="61.2182" rx="7.2" transform="matrix(0.866045 0.499967 0.866045 -0.499967 744.453 295.446)" fill="#B0B0B1"/>
<rect width="61.2182" height="61.2182" rx="7.2" transform="matrix(0.866045 0.499967 0.866045 -0.499967 801.715 328.502)" fill="#B0B0B1"/>
<rect width="61.2182" height="61.2182" rx="7.2" transform="matrix(0.866045 0.499967 0.866045 -0.499967 858.973 361.557)" fill="#B0B0B1"/>
<rect width="61.2182" height="61.2182" rx="7.2" transform="matrix(0.866045 0.499967 0.866045 -0.499967 916.234 394.612)" fill="#B0B0B1"/>
<rect width="61.2182" height="61.2182" rx="7.2" transform="matrix(0.866045 0.499967 0.866045 -0.499967 458.156 64.0557)" fill="#B0B0B1"/>
<rect width="61.2182" height="61.2182" rx="7.2" transform="matrix(0.866045 0.499967 0.866045 -0.499967 515.422 97.1113)" fill="#B0B0B1"/>
<rect width="61.2182" height="61.2182" rx="7.2" transform="matrix(0.866045 0.499967 0.866045 -0.499967 572.676 130.167)" fill="#B0B0B1"/>
<rect width="61.2182" height="61.2182" rx="7.2" transform="matrix(0.866045 0.499967 0.866045 -0.499967 629.934 163.224)" fill="#B0B0B1"/>
<rect width="61.2182" height="61.2182" rx="7.2" transform="matrix(0.866045 0.499967 0.866045 -0.499967 687.195 196.278)" fill="#B0B0B1"/>
<rect width="61.2182" height="61.2182" rx="7.2" transform="matrix(0.866045 0.499967 0.866045 -0.499967 744.453 229.334)" fill="#B0B0B1"/>
<rect width="61.2182" height="61.2182" rx="7.2" transform="matrix(0.866045 0.499967 0.866045 -0.499967 801.715 262.391)" fill="#B0B0B1"/>
<rect width="61.2182" height="61.2182" rx="7.2" transform="matrix(0.866045 0.499967 0.866045 -0.499967 858.973 295.446)" fill="#B0B0B1"/>
<rect width="61.2182" height="61.2182" rx="7.2" transform="matrix(0.866045 0.499967 0.866045 -0.499967 916.234 328.502)" fill="#B0B0B1"/>
<rect width="61.2182" height="61.2182" rx="7.2" transform="matrix(0.866045 0.499967 0.866045 -0.499967 973.492 361.557)" fill="#B0B0B1"/>
<rect width="61.2182" height="61.2182" rx="7.2" transform="matrix(0.866045 0.499967 0.866045 -0.499967 515.422 31)" fill="#B0B0B1"/>
<rect width="61.2182" height="61.2182" rx="7.2" transform="matrix(0.866045 0.499967 0.866045 -0.499967 572.676 64.0557)" fill="#B0B0B1"/>
<rect width="61.2182" height="61.2182" rx="7.2" transform="matrix(0.866045 0.499967 0.866045 -0.499967 629.934 97.1113)" fill="#B0B0B1"/>
<rect width="61.2182" height="61.2182" rx="7.2" transform="matrix(0.866045 0.499967 0.866045 -0.499967 687.195 130.167)" fill="#B0B0B1"/>
<rect width="61.2182" height="61.2182" rx="7.2" transform="matrix(0.866045 0.499967 0.866045 -0.499967 744.453 163.224)" fill="#B0B0B1"/>
<rect width="61.2182" height="61.2182" rx="7.2" transform="matrix(0.866045 0.499967 0.866045 -0.499967 801.715 196.278)" fill="#B0B0B1"/>
<rect width="61.2182" height="61.2182" rx="7.2" transform="matrix(0.866045 0.499967 0.866045 -0.499967 858.973 229.334)" fill="#B0B0B1"/>
<rect width="61.2182" height="61.2182" rx="7.2" transform="matrix(0.866045 0.499967 0.866045 -0.499967 916.234 262.391)" fill="#B0B0B1"/>
<rect width="61.2182" height="61.2182" rx="7.2" transform="matrix(0.866045 0.499967 0.866045 -0.499967 973.492 295.446)" fill="#B0B0B1"/>
<rect width="61.2182" height="61.2182" rx="7.2" transform="matrix(0.866045 0.499967 0.866045 -0.499967 1030.75 328.502)" fill="#B0B0B1"/>
</g>
</svg>
